<?xml version="1.0" encoding="utf-8"?>
<svg width="1590" height="265" viewBox="0 0 1590 265" fill="none" stroke="none" version="1.1" xmlns:xlink="http://www.w3.org/1999/xlink" xmlns="http://www.w3.org/2000/svg">
  <defs>
    <path id="path_1" d="M1590 0L1590 0L1590 265L0 265L0 0L1590 0Z" />
    <rect id="rect_2" x="0" y="0" width="1590" height="265" />
    <clipPath id="clip_path_3">
      <use xlink:href="#rect_2" />
    </clipPath>
    <path id="path_4" d="M198.75 0L198.75 0L198.75 265L0 265L0 0L198.75 0Z" />
    <rect id="rect_5" x="0" y="0" width="198.75" height="265" />
    <clipPath id="clip_path_6">
      <use xlink:href="#rect_5" />
    </clipPath>
    <rect id="rect_7" x="0" y="0" width="199" height="265" />
    <clipPath id="clip_path_8">
      <use xlink:href="#rect_7" />
    </clipPath>
    <rect id="rect_9" x="0" y="0" width="198" height="265" />
    <clipPath id="clip_path_10">
      <use xlink:href="#rect_9" />
    </clipPath>
    <rect id="rect_11" x="0" y="0" width="203" height="265" />
    <clipPath id="clip_path_12">
      <use xlink:href="#rect_11" />
    </clipPath>
  </defs>
  <g id="Colors" opacity="1" clip-path="url(#clip_path_3)">
    <g>
      <use xlink:href="#path_1" style="fill:#F5F5F5;fill-rule:evenodd;fill-opacity:0.961;mix-blend-mode:normal;" />
      <g>
        <g id="Color" opacity="1" clip-path="url(#clip_path_6)" transform="translate(198.75 0)">
          <g>
            <use xlink:href="#path_4" style="fill:#B14242;fill-rule:evenodd;mix-blend-mode:normal;" />
            <g>
              <g clip-path="url(#clip_path_8)" style="mix-blend-mode:normal;" transform="translate(0.25 111.8)">
                <path d="M6.54785 32.6197Q5.79199 32.6197 5.30859 32.1187Q4.8252 31.609 4.8252 30.9586Q4.8252 30.6686 5.00098 30.0621L6.23145 25.7379L3.52441 25.7379Q2.80371 25.7379 2.30273 25.2369Q1.80176 24.7359 1.80176 24.0152Q1.80176 23.3297 2.30273 22.8111Q2.80371 22.2838 3.52441 22.2838L7.2334 22.2838L8.31445 18.5748L5.00098 18.5748Q4.28027 18.5748 3.7793 18.0738Q3.27832 17.5641 3.27832 16.8521Q3.27832 16.1666 3.7793 15.648Q4.28027 15.1207 5.00098 15.1207L9.36035 15.1207L10.9072 9.68027Q11.0479 9.14414 11.5312 8.80136Q12.0234 8.45859 12.6035 8.45859Q13.3594 8.45859 13.8428 8.96836Q14.3262 9.46933 14.3262 10.1549Q14.3262 10.4361 14.1855 10.9459L12.9639 15.1207L16.2334 15.1207L17.8242 9.68027Q17.9648 9.14414 18.4482 8.80136Q18.9316 8.45859 19.4766 8.45859Q20.2324 8.45859 20.7158 8.98594Q21.208 9.50449 21.208 10.19Q21.208 10.5152 21.0938 10.9107L19.8369 15.1207L22.0693 15.1207Q22.7549 15.1207 23.2734 15.648Q23.792 16.1666 23.792 16.8521Q23.792 17.5641 23.2734 18.0738Q22.7549 18.5748 22.0693 18.5748L18.8262 18.5748L17.7803 22.2838L20.5928 22.2838Q21.2783 22.2838 21.7969 22.8111Q22.3242 23.3297 22.3242 24.0152Q22.3242 24.7359 21.8145 25.2369Q21.3135 25.7379 20.5928 25.7379L16.7783 25.7379L15.1172 31.3893Q14.9414 32.0045 14.4668 32.3121Q14.001 32.6197 13.4648 32.6197Q12.709 32.6197 12.2168 32.1012Q11.7334 31.5738 11.7334 30.8883Q11.7334 30.4928 11.8828 30.027L13.1396 25.7379L9.86133 25.7379L8.24414 31.3893Q8.06836 31.9693 7.57617 32.2945Q7.09277 32.6197 6.54785 32.6197ZM14.1504 22.2838L15.2314 18.5748L11.918 18.5748L10.8721 22.2838L14.1504 22.2838ZM30.386 32.69Q29.2347 32.69 28.7601 32.2242Q28.2942 31.7496 28.2942 30.7037L28.2942 10.0406Q28.2942 9.31992 28.8304 8.80136Q29.3753 8.28281 30.0608 8.28281L36.178 8.28281Q38.7708 8.28281 40.6253 9.16172Q42.4798 10.0406 43.4114 11.4996Q44.3519 12.9586 44.3519 14.6549Q44.3519 17.3531 42.6995 19.1549Q44.5276 20.0162 45.4241 21.44Q46.3294 22.8639 46.3294 24.9469Q46.3294 28.691 42.3304 30.6949Q38.3401 32.69 30.386 32.69ZM37.3997 18.0387Q38.8763 18.0387 39.8343 17.0103Q40.7923 15.982 40.7923 14.69Q40.7923 13.4244 39.5794 12.5807Q38.3753 11.7369 36.178 11.7369L31.8978 11.7369L31.8978 18.0387L37.3997 18.0387ZM31.8978 29.2711Q36.6878 29.192 39.7288 28.1197Q42.7698 27.0387 42.7698 24.9469Q42.7698 23.4 41.3636 22.4508Q39.9573 21.4928 37.3997 21.4928L31.8978 21.4928L31.8978 29.2711ZM51.4416 32.4Q50.6857 32.4 50.2023 31.899Q49.7189 31.3893 49.7189 30.6686Q49.7189 29.9478 50.2023 29.4469Q50.6857 28.9459 51.4416 28.9459L53.5334 28.9459L53.7883 14.8658L52.593 16.1314Q52.092 16.6324 51.3361 16.6324Q50.6154 16.6324 50.1057 16.1314Q49.6047 15.6217 49.6047 14.901Q49.6047 14.2945 50.0793 13.7496L54.2893 9.17929Q54.5002 8.96836 54.8605 8.81015Q55.2209 8.64316 55.5109 8.64316Q56.302 8.64316 56.7854 9.16172Q57.2775 9.68027 57.2775 10.3658L57.0227 28.9459L58.4992 28.9459Q59.3254 28.9459 59.8088 29.4469Q60.301 29.9478 60.301 30.6686Q60.301 31.3893 59.7736 31.899Q59.2551 32.4 58.5695 32.4L51.4416 32.4ZM73.3331 32.6549Q72.6124 32.6549 72.1026 32.1363Q71.6017 31.609 71.6017 30.9234L71.6017 27.1793L64.2276 27.0738Q63.4278 27.0738 62.962 26.608Q62.4962 26.1334 62.4962 25.3775Q62.4962 24.9117 62.7862 24.4107L71.8917 9.43418Q72.3927 8.60801 73.3331 8.60801Q74.089 8.60801 74.59 9.10898Q75.0997 9.60996 75.0997 10.3307L75.0997 23.7955L75.4601 23.7955Q76.172 23.7955 76.6378 24.3053Q77.1124 24.8062 77.1124 25.527Q77.1124 26.2477 76.5675 26.7486Q76.0314 27.2496 75.3107 27.2496L75.0997 27.2496L75.0997 30.9234Q75.0997 31.609 74.5548 32.1363Q74.0187 32.6549 73.3331 32.6549ZM71.6017 16.527L67.2862 23.6197L71.6017 23.7252L71.6017 16.527ZM80.0658 30.7037Q80.0658 27.7945 80.9622 25.7994Q81.8675 23.7955 83.1947 22.5562Q84.5306 21.3082 86.473 20.0865Q88.1956 18.9352 89.0394 18.2936Q89.8919 17.6432 90.4456 16.8346Q91.0081 16.0172 91.0081 14.9801Q91.0081 13.7145 89.9974 12.9059Q88.9954 12.0973 87.4837 12.0973Q86.0072 12.0973 84.8734 12.8531Q83.7396 13.609 83.1595 14.2945Q82.7991 14.69 82.4915 14.8922Q82.1839 15.0855 81.6478 15.0855Q80.8919 15.0855 80.3997 14.5494Q79.9163 14.0045 79.9163 13.3189Q79.9163 12.8883 80.1536 12.4928Q80.3909 12.0973 81.0677 11.4469Q82.263 10.2955 83.8802 9.46933Q85.4974 8.64316 87.4837 8.64316Q89.4964 8.64316 91.0784 9.48691Q92.6605 10.3307 93.557 11.7896Q94.4622 13.2486 94.4622 14.9801Q94.4622 16.8521 93.6361 18.276Q92.8099 19.691 91.6409 20.6842Q90.472 21.6686 88.6351 22.8199Q86.473 24.2262 85.2074 25.5621Q83.9505 26.8893 83.6253 28.9811L93.0208 28.9811Q93.7064 28.9811 94.2249 29.4908Q94.7523 29.9918 94.7523 30.7037Q94.7523 31.3893 94.2249 31.899Q93.7064 32.4 93.0208 32.4L80.0658 32.4L80.0658 30.7037ZM107.065 32.6549Q106.344 32.6549 105.835 32.1363Q105.334 31.609 105.334 30.9234L105.334 27.1793L97.9596 27.0738Q97.1598 27.0738 96.694 26.608Q96.2282 26.1334 96.2282 25.3775Q96.2282 24.9117 96.5182 24.4107L105.624 9.43418Q106.125 8.60801 107.065 8.60801Q107.821 8.60801 108.322 9.10898Q108.832 9.60996 108.832 10.3307L108.832 23.7955L109.192 23.7955Q109.904 23.7955 110.37 24.3053Q110.844 24.8062 110.844 25.527Q110.844 26.2477 110.299 26.7486Q109.763 27.2496 109.043 27.2496L108.832 27.2496L108.832 30.9234Q108.832 31.609 108.287 32.1363Q107.751 32.6549 107.065 32.6549ZM105.334 16.527L101.018 23.6197L105.334 23.7252L105.334 16.527ZM113.798 30.7037Q113.798 27.7945 114.694 25.7994Q115.6 23.7955 116.927 22.5562Q118.263 21.3082 120.205 20.0865Q121.928 18.9352 122.771 18.2936Q123.624 17.6432 124.178 16.8346Q124.74 16.0172 124.74 14.9801Q124.74 13.7145 123.729 12.9059Q122.727 12.0973 121.216 12.0973Q119.739 12.0973 118.605 12.8531Q117.472 13.609 116.891 14.2945Q116.531 14.69 116.224 14.8922Q115.916 15.0855 115.38 15.0855Q114.624 15.0855 114.132 14.5494Q113.648 14.0045 113.648 13.3189Q113.648 12.8883 113.886 12.4928Q114.123 12.0973 114.8 11.4469Q115.995 10.2955 117.612 9.46933Q119.229 8.64316 121.216 8.64316Q123.228 8.64316 124.81 9.48691Q126.392 10.3307 127.289 11.7896Q128.194 13.2486 128.194 14.9801Q128.194 16.8521 127.368 18.276Q126.542 19.691 125.373 20.6842Q124.204 21.6686 122.367 22.8199Q120.205 24.2262 118.939 25.5621Q117.683 26.8893 117.357 28.9811L126.753 28.9811Q127.438 28.9811 127.957 29.4908Q128.484 29.9918 128.484 30.7037Q128.484 31.3893 127.957 31.899Q127.438 32.4 126.753 32.4L113.798 32.4L113.798 30.7037Z" transform="translate(34.538 0)" style="fill:#FFFFFF;" />
              </g>
            </g>
          </g>
        </g>
        <g id="Color" opacity="1" clip-path="url(#clip_path_6)" transform="translate(397.5 0)">
          <g>
            <use xlink:href="#path_4" style="fill:#D87C4A;fill-rule:evenodd;mix-blend-mode:normal;" />
            <g>
              <g clip-path="url(#clip_path_10)" style="mix-blend-mode:normal;" transform="translate(0.5 111.8)">
                <path d="M6.54785 32.6197Q5.79199 32.6197 5.30859 32.1187Q4.8252 31.609 4.8252 30.9586Q4.8252 30.6686 5.00098 30.0621L6.23145 25.7379L3.52441 25.7379Q2.80371 25.7379 2.30273 25.2369Q1.80176 24.7359 1.80176 24.0152Q1.80176 23.3297 2.30273 22.8111Q2.80371 22.2838 3.52441 22.2838L7.2334 22.2838L8.31445 18.5748L5.00098 18.5748Q4.28027 18.5748 3.7793 18.0738Q3.27832 17.5641 3.27832 16.8521Q3.27832 16.1666 3.7793 15.648Q4.28027 15.1207 5.00098 15.1207L9.36035 15.1207L10.9072 9.68027Q11.0479 9.14414 11.5312 8.80136Q12.0234 8.45859 12.6035 8.45859Q13.3594 8.45859 13.8428 8.96836Q14.3262 9.46933 14.3262 10.1549Q14.3262 10.4361 14.1855 10.9459L12.9639 15.1207L16.2334 15.1207L17.8242 9.68027Q17.9648 9.14414 18.4482 8.80136Q18.9316 8.45859 19.4766 8.45859Q20.2324 8.45859 20.7158 8.98594Q21.208 9.50449 21.208 10.19Q21.208 10.5152 21.0938 10.9107L19.8369 15.1207L22.0693 15.1207Q22.7549 15.1207 23.2734 15.648Q23.792 16.1666 23.792 16.8521Q23.792 17.5641 23.2734 18.0738Q22.7549 18.5748 22.0693 18.5748L18.8262 18.5748L17.7803 22.2838L20.5928 22.2838Q21.2783 22.2838 21.7969 22.8111Q22.3242 23.3297 22.3242 24.0152Q22.3242 24.7359 21.8145 25.2369Q21.3135 25.7379 20.5928 25.7379L16.7783 25.7379L15.1172 31.3893Q14.9414 32.0045 14.4668 32.3121Q14.001 32.6197 13.4648 32.6197Q12.709 32.6197 12.2168 32.1012Q11.7334 31.5738 11.7334 30.8883Q11.7334 30.4928 11.8828 30.027L13.1396 25.7379L9.86133 25.7379L8.24414 31.3893Q8.06836 31.9693 7.57617 32.2945Q7.09277 32.6197 6.54785 32.6197ZM14.1504 22.2838L15.2314 18.5748L11.918 18.5748L10.8721 22.2838L14.1504 22.2838ZM33.9808 32.8307Q32.7239 32.8307 31.4231 32.5934Q30.1312 32.3648 29.6653 32.2242Q29.0853 32.0396 28.6897 31.5387Q28.2942 31.0289 28.2942 30.4576L28.2942 10.0406Q28.2942 9.28476 28.8128 8.78379Q29.3401 8.28281 30.096 8.28281Q33.7347 8.28281 37.4349 9.36386Q41.1439 10.4361 43.8597 13.3893Q46.5843 16.3424 46.5843 21.5631Q46.5843 25.3424 44.9231 27.8824Q43.2708 30.4225 40.4231 31.6266Q37.5843 32.8307 33.9808 32.8307ZM33.9808 29.2359Q38.1995 29.2359 40.5901 27.2936Q42.9808 25.3424 42.9808 21.5631Q42.9808 16.8873 39.9398 14.6197Q36.8987 12.3521 31.8978 11.9478L31.8978 29.0162Q33.1194 29.2359 33.9808 29.2359ZM57.1295 32.6197Q54.9761 32.6197 53.2447 31.776Q51.5133 30.9234 50.5377 29.4117Q49.5709 27.9 49.5709 26.0279Q49.5709 22.2135 53.2095 19.8756Q51.9879 19.0758 51.3199 17.9684Q50.6519 16.8521 50.6519 15.2262Q50.6519 13.2486 51.5836 11.7545Q52.524 10.2603 54.0709 9.45176Q55.6177 8.64316 57.4898 8.64316Q59.397 8.64316 60.9088 9.4166Q62.4205 10.19 63.2642 11.5611Q64.1168 12.9234 64.1168 14.69Q64.1168 17.7486 61.3482 19.6559Q62.9302 20.7721 63.7916 22.2662Q64.6529 23.7603 64.6529 25.527Q64.6529 27.5045 63.6773 29.1305Q62.7105 30.7477 60.9791 31.6881Q59.2564 32.6197 57.1295 32.6197ZM57.2789 17.9244Q59.2213 17.1334 59.9595 16.3248Q60.6978 15.5162 60.6978 14.5055Q60.6978 13.4244 59.775 12.7828Q58.8609 12.1324 57.4898 12.1324Q55.9781 12.1324 55.0025 12.9059Q54.0357 13.6793 54.0357 15.0855Q54.0357 16.0963 54.7916 16.7643Q55.5474 17.4234 57.2789 17.9244ZM57.1295 29.1568Q58.7554 29.1568 60.0123 28.2252Q61.2691 27.2848 61.2691 25.5973Q61.2691 24.1559 60.1881 23.1363Q59.1158 22.108 57.4898 21.5631Q56.0133 22.2135 55.1343 22.6969Q54.2554 23.1803 53.6226 24.0152Q52.9898 24.8414 52.9898 26.0279Q52.9898 27.399 54.1763 28.2779Q55.3717 29.1568 57.1295 29.1568ZM70.455 32.5758Q69.7343 32.5758 69.2245 32.0572Q68.7236 31.5387 68.7236 30.8531Q68.7236 30.5279 68.9433 30.0973L77.7939 12.3521L68.7939 12.3521Q68.0732 12.3521 67.5722 11.8512Q67.0712 11.3414 67.0712 10.6207Q67.0712 9.93515 67.5722 9.4166Q68.0732 8.88926 68.7939 8.88926L80.5712 8.88926Q81.2919 8.88926 81.7929 9.4166Q82.2939 9.93515 82.2939 10.6559Q82.2939 11.0514 81.8632 11.9127L72.0019 31.6441Q71.747 32.1451 71.3163 32.3648Q70.8857 32.5758 70.455 32.5758ZM94.6091 32.6197Q91.7263 32.6197 89.3093 31.3277Q86.9011 30.027 85.4949 27.566Q84.0974 25.0963 84.0974 21.7828Q84.0974 18.2848 85.7322 15.1031Q87.3757 11.9127 89.9773 9.98789Q92.5876 8.06308 95.3298 8.06308Q96.4812 8.06308 97.615 8.42344Q98.7488 8.78379 99.6452 9.31992Q100.076 8.88926 100.726 8.88926Q101.447 8.88926 101.913 9.38144Q102.387 9.86484 102.387 10.5504L102.387 12.8531Q102.387 13.5738 101.86 14.1187Q101.342 14.6549 100.586 14.6549Q99.865 14.6549 99.3728 14.2242Q98.8894 13.7848 98.8894 13.2135L98.8894 12.9586Q97.5622 11.5523 95.0749 11.5523Q93.2732 11.5523 91.5417 13.0113Q89.8191 14.4703 88.7556 16.8521Q87.6921 19.2252 87.6921 21.7828Q87.6921 24.0504 88.6238 25.7291Q89.5642 27.399 91.1286 28.2779Q92.7019 29.1568 94.6091 29.1568Q98.0984 29.1568 100.366 26.1686Q100.691 25.773 101.016 25.6148Q101.342 25.4478 101.772 25.4478Q102.528 25.4478 103.047 25.94Q103.574 26.4234 103.574 27.2496Q103.574 27.8648 103.249 28.3307Q101.772 30.4225 99.5222 31.5211Q97.2722 32.6197 94.6091 32.6197ZM116.245 32.6549Q115.524 32.6549 115.015 32.1363Q114.514 31.609 114.514 30.9234L114.514 27.1793L107.14 27.0738Q106.34 27.0738 105.874 26.608Q105.408 26.1334 105.408 25.3775Q105.408 24.9117 105.698 24.4107L114.804 9.43418Q115.305 8.60801 116.245 8.60801Q117.001 8.60801 117.502 9.10898Q118.012 9.60996 118.012 10.3307L118.012 23.7955L118.372 23.7955Q119.084 23.7955 119.55 24.3053Q120.024 24.8062 120.024 25.527Q120.024 26.2477 119.479 26.7486Q118.943 27.2496 118.223 27.2496L118.012 27.2496L118.012 30.9234Q118.012 31.609 117.467 32.1363Q116.931 32.6549 116.245 32.6549ZM114.514 16.527L110.198 23.6197L114.514 23.7252L114.514 16.527ZM138.956 32.6549Q137.664 32.6549 137.269 31.4244L134.676 23.9361L127.328 25.5621L124.99 31.4684Q124.78 31.9693 124.358 32.2945Q123.945 32.6197 123.338 32.6197Q122.617 32.6197 122.072 32.1187Q121.536 31.609 121.536 30.9234Q121.536 30.4576 121.791 29.8424L123.224 26.2477Q123.013 26.1686 122.907 26.0982Q121.967 25.6324 121.967 24.5162Q121.967 23.8658 122.345 23.4Q122.723 22.9342 123.338 22.7848L124.665 22.5035L130 8.96836Q130.211 8.42344 130.677 8.14219Q131.152 7.85215 131.688 7.85215Q132.268 7.85215 132.698 8.14219Q133.129 8.42344 133.34 9.03867L140.512 29.8072Q140.547 29.8775 140.653 30.2203Q140.758 30.5631 140.758 30.9234Q140.758 31.609 140.257 32.1363Q139.756 32.6549 138.956 32.6549ZM133.489 20.5963L131.547 14.7955L128.84 21.5982L133.489 20.5963Z" transform="translate(28.476 0)" style="fill:#FFFFFF;" />
              </g>
            </g>
          </g>
        </g>
        <g id="Color" opacity="1" clip-path="url(#clip_path_6)" transform="translate(596.25 0)">
          <g>
            <use xlink:href="#path_4" style="fill:#E49A44;fill-rule:evenodd;mix-blend-mode:normal;" />
            <g>
              <g clip-path="url(#clip_path_8)" style="mix-blend-mode:normal;" transform="translate(-0.25 111.8)">
                <path d="M6.54785 32.6197Q5.79199 32.6197 5.30859 32.1187Q4.8252 31.609 4.8252 30.9586Q4.8252 30.6686 5.00098 30.0621L6.23145 25.7379L3.52441 25.7379Q2.80371 25.7379 2.30273 25.2369Q1.80176 24.7359 1.80176 24.0152Q1.80176 23.3297 2.30273 22.8111Q2.80371 22.2838 3.52441 22.2838L7.2334 22.2838L8.31445 18.5748L5.00098 18.5748Q4.28027 18.5748 3.7793 18.0738Q3.27832 17.5641 3.27832 16.8521Q3.27832 16.1666 3.7793 15.648Q4.28027 15.1207 5.00098 15.1207L9.36035 15.1207L10.9072 9.68027Q11.0479 9.14414 11.5312 8.80136Q12.0234 8.45859 12.6035 8.45859Q13.3594 8.45859 13.8428 8.96836Q14.3262 9.46933 14.3262 10.1549Q14.3262 10.4361 14.1855 10.9459L12.9639 15.1207L16.2334 15.1207L17.8242 9.68027Q17.9648 9.14414 18.4482 8.80136Q18.9316 8.45859 19.4766 8.45859Q20.2324 8.45859 20.7158 8.98594Q21.208 9.50449 21.208 10.19Q21.208 10.5152 21.0938 10.9107L19.8369 15.1207L22.0693 15.1207Q22.7549 15.1207 23.2734 15.648Q23.792 16.1666 23.792 16.8521Q23.792 17.5641 23.2734 18.0738Q22.7549 18.5748 22.0693 18.5748L18.8262 18.5748L17.7803 22.2838L20.5928 22.2838Q21.2783 22.2838 21.7969 22.8111Q22.3242 23.3297 22.3242 24.0152Q22.3242 24.7359 21.8145 25.2369Q21.3135 25.7379 20.5928 25.7379L16.7783 25.7379L15.1172 31.3893Q14.9414 32.0045 14.4668 32.3121Q14.001 32.6197 13.4648 32.6197Q12.709 32.6197 12.2168 32.1012Q11.7334 31.5738 11.7334 30.8883Q11.7334 30.4928 11.8828 30.027L13.1396 25.7379L9.86133 25.7379L8.24414 31.3893Q8.06836 31.9693 7.57617 32.2945Q7.09277 32.6197 6.54785 32.6197ZM14.1504 22.2838L15.2314 18.5748L11.918 18.5748L10.8721 22.2838L14.1504 22.2838ZM30.096 32.4Q29.3401 32.4 28.8128 31.8814Q28.2942 31.3541 28.2942 30.5982L28.2942 10.0758Q28.2942 9.31992 28.8128 8.80136Q29.3401 8.28281 30.096 8.28281L44.4573 8.28281Q45.2132 8.28281 45.7142 8.80136Q46.2239 9.31992 46.2239 10.0758Q46.2239 10.8404 45.7142 11.359Q45.2132 11.8775 44.4573 11.8775L31.8626 11.8775L31.8626 18.0738L42.805 18.0738Q43.5608 18.0738 44.0618 18.5748Q44.5716 19.0758 44.5716 19.8316Q44.5716 20.5963 44.0618 21.1148Q43.5608 21.6334 42.805 21.6334L31.8626 21.6334L31.8626 28.7965L44.387 28.7965Q45.1429 28.7965 45.6439 29.3238Q46.1536 29.8424 46.1536 30.5982Q46.1536 31.3541 45.6439 31.8814Q45.1429 32.4 44.387 32.4L30.096 32.4ZM58.8971 32.6549Q58.1764 32.6549 57.6667 32.1363Q57.1657 31.609 57.1657 30.9234L57.1657 27.1793L49.7917 27.0738Q48.9919 27.0738 48.526 26.608Q48.0602 26.1334 48.0602 25.3775Q48.0602 24.9117 48.3503 24.4107L57.4557 9.43418Q57.9567 8.60801 58.8971 8.60801Q59.653 8.60801 60.154 9.10898Q60.6637 9.60996 60.6637 10.3307L60.6637 23.7955L61.0241 23.7955Q61.736 23.7955 62.2018 24.3053Q62.6764 24.8062 62.6764 25.527Q62.6764 26.2477 62.1315 26.7486Q61.5954 27.2496 60.8747 27.2496L60.6637 27.2496L60.6637 30.9234Q60.6637 31.609 60.1188 32.1363Q59.5827 32.6549 58.8971 32.6549ZM57.1657 16.527L52.8503 23.6197L57.1657 23.7252L57.1657 16.527ZM70.7362 32.6197Q70.0243 32.6197 69.5321 32.1539Q69.0487 31.6793 69.0487 30.9586Q69.0487 30.4225 69.3124 30.0094Q69.5848 29.5963 70.0243 29.4117Q71.8524 28.5504 73.329 27.2408Q74.8055 25.9225 75.7811 24.3316Q74.2694 24.8766 72.5731 24.8766Q70.5956 24.8766 68.996 24.0152Q67.3964 23.1451 66.4559 21.4752Q65.5243 19.7965 65.5243 17.4234Q65.5243 14.7603 66.5087 12.7652Q67.5018 10.7613 69.2245 9.68906Q70.9559 8.60801 73.1532 8.60801Q76.7479 8.60801 78.7958 10.9811Q80.8524 13.3541 80.8524 17.608Q80.8524 22.8199 78.3124 26.5465Q75.7811 30.273 71.6766 32.3648Q71.0966 32.6197 70.7362 32.6197ZM72.5731 21.4928Q74.1991 21.4928 75.4384 20.9039Q76.6776 20.3062 77.3983 19.5855Q77.5038 18.9 77.5038 17.608Q77.5038 14.8307 76.3524 13.4156Q75.201 11.9918 73.0038 11.9918Q71.2811 11.9918 70.0682 13.4332Q68.8641 14.8658 68.8641 17.4234Q68.8641 19.401 69.8749 20.4469Q70.8856 21.4928 72.5731 21.4928ZM100.436 32.6549Q99.1443 32.6549 98.7488 31.4244L96.156 23.9361L88.8083 25.5621L86.4705 31.4684Q86.2595 31.9693 85.8376 32.2945Q85.4246 32.6197 84.8181 32.6197Q84.0974 32.6197 83.5525 32.1187Q83.0163 31.609 83.0163 30.9234Q83.0163 30.4576 83.2712 29.8424L84.7038 26.2477Q84.4929 26.1686 84.3874 26.0982Q83.447 25.6324 83.447 24.5162Q83.447 23.8658 83.8249 23.4Q84.2029 22.9342 84.8181 22.7848L86.1453 22.5035L91.4802 8.96836Q91.6912 8.42344 92.157 8.14219Q92.6316 7.85215 93.1677 7.85215Q93.7478 7.85215 94.1785 8.14219Q94.6091 8.42344 94.8201 9.03867L101.992 29.8072Q102.027 29.8775 102.133 30.2203Q102.238 30.5631 102.238 30.9234Q102.238 31.609 101.737 32.1363Q101.236 32.6549 100.436 32.6549ZM94.9695 20.5963L93.0271 14.7955L90.3201 21.5982L94.9695 20.5963ZM114.481 32.6549Q113.76 32.6549 113.251 32.1363Q112.75 31.609 112.75 30.9234L112.75 27.1793L105.376 27.0738Q104.576 27.0738 104.11 26.608Q103.644 26.1334 103.644 25.3775Q103.644 24.9117 103.934 24.4107L113.04 9.43418Q113.541 8.60801 114.481 8.60801Q115.237 8.60801 115.738 9.10898Q116.248 9.60996 116.248 10.3307L116.248 23.7955L116.608 23.7955Q117.32 23.7955 117.786 24.3053Q118.26 24.8062 118.26 25.527Q118.26 26.2477 117.715 26.7486Q117.179 27.2496 116.459 27.2496L116.248 27.2496L116.248 30.9234Q116.248 31.609 115.703 32.1363Q115.167 32.6549 114.481 32.6549ZM112.75 16.527L108.434 23.6197L112.75 23.7252L112.75 16.527ZM131.365 32.6549Q130.644 32.6549 130.135 32.1363Q129.634 31.609 129.634 30.9234L129.634 27.1793L122.26 27.0738Q121.46 27.0738 120.994 26.608Q120.528 26.1334 120.528 25.3775Q120.528 24.9117 120.818 24.4107L129.924 9.43418Q130.425 8.60801 131.365 8.60801Q132.121 8.60801 132.622 9.10898Q133.132 9.60996 133.132 10.3307L133.132 23.7955L133.492 23.7955Q134.204 23.7955 134.67 24.3053Q135.144 24.8062 135.144 25.527Q135.144 26.2477 134.6 26.7486Q134.063 27.2496 133.343 27.2496L133.132 27.2496L133.132 30.9234Q133.132 31.609 132.587 32.1363Q132.051 32.6549 131.365 32.6549ZM129.634 16.527L125.318 23.6197L129.634 23.7252L129.634 16.527Z" transform="translate(31.352 0)" style="fill:#FFFFFF;" />
              </g>
            </g>
          </g>
        </g>
        <g id="Color" opacity="1" clip-path="url(#clip_path_6)" transform="translate(0 0)">
          <g>
            <use xlink:href="#path_4" style="fill:#121212;fill-rule:evenodd;mix-blend-mode:normal;" />
            <g>
              <g clip-path="url(#clip_path_8)" style="mix-blend-mode:normal;" transform="translate(0 111.8)">
                <path d="M6.54785 32.6197Q5.79199 32.6197 5.30859 32.1187Q4.8252 31.609 4.8252 30.9586Q4.8252 30.6686 5.00098 30.0621L6.23145 25.7379L3.52441 25.7379Q2.80371 25.7379 2.30273 25.2369Q1.80176 24.7359 1.80176 24.0152Q1.80176 23.3297 2.30273 22.8111Q2.80371 22.2838 3.52441 22.2838L7.2334 22.2838L8.31445 18.5748L5.00098 18.5748Q4.28027 18.5748 3.7793 18.0738Q3.27832 17.5641 3.27832 16.8521Q3.27832 16.1666 3.7793 15.648Q4.28027 15.1207 5.00098 15.1207L9.36035 15.1207L10.9072 9.68027Q11.0479 9.14414 11.5312 8.80136Q12.0234 8.45859 12.6035 8.45859Q13.3594 8.45859 13.8428 8.96836Q14.3262 9.46933 14.3262 10.1549Q14.3262 10.4361 14.1855 10.9459L12.9639 15.1207L16.2334 15.1207L17.8242 9.68027Q17.9648 9.14414 18.4482 8.80136Q18.9316 8.45859 19.4766 8.45859Q20.2324 8.45859 20.7158 8.98594Q21.208 9.50449 21.208 10.19Q21.208 10.5152 21.0938 10.9107L19.8369 15.1207L22.0693 15.1207Q22.7549 15.1207 23.2734 15.648Q23.792 16.1666 23.792 16.8521Q23.792 17.5641 23.2734 18.0738Q22.7549 18.5748 22.0693 18.5748L18.8262 18.5748L17.7803 22.2838L20.5928 22.2838Q21.2783 22.2838 21.7969 22.8111Q22.3242 23.3297 22.3242 24.0152Q22.3242 24.7359 21.8145 25.2369Q21.3135 25.7379 20.5928 25.7379L16.7783 25.7379L15.1172 31.3893Q14.9414 32.0045 14.4668 32.3121Q14.001 32.6197 13.4648 32.6197Q12.709 32.6197 12.2168 32.1012Q11.7334 31.5738 11.7334 30.8883Q11.7334 30.4928 11.8828 30.027L13.1396 25.7379L9.86133 25.7379L8.24414 31.3893Q8.06836 31.9693 7.57617 32.2945Q7.09277 32.6197 6.54785 32.6197ZM14.1504 22.2838L15.2314 18.5748L11.918 18.5748L10.8721 22.2838L14.1504 22.2838ZM29.4456 32.4Q28.6897 32.4 28.2064 31.899Q27.723 31.3893 27.723 30.6686Q27.723 29.9478 28.2064 29.4469Q28.6897 28.9459 29.4456 28.9459L31.5374 28.9459L31.7923 14.8658L30.597 16.1314Q30.096 16.6324 29.3401 16.6324Q28.6194 16.6324 28.1097 16.1314Q27.6087 15.6217 27.6087 14.901Q27.6087 14.2945 28.0833 13.7496L32.2933 9.17929Q32.5042 8.96836 32.8646 8.81015Q33.2249 8.64316 33.5149 8.64316Q34.306 8.64316 34.7894 9.16172Q35.2815 9.68027 35.2815 10.3658L35.0267 28.9459L36.5032 28.9459Q37.3294 28.9459 37.8128 29.4469Q38.305 29.9478 38.305 30.6686Q38.305 31.3893 37.7776 31.899Q37.2591 32.4 36.5735 32.4L29.4456 32.4ZM41.5458 30.7037Q41.5458 27.7945 42.4422 25.7994Q43.3475 23.7955 44.6747 22.5562Q46.0106 21.3082 47.953 20.0865Q49.6756 18.9352 50.5194 18.2936Q51.3719 17.6432 51.9256 16.8346Q52.4881 16.0172 52.4881 14.9801Q52.4881 13.7145 51.4774 12.9059Q50.4754 12.0973 48.9637 12.0973Q47.4872 12.0973 46.3534 12.8531Q45.2196 13.609 44.6395 14.2945Q44.2792 14.69 43.9715 14.8922Q43.6639 15.0855 43.1278 15.0855Q42.3719 15.0855 41.8797 14.5494Q41.3963 14.0045 41.3963 13.3189Q41.3963 12.8883 41.6336 12.4928Q41.871 12.0973 42.5477 11.4469Q43.743 10.2955 45.3602 9.46933Q46.9774 8.64316 48.9637 8.64316Q50.9764 8.64316 52.5585 9.48691Q54.1405 10.3307 55.037 11.7896Q55.9422 13.2486 55.9422 14.9801Q55.9422 16.8521 55.1161 18.276Q54.2899 19.691 53.121 20.6842Q51.952 21.6686 50.1151 22.8199Q47.953 24.2262 46.6874 25.5621Q45.4305 26.8893 45.1053 28.9811L54.5008 28.9811Q55.1864 28.9811 55.7049 29.4908Q56.2323 29.9918 56.2323 30.7037Q56.2323 31.3893 55.7049 31.899Q55.1864 32.4 54.5008 32.4L41.5458 32.4L41.5458 30.7037ZM61.5216 32.4Q60.7657 32.4 60.2823 31.899Q59.799 31.3893 59.799 30.6686Q59.799 29.9478 60.2823 29.4469Q60.7657 28.9459 61.5216 28.9459L63.6134 28.9459L63.8683 14.8658L62.673 16.1314Q62.172 16.6324 61.4161 16.6324Q60.6954 16.6324 60.1857 16.1314Q59.6847 15.6217 59.6847 14.901Q59.6847 14.2945 60.1593 13.7496L64.3693 9.17929Q64.5802 8.96836 64.9406 8.81015Q65.3009 8.64316 65.5909 8.64316Q66.382 8.64316 66.8654 9.16172Q67.3575 9.68027 67.3575 10.3658L67.1027 28.9459L68.5792 28.9459Q69.4054 28.9459 69.8888 29.4469Q70.381 29.9478 70.381 30.6686Q70.381 31.3893 69.8536 31.899Q69.3351 32.4 68.6495 32.4L61.5216 32.4ZM73.6218 30.7037Q73.6218 27.7945 74.5182 25.7994Q75.4235 23.7955 76.7507 22.5562Q78.0866 21.3082 80.029 20.0865Q81.7516 18.9352 82.5954 18.2936Q83.4479 17.6432 84.0016 16.8346Q84.5641 16.0172 84.5641 14.9801Q84.5641 13.7145 83.5534 12.9059Q82.5514 12.0973 81.0397 12.0973Q79.5632 12.0973 78.4294 12.8531Q77.2956 13.609 76.7155 14.2945Q76.3552 14.69 76.0475 14.8922Q75.7399 15.0855 75.2038 15.0855Q74.4479 15.0855 73.9557 14.5494Q73.4723 14.0045 73.4723 13.3189Q73.4723 12.8883 73.7096 12.4928Q73.947 12.0973 74.6237 11.4469Q75.819 10.2955 77.4362 9.46933Q79.0534 8.64316 81.0397 8.64316Q83.0524 8.64316 84.6345 9.48691Q86.2165 10.3307 87.113 11.7896Q88.0182 13.2486 88.0182 14.9801Q88.0182 16.8521 87.1921 18.276Q86.3659 19.691 85.197 20.6842Q84.028 21.6686 82.1911 22.8199Q80.029 24.2262 78.7634 25.5621Q77.5065 26.8893 77.1813 28.9811L86.5768 28.9811Q87.2624 28.9811 87.7809 29.4908Q88.3083 29.9918 88.3083 30.7037Q88.3083 31.3893 87.7809 31.899Q87.2624 32.4 86.5768 32.4L73.6218 32.4L73.6218 30.7037ZM93.5976 32.4Q92.8418 32.4 92.3584 31.899Q91.875 31.3893 91.875 30.6686Q91.875 29.9478 92.3584 29.4469Q92.8418 28.9459 93.5976 28.9459L95.6894 28.9459L95.9443 14.8658L94.749 16.1314Q94.248 16.6324 93.4921 16.6324Q92.7714 16.6324 92.2617 16.1314Q91.7607 15.6217 91.7607 14.901Q91.7607 14.2945 92.2353 13.7496L96.4453 9.17929Q96.6562 8.96836 97.0166 8.81015Q97.3769 8.64316 97.6669 8.64316Q98.458 8.64316 98.9414 9.16172Q99.4335 9.68027 99.4335 10.3658L99.1787 28.9459L100.655 28.9459Q101.481 28.9459 101.965 29.4469Q102.457 29.9478 102.457 30.6686Q102.457 31.3893 101.93 31.899Q101.411 32.4 100.726 32.4L93.5976 32.4ZM105.698 30.7037Q105.698 27.7945 106.594 25.7994Q107.5 23.7955 108.827 22.5562Q110.163 21.3082 112.105 20.0865Q113.828 18.9352 114.671 18.2936Q115.524 17.6432 116.078 16.8346Q116.64 16.0172 116.64 14.9801Q116.64 13.7145 115.629 12.9059Q114.627 12.0973 113.116 12.0973Q111.639 12.0973 110.505 12.8531Q109.372 13.609 108.792 14.2945Q108.431 14.69 108.124 14.8922Q107.816 15.0855 107.28 15.0855Q106.524 15.0855 106.032 14.5494Q105.548 14.0045 105.548 13.3189Q105.548 12.8883 105.786 12.4928Q106.023 12.0973 106.7 11.4469Q107.895 10.2955 109.512 9.46933Q111.129 8.64316 113.116 8.64316Q115.128 8.64316 116.71 9.48691Q118.292 10.3307 119.189 11.7896Q120.094 13.2486 120.094 14.9801Q120.094 16.8521 119.268 18.276Q118.442 19.691 117.273 20.6842Q116.104 21.6686 114.267 22.8199Q112.105 24.2262 110.839 25.5621Q109.583 26.8893 109.257 28.9811L118.653 28.9811Q119.338 28.9811 119.857 29.4908Q120.384 29.9918 120.384 30.7037Q120.384 31.3893 119.857 31.899Q119.338 32.4 118.653 32.4L105.698 32.4L105.698 30.7037Z" transform="translate(38.588 0)" style="fill:#FFFFFF;" />
              </g>
            </g>
          </g>
        </g>
        <g id="Color" opacity="1" clip-path="url(#clip_path_6)" transform="translate(795 0)">
          <g>
            <use xlink:href="#path_4" style="fill:#4A8B8B;fill-rule:evenodd;mix-blend-mode:normal;" />
            <g>
              <g clip-path="url(#clip_path_8)" style="mix-blend-mode:normal;" transform="translate(0 111.8)">
                <path d="M6.54785 32.6197Q5.79199 32.6197 5.30859 32.1187Q4.8252 31.609 4.8252 30.9586Q4.8252 30.6686 5.00098 30.0621L6.23145 25.7379L3.52441 25.7379Q2.80371 25.7379 2.30273 25.2369Q1.80176 24.7359 1.80176 24.0152Q1.80176 23.3297 2.30273 22.8111Q2.80371 22.2838 3.52441 22.2838L7.2334 22.2838L8.31445 18.5748L5.00098 18.5748Q4.28027 18.5748 3.7793 18.0738Q3.27832 17.5641 3.27832 16.8521Q3.27832 16.1666 3.7793 15.648Q4.28027 15.1207 5.00098 15.1207L9.36035 15.1207L10.9072 9.68027Q11.0479 9.14414 11.5312 8.80136Q12.0234 8.45859 12.6035 8.45859Q13.3594 8.45859 13.8428 8.96836Q14.3262 9.46933 14.3262 10.1549Q14.3262 10.4361 14.1855 10.9459L12.9639 15.1207L16.2334 15.1207L17.8242 9.68027Q17.9648 9.14414 18.4482 8.80136Q18.9316 8.45859 19.4766 8.45859Q20.2324 8.45859 20.7158 8.98594Q21.208 9.50449 21.208 10.19Q21.208 10.5152 21.0938 10.9107L19.8369 15.1207L22.0693 15.1207Q22.7549 15.1207 23.2734 15.648Q23.792 16.1666 23.792 16.8521Q23.792 17.5641 23.2734 18.0738Q22.7549 18.5748 22.0693 18.5748L18.8262 18.5748L17.7803 22.2838L20.5928 22.2838Q21.2783 22.2838 21.7969 22.8111Q22.3242 23.3297 22.3242 24.0152Q22.3242 24.7359 21.8145 25.2369Q21.3135 25.7379 20.5928 25.7379L16.7783 25.7379L15.1172 31.3893Q14.9414 32.0045 14.4668 32.3121Q14.001 32.6197 13.4648 32.6197Q12.709 32.6197 12.2168 32.1012Q11.7334 31.5738 11.7334 30.8883Q11.7334 30.4928 11.8828 30.027L13.1396 25.7379L9.86133 25.7379L8.24414 31.3893Q8.06836 31.9693 7.57617 32.2945Q7.09277 32.6197 6.54785 32.6197ZM14.1504 22.2838L15.2314 18.5748L11.918 18.5748L10.8721 22.2838L14.1504 22.2838ZM37.5491 32.6549Q36.8284 32.6549 36.3187 32.1363Q35.8177 31.609 35.8177 30.9234L35.8177 27.1793L28.4437 27.0738Q27.6439 27.0738 27.178 26.608Q26.7122 26.1334 26.7122 25.3775Q26.7122 24.9117 27.0022 24.4107L36.1077 9.43418Q36.6087 8.60801 37.5491 8.60801Q38.305 8.60801 38.806 9.10898Q39.3157 9.60996 39.3157 10.3307L39.3157 23.7955L39.6761 23.7955Q40.388 23.7955 40.8538 24.3053Q41.3284 24.8062 41.3284 25.527Q41.3284 26.2477 40.7835 26.7486Q40.2474 27.2496 39.5267 27.2496L39.3157 27.2496L39.3157 30.9234Q39.3157 31.609 38.7708 32.1363Q38.2347 32.6549 37.5491 32.6549ZM35.8177 16.527L31.5022 23.6197L35.8177 23.7252L35.8177 16.527ZM60.2603 32.6549Q58.9683 32.6549 58.5728 31.4244L55.98 23.9361L48.6323 25.5621L46.2944 31.4684Q46.0835 31.9693 45.6616 32.2945Q45.2486 32.6197 44.6421 32.6197Q43.9214 32.6197 43.3765 32.1187Q42.8403 31.609 42.8403 30.9234Q42.8403 30.4576 43.0952 29.8424L44.5278 26.2477Q44.3169 26.1686 44.2114 26.0982Q43.271 25.6324 43.271 24.5162Q43.271 23.8658 43.6489 23.4Q44.0269 22.9342 44.6421 22.7848L45.9693 22.5035L51.3042 8.96836Q51.5152 8.42344 51.981 8.14219Q52.4556 7.85215 52.9917 7.85215Q53.5718 7.85215 54.0025 8.14219Q54.4331 8.42344 54.6441 9.03867L61.8159 29.8072Q61.8511 29.8775 61.9566 30.2203Q62.062 30.5631 62.062 30.9234Q62.062 31.609 61.5611 32.1363Q61.0601 32.6549 60.2603 32.6549ZM54.7935 20.5963L52.8511 14.7955L50.1441 21.5982L54.7935 20.5963ZM71.4575 32.6197Q69.3041 32.6197 67.5727 31.776Q65.8413 30.9234 64.8657 29.4117Q63.8989 27.9 63.8989 26.0279Q63.8989 22.2135 67.5375 19.8756Q66.3159 19.0758 65.6479 17.9684Q64.9799 16.8521 64.9799 15.2262Q64.9799 13.2486 65.9116 11.7545Q66.852 10.2603 68.3989 9.45176Q69.9457 8.64316 71.8178 8.64316Q73.725 8.64316 75.2368 9.4166Q76.7485 10.19 77.5922 11.5611Q78.4448 12.9234 78.4448 14.69Q78.4448 17.7486 75.6762 19.6559Q77.2582 20.7721 78.1196 22.2662Q78.9809 23.7603 78.9809 25.527Q78.9809 27.5045 78.0053 29.1305Q77.0385 30.7477 75.3071 31.6881Q73.5844 32.6197 71.4575 32.6197ZM71.6069 17.9244Q73.5493 17.1334 74.2875 16.3248Q75.0258 15.5162 75.0258 14.5055Q75.0258 13.4244 74.103 12.7828Q73.1889 12.1324 71.8178 12.1324Q70.3061 12.1324 69.3305 12.9059Q68.3637 13.6793 68.3637 15.0855Q68.3637 16.0963 69.1196 16.7643Q69.8754 17.4234 71.6069 17.9244ZM71.4575 29.1568Q73.0834 29.1568 74.3403 28.2252Q75.5971 27.2848 75.5971 25.5973Q75.5971 24.1559 74.5161 23.1363Q73.4438 22.108 71.8178 21.5631Q70.3413 22.2135 69.4623 22.6969Q68.5834 23.1803 67.9506 24.0152Q67.3178 24.8414 67.3178 26.0279Q67.3178 27.399 68.5043 28.2779Q69.6997 29.1568 71.4575 29.1568ZM85.574 32.69Q84.4227 32.69 83.9481 32.2242Q83.4822 31.7496 83.4822 30.7037L83.4822 10.0406Q83.4822 9.31992 84.0184 8.80136Q84.5633 8.28281 85.2488 8.28281L91.366 8.28281Q93.9588 8.28281 95.8133 9.16172Q97.6678 10.0406 98.5994 11.4996Q99.5399 12.9586 99.5399 14.6549Q99.5399 17.3531 97.8875 19.1549Q99.7156 20.0162 100.612 21.44Q101.517 22.8639 101.517 24.9469Q101.517 28.691 97.5184 30.6949Q93.5281 32.69 85.574 32.69ZM92.5877 18.0387Q94.0643 18.0387 95.0223 17.0103Q95.9803 15.982 95.9803 14.69Q95.9803 13.4244 94.7674 12.5807Q93.5633 11.7369 91.366 11.7369L87.0858 11.7369L87.0858 18.0387L92.5877 18.0387ZM87.0858 29.2711Q91.8758 29.192 94.9168 28.1197Q97.9578 27.0387 97.9578 24.9469Q97.9578 23.4 96.5516 22.4508Q95.1453 21.4928 92.5877 21.4928L87.0858 21.4928L87.0858 29.2711ZM111.885 32.6197Q109.732 32.6197 108.001 31.776Q106.269 30.9234 105.294 29.4117Q104.327 27.9 104.327 26.0279Q104.327 22.2135 107.966 19.8756Q106.744 19.0758 106.076 17.9684Q105.408 16.8521 105.408 15.2262Q105.408 13.2486 106.34 11.7545Q107.28 10.2603 108.827 9.45176Q110.374 8.64316 112.246 8.64316Q114.153 8.64316 115.665 9.4166Q117.176 10.19 118.02 11.5611Q118.873 12.9234 118.873 14.69Q118.873 17.7486 116.104 19.6559Q117.686 20.7721 118.548 22.2662Q119.409 23.7603 119.409 25.527Q119.409 27.5045 118.433 29.1305Q117.467 30.7477 115.735 31.6881Q114.012 32.6197 111.885 32.6197ZM112.035 17.9244Q113.977 17.1334 114.716 16.3248Q115.454 15.5162 115.454 14.5055Q115.454 13.4244 114.531 12.7828Q113.617 12.1324 112.246 12.1324Q110.734 12.1324 109.759 12.9059Q108.792 13.6793 108.792 15.0855Q108.792 16.0963 109.548 16.7643Q110.303 17.4234 112.035 17.9244ZM111.885 29.1568Q113.511 29.1568 114.768 28.2252Q116.025 27.2848 116.025 25.5973Q116.025 24.1559 114.944 23.1363Q113.872 22.108 112.246 21.5631Q110.769 22.2135 109.89 22.6969Q109.011 23.1803 108.379 24.0152Q107.746 24.8414 107.746 26.0279Q107.746 27.399 108.932 28.2779Q110.128 29.1568 111.885 29.1568ZM126.002 32.69Q124.851 32.69 124.376 32.2242Q123.91 31.7496 123.91 30.7037L123.91 10.0406Q123.91 9.31992 124.446 8.80136Q124.991 8.28281 125.677 8.28281L131.794 8.28281Q134.387 8.28281 136.241 9.16172Q138.096 10.0406 139.027 11.4996Q139.968 12.9586 139.968 14.6549Q139.968 17.3531 138.316 19.1549Q140.144 20.0162 141.04 21.44Q141.945 22.8639 141.945 24.9469Q141.945 28.691 137.946 30.6949Q133.956 32.69 126.002 32.69ZM133.016 18.0387Q134.492 18.0387 135.45 17.0103Q136.408 15.982 136.408 14.69Q136.408 13.4244 135.195 12.5807Q133.991 11.7369 131.794 11.7369L127.514 11.7369L127.514 18.0387L133.016 18.0387ZM127.514 29.2711Q132.304 29.192 135.345 28.1197Q138.386 27.0387 138.386 24.9469Q138.386 23.4 136.98 22.4508Q135.573 21.4928 133.016 21.4928L127.514 21.4928L127.514 29.2711Z" transform="translate(27.896 0)" style="fill:#FFFFFF;" />
              </g>
            </g>
          </g>
        </g>
        <g id="Color" opacity="1" clip-path="url(#clip_path_6)" transform="translate(994 0)">
          <g>
            <use xlink:href="#path_4" style="fill:#A7A7A7;fill-rule:evenodd;mix-blend-mode:normal;" />
            <g>
              <g clip-path="url(#clip_path_8)" style="mix-blend-mode:normal;" transform="translate(0 111.8)">
                <path d="M6.54785 32.6197Q5.79199 32.6197 5.30859 32.1187Q4.8252 31.609 4.8252 30.9586Q4.8252 30.6686 5.00098 30.0621L6.23145 25.7379L3.52441 25.7379Q2.80371 25.7379 2.30273 25.2369Q1.80176 24.7359 1.80176 24.0152Q1.80176 23.3297 2.30273 22.8111Q2.80371 22.2838 3.52441 22.2838L7.2334 22.2838L8.31445 18.5748L5.00098 18.5748Q4.28027 18.5748 3.7793 18.0738Q3.27832 17.5641 3.27832 16.8521Q3.27832 16.1666 3.7793 15.648Q4.28027 15.1207 5.00098 15.1207L9.36035 15.1207L10.9072 9.68027Q11.0479 9.14414 11.5312 8.80136Q12.0234 8.45859 12.6035 8.45859Q13.3594 8.45859 13.8428 8.96836Q14.3262 9.46933 14.3262 10.1549Q14.3262 10.4361 14.1855 10.9459L12.9639 15.1207L16.2334 15.1207L17.8242 9.68027Q17.9648 9.14414 18.4482 8.80136Q18.9316 8.45859 19.4766 8.45859Q20.2324 8.45859 20.7158 8.98594Q21.208 9.50449 21.208 10.19Q21.208 10.5152 21.0938 10.9107L19.8369 15.1207L22.0693 15.1207Q22.7549 15.1207 23.2734 15.648Q23.792 16.1666 23.792 16.8521Q23.792 17.5641 23.2734 18.0738Q22.7549 18.5748 22.0693 18.5748L18.8262 18.5748L17.7803 22.2838L20.5928 22.2838Q21.2783 22.2838 21.7969 22.8111Q22.3242 23.3297 22.3242 24.0152Q22.3242 24.7359 21.8145 25.2369Q21.3135 25.7379 20.5928 25.7379L16.7783 25.7379L15.1172 31.3893Q14.9414 32.0045 14.4668 32.3121Q14.001 32.6197 13.4648 32.6197Q12.709 32.6197 12.2168 32.1012Q11.7334 31.5738 11.7334 30.8883Q11.7334 30.4928 11.8828 30.027L13.1396 25.7379L9.86133 25.7379L8.24414 31.3893Q8.06836 31.9693 7.57617 32.2945Q7.09277 32.6197 6.54785 32.6197ZM14.1504 22.2838L15.2314 18.5748L11.918 18.5748L10.8721 22.2838L14.1504 22.2838ZM43.3763 32.6549Q42.0843 32.6549 41.6888 31.4244L39.096 23.9361L31.7483 25.5621L29.4105 31.4684Q29.1995 31.9693 28.7776 32.2945Q28.3646 32.6197 27.7581 32.6197Q27.0374 32.6197 26.4925 32.1187Q25.9564 31.609 25.9564 30.9234Q25.9564 30.4576 26.2112 29.8424L27.6439 26.2477Q27.4329 26.1686 27.3274 26.0982Q26.387 25.6324 26.387 24.5162Q26.387 23.8658 26.7649 23.4Q27.1429 22.9342 27.7581 22.7848L29.0853 22.5035L34.4202 8.96836Q34.6312 8.42344 35.097 8.14219Q35.5716 7.85215 36.1077 7.85215Q36.6878 7.85215 37.1185 8.14219Q37.5491 8.42344 37.7601 9.03867L44.9319 29.8072Q44.9671 29.8775 45.0726 30.2203Q45.178 30.5631 45.178 30.9234Q45.178 31.609 44.6771 32.1363Q44.1761 32.6549 43.3763 32.6549ZM37.9095 20.5963L35.9671 14.7955L33.2601 21.5982L37.9095 20.5963ZM49.467 32.5758Q48.7463 32.5758 48.2366 32.0572Q47.7356 31.5387 47.7356 30.8531Q47.7356 30.5279 47.9553 30.0973L56.8059 12.3521L47.8059 12.3521Q47.0852 12.3521 46.5842 11.8512Q46.0832 11.3414 46.0832 10.6207Q46.0832 9.93515 46.5842 9.4166Q47.0852 8.88926 47.8059 8.88926L59.5832 8.88926Q60.3039 8.88926 60.8049 9.4166Q61.3059 9.93515 61.3059 10.6559Q61.3059 11.0514 60.8752 11.9127L51.0139 31.6441Q50.759 32.1451 50.3284 32.3648Q49.8977 32.5758 49.467 32.5758ZM79.4483 32.6549Q78.1563 32.6549 77.7608 31.4244L75.168 23.9361L67.8203 25.5621L65.4825 31.4684Q65.2715 31.9693 64.8496 32.2945Q64.4366 32.6197 63.8301 32.6197Q63.1094 32.6197 62.5645 32.1187Q62.0284 31.609 62.0284 30.9234Q62.0284 30.4576 62.2832 29.8424L63.7159 26.2477Q63.5049 26.1686 63.3994 26.0982Q62.459 25.6324 62.459 24.5162Q62.459 23.8658 62.8369 23.4Q63.2149 22.9342 63.8301 22.7848L65.1573 22.5035L70.4922 8.96836Q70.7032 8.42344 71.169 8.14219Q71.6436 7.85215 72.1797 7.85215Q72.7598 7.85215 73.1905 8.14219Q73.6211 8.42344 73.8321 9.03867L81.0039 29.8072Q81.0391 29.8775 81.1446 30.2203Q81.25 30.5631 81.25 30.9234Q81.25 31.609 80.7491 32.1363Q80.2481 32.6549 79.4483 32.6549ZM73.9815 20.5963L72.0391 14.7955L69.3321 21.5982L73.9815 20.5963ZM85.539 32.5758Q84.8183 32.5758 84.3086 32.0572Q83.8076 31.5387 83.8076 30.8531Q83.8076 30.5279 84.0273 30.0973L92.8779 12.3521L83.8779 12.3521Q83.1572 12.3521 82.6562 11.8512Q82.1552 11.3414 82.1552 10.6207Q82.1552 9.93515 82.6562 9.4166Q83.1572 8.88926 83.8779 8.88926L95.6552 8.88926Q96.3759 8.88926 96.8769 9.4166Q97.3779 9.93515 97.3779 10.6559Q97.3779 11.0514 96.9472 11.9127L87.0859 31.6441Q86.831 32.1451 86.4004 32.3648Q85.9697 32.5758 85.539 32.5758ZM115.52 32.6549Q114.228 32.6549 113.833 31.4244L111.24 23.9361L103.892 25.5621L101.554 31.4684Q101.344 31.9693 100.922 32.2945Q100.509 32.6197 99.9021 32.6197Q99.1814 32.6197 98.6365 32.1187Q98.1003 31.609 98.1003 30.9234Q98.1003 30.4576 98.3552 29.8424L99.7878 26.2477Q99.5769 26.1686 99.4714 26.0982Q98.531 25.6324 98.531 24.5162Q98.531 23.8658 98.9089 23.4Q99.2869 22.9342 99.9021 22.7848L101.229 22.5035L106.564 8.96836Q106.775 8.42344 107.241 8.14219Q107.716 7.85215 108.252 7.85215Q108.832 7.85215 109.262 8.14219Q109.693 8.42344 109.904 9.03867L117.076 29.8072Q117.111 29.8775 117.217 30.2203Q117.322 30.5631 117.322 30.9234Q117.322 31.609 116.821 32.1363Q116.32 32.6549 115.52 32.6549ZM110.053 20.5963L108.111 14.7955L105.404 21.5982L110.053 20.5963ZM121.611 32.5758Q120.89 32.5758 120.381 32.0572Q119.88 31.5387 119.88 30.8531Q119.88 30.5279 120.099 30.0973L128.95 12.3521L119.95 12.3521Q119.229 12.3521 118.728 11.8512Q118.227 11.3414 118.227 10.6207Q118.227 9.93515 118.728 9.4166Q119.229 8.88926 119.95 8.88926L131.727 8.88926Q132.448 8.88926 132.949 9.4166Q133.45 9.93515 133.45 10.6559Q133.45 11.0514 133.019 11.9127L123.158 31.6441Q122.903 32.1451 122.472 32.3648Q122.042 32.5758 121.611 32.5758Z" transform="translate(32.594 0)" style="fill:#FFFFFF;" />
              </g>
            </g>
          </g>
        </g>
        <g id="Color" opacity="1" clip-path="url(#clip_path_6)" transform="translate(1192.5 0)">
          <g>
            <use xlink:href="#path_4" style="fill:#B4B4B4;fill-rule:evenodd;mix-blend-mode:normal;" />
            <g>
              <g clip-path="url(#clip_path_8)" style="mix-blend-mode:normal;" transform="translate(-0.5 111.8)">
                <path d="M6.54785 32.6197Q5.79199 32.6197 5.30859 32.1187Q4.8252 31.609 4.8252 30.9586Q4.8252 30.6686 5.00098 30.0621L6.23145 25.7379L3.52441 25.7379Q2.80371 25.7379 2.30273 25.2369Q1.80176 24.7359 1.80176 24.0152Q1.80176 23.3297 2.30273 22.8111Q2.80371 22.2838 3.52441 22.2838L7.2334 22.2838L8.31445 18.5748L5.00098 18.5748Q4.28027 18.5748 3.7793 18.0738Q3.27832 17.5641 3.27832 16.8521Q3.27832 16.1666 3.7793 15.648Q4.28027 15.1207 5.00098 15.1207L9.36035 15.1207L10.9072 9.68027Q11.0479 9.14414 11.5312 8.80136Q12.0234 8.45859 12.6035 8.45859Q13.3594 8.45859 13.8428 8.96836Q14.3262 9.46933 14.3262 10.1549Q14.3262 10.4361 14.1855 10.9459L12.9639 15.1207L16.2334 15.1207L17.8242 9.68027Q17.9648 9.14414 18.4482 8.80136Q18.9316 8.45859 19.4766 8.45859Q20.2324 8.45859 20.7158 8.98594Q21.208 9.50449 21.208 10.19Q21.208 10.5152 21.0938 10.9107L19.8369 15.1207L22.0693 15.1207Q22.7549 15.1207 23.2734 15.648Q23.792 16.1666 23.792 16.8521Q23.792 17.5641 23.2734 18.0738Q22.7549 18.5748 22.0693 18.5748L18.8262 18.5748L17.7803 22.2838L20.5928 22.2838Q21.2783 22.2838 21.7969 22.8111Q22.3242 23.3297 22.3242 24.0152Q22.3242 24.7359 21.8145 25.2369Q21.3135 25.7379 20.5928 25.7379L16.7783 25.7379L15.1172 31.3893Q14.9414 32.0045 14.4668 32.3121Q14.001 32.6197 13.4648 32.6197Q12.709 32.6197 12.2168 32.1012Q11.7334 31.5738 11.7334 30.8883Q11.7334 30.4928 11.8828 30.027L13.1396 25.7379L9.86133 25.7379L8.24414 31.3893Q8.06836 31.9693 7.57617 32.2945Q7.09277 32.6197 6.54785 32.6197ZM14.1504 22.2838L15.2314 18.5748L11.918 18.5748L10.8721 22.2838L14.1504 22.2838ZM30.386 32.69Q29.2347 32.69 28.7601 32.2242Q28.2942 31.7496 28.2942 30.7037L28.2942 10.0406Q28.2942 9.31992 28.8304 8.80136Q29.3753 8.28281 30.0608 8.28281L36.178 8.28281Q38.7708 8.28281 40.6253 9.16172Q42.4798 10.0406 43.4114 11.4996Q44.3519 12.9586 44.3519 14.6549Q44.3519 17.3531 42.6995 19.1549Q44.5276 20.0162 45.4241 21.44Q46.3294 22.8639 46.3294 24.9469Q46.3294 28.691 42.3304 30.6949Q38.3401 32.69 30.386 32.69ZM37.3997 18.0387Q38.8763 18.0387 39.8343 17.0103Q40.7923 15.982 40.7923 14.69Q40.7923 13.4244 39.5794 12.5807Q38.3753 11.7369 36.178 11.7369L31.8978 11.7369L31.8978 18.0387L37.3997 18.0387ZM31.8978 29.2711Q36.6878 29.192 39.7288 28.1197Q42.7698 27.0387 42.7698 24.9469Q42.7698 23.4 41.3636 22.4508Q39.9573 21.4928 37.3997 21.4928L31.8978 21.4928L31.8978 29.2711ZM59.5451 32.6549Q58.8244 32.6549 58.3147 32.1363Q57.8137 31.609 57.8137 30.9234L57.8137 27.1793L50.4397 27.0738Q49.6398 27.0738 49.174 26.608Q48.7082 26.1334 48.7082 25.3775Q48.7082 24.9117 48.9982 24.4107L58.1037 9.43418Q58.6047 8.60801 59.5451 8.60801Q60.301 8.60801 60.802 9.10898Q61.3117 9.60996 61.3117 10.3307L61.3117 23.7955L61.6721 23.7955Q62.384 23.7955 62.8498 24.3053Q63.3244 24.8062 63.3244 25.527Q63.3244 26.2477 62.7795 26.7486Q62.2434 27.2496 61.5227 27.2496L61.3117 27.2496L61.3117 30.9234Q61.3117 31.609 60.7668 32.1363Q60.2307 32.6549 59.5451 32.6549ZM57.8137 16.527L53.4982 23.6197L57.8137 23.7252L57.8137 16.527ZM69.266 32.69Q68.1147 32.69 67.6401 32.2242Q67.1742 31.7496 67.1742 30.7037L67.1742 10.0406Q67.1742 9.31992 67.7104 8.80136Q68.2553 8.28281 68.9408 8.28281L75.058 8.28281Q77.6508 8.28281 79.5053 9.16172Q81.3598 10.0406 82.2914 11.4996Q83.2319 12.9586 83.2319 14.6549Q83.2319 17.3531 81.5795 19.1549Q83.4076 20.0162 84.3041 21.44Q85.2094 22.8639 85.2094 24.9469Q85.2094 28.691 81.2104 30.6949Q77.2201 32.69 69.266 32.69ZM76.2797 18.0387Q77.7563 18.0387 78.7143 17.0103Q79.6723 15.982 79.6723 14.69Q79.6723 13.4244 78.4594 12.5807Q77.2553 11.7369 75.058 11.7369L70.7778 11.7369L70.7778 18.0387L76.2797 18.0387ZM70.7778 29.2711Q75.5678 29.192 78.6088 28.1197Q81.6498 27.0387 81.6498 24.9469Q81.6498 23.4 80.2436 22.4508Q78.8373 21.4928 76.2797 21.4928L70.7778 21.4928L70.7778 29.2711ZM98.4251 32.6549Q97.7044 32.6549 97.1947 32.1363Q96.6937 31.609 96.6937 30.9234L96.6937 27.1793L89.3197 27.0738Q88.5199 27.0738 88.054 26.608Q87.5882 26.1334 87.5882 25.3775Q87.5882 24.9117 87.8783 24.4107L96.9837 9.43418Q97.4847 8.60801 98.4251 8.60801Q99.181 8.60801 99.682 9.10898Q100.192 9.60996 100.192 10.3307L100.192 23.7955L100.552 23.7955Q101.264 23.7955 101.73 24.3053Q102.204 24.8062 102.204 25.527Q102.204 26.2477 101.66 26.7486Q101.123 27.2496 100.403 27.2496L100.192 27.2496L100.192 30.9234Q100.192 31.609 99.6468 32.1363Q99.1107 32.6549 98.4251 32.6549ZM96.6937 16.527L92.3783 23.6197L96.6937 23.7252L96.6937 16.527ZM108.146 32.69Q106.995 32.69 106.52 32.2242Q106.054 31.7496 106.054 30.7037L106.054 10.0406Q106.054 9.31992 106.59 8.80136Q107.135 8.28281 107.821 8.28281L113.938 8.28281Q116.531 8.28281 118.385 9.16172Q120.24 10.0406 121.171 11.4996Q122.112 12.9586 122.112 14.6549Q122.112 17.3531 120.46 19.1549Q122.288 20.0162 123.184 21.44Q124.089 22.8639 124.089 24.9469Q124.089 28.691 120.09 30.6949Q116.1 32.69 108.146 32.69ZM115.16 18.0387Q116.636 18.0387 117.594 17.0103Q118.552 15.982 118.552 14.69Q118.552 13.4244 117.339 12.5807Q116.135 11.7369 113.938 11.7369L109.658 11.7369L109.658 18.0387L115.16 18.0387ZM109.658 29.2711Q114.448 29.192 117.489 28.1197Q120.53 27.0387 120.53 24.9469Q120.53 23.4 119.124 22.4508Q117.717 21.4928 115.16 21.4928L109.658 21.4928L109.658 29.2711ZM137.305 32.6549Q136.584 32.6549 136.075 32.1363Q135.574 31.609 135.574 30.9234L135.574 27.1793L128.2 27.0738Q127.4 27.0738 126.934 26.608Q126.468 26.1334 126.468 25.3775Q126.468 24.9117 126.758 24.4107L135.864 9.43418Q136.365 8.60801 137.305 8.60801Q138.061 8.60801 138.562 9.10898Q139.072 9.60996 139.072 10.3307L139.072 23.7955L139.432 23.7955Q140.144 23.7955 140.61 24.3053Q141.084 24.8062 141.084 25.527Q141.084 26.2477 140.54 26.7486Q140.003 27.2496 139.283 27.2496L139.072 27.2496L139.072 30.9234Q139.072 31.609 138.527 32.1363Q137.991 32.6549 137.305 32.6549ZM135.574 16.527L131.258 23.6197L135.574 23.7252L135.574 16.527Z" transform="translate(28.382 0)" style="fill:#FFFFFF;" />
              </g>
            </g>
          </g>
        </g>
        <g id="Color" opacity="1" clip-path="url(#clip_path_6)" transform="translate(1391.25 0)">
          <g>
            <use xlink:href="#path_4" style="fill:#F5F5F5;fill-rule:evenodd;mix-blend-mode:normal;" />
            <g>
              <g clip-path="url(#clip_path_12)" style="mix-blend-mode:normal;" transform="translate(-0.25 111.8)">
                <path d="M6.54785 32.6197Q5.79199 32.6197 5.30859 32.1187Q4.8252 31.609 4.8252 30.9586Q4.8252 30.6686 5.00098 30.0621L6.23145 25.7379L3.52441 25.7379Q2.80371 25.7379 2.30273 25.2369Q1.80176 24.7359 1.80176 24.0152Q1.80176 23.3297 2.30273 22.8111Q2.80371 22.2838 3.52441 22.2838L7.2334 22.2838L8.31445 18.5748L5.00098 18.5748Q4.28027 18.5748 3.7793 18.0738Q3.27832 17.5641 3.27832 16.8521Q3.27832 16.1666 3.7793 15.648Q4.28027 15.1207 5.00098 15.1207L9.36035 15.1207L10.9072 9.68027Q11.0479 9.14414 11.5312 8.80136Q12.0234 8.45859 12.6035 8.45859Q13.3594 8.45859 13.8428 8.96836Q14.3262 9.46933 14.3262 10.1549Q14.3262 10.4361 14.1855 10.9459L12.9639 15.1207L16.2334 15.1207L17.8242 9.68027Q17.9648 9.14414 18.4482 8.80136Q18.9316 8.45859 19.4766 8.45859Q20.2324 8.45859 20.7158 8.98594Q21.208 9.50449 21.208 10.19Q21.208 10.5152 21.0938 10.9107L19.8369 15.1207L22.0693 15.1207Q22.7549 15.1207 23.2734 15.648Q23.792 16.1666 23.792 16.8521Q23.792 17.5641 23.2734 18.0738Q22.7549 18.5748 22.0693 18.5748L18.8262 18.5748L17.7803 22.2838L20.5928 22.2838Q21.2783 22.2838 21.7969 22.8111Q22.3242 23.3297 22.3242 24.0152Q22.3242 24.7359 21.8145 25.2369Q21.3135 25.7379 20.5928 25.7379L16.7783 25.7379L15.1172 31.3893Q14.9414 32.0045 14.4668 32.3121Q14.001 32.6197 13.4648 32.6197Q12.709 32.6197 12.2168 32.1012Q11.7334 31.5738 11.7334 30.8883Q11.7334 30.4928 11.8828 30.027L13.1396 25.7379L9.86133 25.7379L8.24414 31.3893Q8.06836 31.9693 7.57617 32.2945Q7.09277 32.6197 6.54785 32.6197ZM14.1504 22.2838L15.2314 18.5748L11.918 18.5748L10.8721 22.2838L14.1504 22.2838ZM30.096 32.6549Q29.3401 32.6549 28.8128 32.1363Q28.2942 31.609 28.2942 30.8531L28.2942 10.0758Q28.2942 9.31992 28.8128 8.80136Q29.3401 8.28281 30.096 8.28281L44.4573 8.28281Q45.2132 8.28281 45.7142 8.80136Q46.2239 9.31992 46.2239 10.0758Q46.2239 10.7965 45.7142 11.3414Q45.2132 11.8775 44.4573 11.8775L31.8978 11.8775L31.8978 18.0738L41.469 18.0738Q42.2249 18.0738 42.7259 18.6187Q43.2356 19.1549 43.2356 19.9107Q43.2356 20.6314 42.7259 21.15Q42.2249 21.6686 41.469 21.6686L31.8978 21.6686L31.8978 30.8531Q31.8978 31.609 31.3704 32.1363Q30.8519 32.6549 30.096 32.6549ZM55.5472 32.6197Q53.6751 32.6197 52.1458 31.899Q50.6165 31.1783 49.6585 30.2467Q48.7093 29.3062 48.3841 28.5855Q48.2083 28.1549 48.2083 27.7594Q48.2083 27.0738 48.7268 26.5553Q49.2454 26.0279 49.9309 26.0279Q50.511 26.0279 50.7923 26.2301Q51.0823 26.4234 51.4075 26.8893Q52.9544 29.1217 55.5472 29.1217Q56.804 29.1217 57.9202 28.3482Q59.0364 27.5748 59.7044 26.2652Q60.3723 24.9469 60.3723 23.4Q60.3723 21.4225 59.3089 19.9811Q58.2454 18.5396 56.2327 18.5396Q54.0003 18.5396 52.1985 20.3414Q51.8733 20.6666 51.5306 20.8336Q51.1878 20.9918 50.6868 20.9918Q49.9309 20.9918 49.4651 20.4557Q48.9993 19.9107 49.0696 19.0758L49.9309 10.401Q49.9661 9.75937 50.4847 9.31113Q51.012 8.8541 51.6624 8.8541L61.1985 8.8541Q61.8841 8.8541 62.4026 9.38144Q62.93 9.9 62.93 10.5855Q62.93 11.3414 62.4026 11.8512Q61.8841 12.3521 61.1985 12.3521L53.2444 12.3521L52.8841 15.7359Q54.4309 15.0855 56.2327 15.0855Q58.3948 15.0855 60.1175 16.1314Q61.8489 17.1686 62.8333 19.0582Q63.8265 20.9478 63.8265 23.4Q63.8265 25.8873 62.6751 28.0143Q61.5237 30.1324 59.5989 31.3805Q57.6741 32.6197 55.5472 32.6197ZM70.128 32.6549Q69.3721 32.6549 68.8448 32.1363Q68.3262 31.609 68.3262 30.8531L68.3262 10.0758Q68.3262 9.31992 68.8448 8.80136Q69.3721 8.28281 70.128 8.28281L84.4893 8.28281Q85.2452 8.28281 85.7462 8.80136Q86.2559 9.31992 86.2559 10.0758Q86.2559 10.7965 85.7462 11.3414Q85.2452 11.8775 84.4893 11.8775L71.9298 11.8775L71.9298 18.0738L81.501 18.0738Q82.2569 18.0738 82.7579 18.6187Q83.2676 19.1549 83.2676 19.9107Q83.2676 20.6314 82.7579 21.15Q82.2569 21.6686 81.501 21.6686L71.9298 21.6686L71.9298 30.8531Q71.9298 31.609 71.4024 32.1363Q70.8839 32.6549 70.128 32.6549ZM95.5792 32.6197Q93.7071 32.6197 92.1778 31.899Q90.6485 31.1783 89.6905 30.2467Q88.7413 29.3062 88.4161 28.5855Q88.2403 28.1549 88.2403 27.7594Q88.2403 27.0738 88.7588 26.5553Q89.2774 26.0279 89.9629 26.0279Q90.543 26.0279 90.8243 26.2301Q91.1143 26.4234 91.4395 26.8893Q92.9864 29.1217 95.5792 29.1217Q96.836 29.1217 97.9522 28.3482Q99.0684 27.5748 99.7364 26.2652Q100.404 24.9469 100.404 23.4Q100.404 21.4225 99.3409 19.9811Q98.2774 18.5396 96.2647 18.5396Q94.0323 18.5396 92.2305 20.3414Q91.9053 20.6666 91.5626 20.8336Q91.2198 20.9918 90.7188 20.9918Q89.9629 20.9918 89.4971 20.4557Q89.0313 19.9107 89.1016 19.0758L89.9629 10.401Q89.9981 9.75937 90.5167 9.31113Q91.044 8.8541 91.6944 8.8541L101.231 8.8541Q101.916 8.8541 102.435 9.38144Q102.962 9.9 102.962 10.5855Q102.962 11.3414 102.435 11.8512Q101.916 12.3521 101.231 12.3521L93.2764 12.3521L92.9161 15.7359Q94.4629 15.0855 96.2647 15.0855Q98.4268 15.0855 100.149 16.1314Q101.881 17.1686 102.865 19.0582Q103.858 20.9478 103.858 23.4Q103.858 25.8873 102.707 28.0143Q101.556 30.1324 99.6309 31.3805Q97.7061 32.6197 95.5792 32.6197ZM110.16 32.6549Q109.404 32.6549 108.877 32.1363Q108.358 31.609 108.358 30.8531L108.358 10.0758Q108.358 9.31992 108.877 8.80136Q109.404 8.28281 110.16 8.28281L124.521 8.28281Q125.277 8.28281 125.778 8.80136Q126.288 9.31992 126.288 10.0758Q126.288 10.7965 125.778 11.3414Q125.277 11.8775 124.521 11.8775L111.962 11.8775L111.962 18.0738L121.533 18.0738Q122.289 18.0738 122.79 18.6187Q123.3 19.1549 123.3 19.9107Q123.3 20.6314 122.79 21.15Q122.289 21.6686 121.533 21.6686L111.962 21.6686L111.962 30.8531Q111.962 31.609 111.434 32.1363Q110.916 32.6549 110.16 32.6549ZM135.611 32.6197Q133.739 32.6197 132.21 31.899Q130.68 31.1783 129.722 30.2467Q128.773 29.3062 128.448 28.5855Q128.272 28.1549 128.272 27.7594Q128.272 27.0738 128.791 26.5553Q129.309 26.0279 129.995 26.0279Q130.575 26.0279 130.856 26.2301Q131.146 26.4234 131.471 26.8893Q133.018 29.1217 135.611 29.1217Q136.868 29.1217 137.984 28.3482Q139.1 27.5748 139.768 26.2652Q140.436 24.9469 140.436 23.4Q140.436 21.4225 139.373 19.9811Q138.309 18.5396 136.297 18.5396Q134.064 18.5396 132.263 20.3414Q131.937 20.6666 131.595 20.8336Q131.252 20.9918 130.751 20.9918Q129.995 20.9918 129.529 20.4557Q129.063 19.9107 129.134 19.0758L129.995 10.401Q130.03 9.75937 130.549 9.31113Q131.076 8.8541 131.726 8.8541L141.263 8.8541Q141.948 8.8541 142.467 9.38144Q142.994 9.9 142.994 10.5855Q142.994 11.3414 142.467 11.8512Q141.948 12.3521 141.263 12.3521L133.308 12.3521L132.948 15.7359Q134.495 15.0855 136.297 15.0855Q138.459 15.0855 140.181 16.1314Q141.913 17.1686 142.897 19.0582Q143.89 20.9478 143.89 23.4Q143.89 25.8873 142.739 28.0143Q141.588 30.1324 139.663 31.3805Q137.738 32.6197 135.611 32.6197Z" transform="translate(28.654 0)" style="fill:#121212;" />
              </g>
            </g>
          </g>
        </g>
      </g>
    </g>
  </g>
</svg>