<?xml version="1.0" encoding="utf-8"?>
<svg width="264" height="33" viewBox="0 0 264 33" fill="none" stroke="none" version="1.1" xmlns:xlink="http://www.w3.org/1999/xlink" xmlns="http://www.w3.org/2000/svg">
  <defs>
    <path id="path_1" d="M264 0L264 0L264 33L0 33L0 0L264 0Z" />
    <rect id="rect_2" x="0" y="0" width="264" height="33" />
    <clipPath id="clip_path_3">
      <use xlink:href="#rect_2" />
    </clipPath>
    <path id="path_4" d="M33 0L33 0L33 33L0 33L0 0L33 0Z" />
    <rect id="rect_5" x="0" y="0" width="33" height="33" />
    <clipPath id="clip_path_6">
      <use xlink:href="#rect_5" />
    </clipPath>
    <rect id="rect_7" x="0" y="0" width="33" height="4" />
    <clipPath id="clip_path_8">
      <use xlink:href="#rect_7" />
    </clipPath>
    <rect id="rect_9" x="0" y="0" width="33" height="5" />
    <clipPath id="clip_path_10">
      <use xlink:href="#rect_9" />
    </clipPath>
  </defs>
  <g id="Frame" opacity="1" clip-path="url(#clip_path_3)">
    <g>
      <use xlink:href="#path_1" style="fill:#FFFFFF;fill-rule:evenodd;mix-blend-mode:normal;" />
      <g>
        <g id="Color" opacity="1" clip-path="url(#clip_path_6)">
          <g>
            <use xlink:href="#path_4" style="fill:#121212;fill-rule:evenodd;mix-blend-mode:normal;" />
            <g>
              <g style="mix-blend-mode:normal;" transform="translate(0 28)">
                <path d="M0.463867 3.61953Q0.383789 3.61953 0.332031 3.56777Q0.280273 3.51602 0.280273 3.43984L0.280273 1.11563Q0.280273 1.03555 0.335938 0.985742Q0.391602 0.935938 0.47168 0.935938Q0.547852 0.935938 0.603516 0.985742Q0.660156 1.03555 0.660156 1.11563L0.660156 1.8998Q0.776367 1.77188 0.916016 1.71621Q1.05566 1.65957 1.22363 1.65957Q1.42383 1.65957 1.58789 1.76211Q1.75195 1.86367 1.84961 2.06387Q1.94824 2.26406 1.94824 2.54824Q1.94824 3.05996 1.71191 3.33047Q1.47559 3.6 1.06836 3.6Q0.956055 3.6 0.830078 3.56191Q0.704102 3.52383 0.635742 3.47598L0.635742 3.50039Q0.635742 3.54043 0.585938 3.58047Q0.536133 3.61953 0.463867 3.61953ZM1.04004 3.22402Q1.32031 3.22402 1.44629 3.04824Q1.57227 2.87246 1.57227 2.54824Q1.57227 2.3002 1.47559 2.17227Q1.37988 2.04434 1.21582 2.04434Q1.06445 2.04434 0.935547 2.1Q0.807617 2.15566 0.733398 2.25234Q0.660156 2.34805 0.660156 2.46426L0.660156 3.15566Q0.864258 3.22402 1.04004 3.22402ZM2.57168 3.62441Q2.49648 3.62441 2.43789 3.5707Q2.38027 3.51602 2.38027 3.44375L2.38027 1.12441Q2.38027 1.04434 2.43398 0.990625Q2.4877 0.935938 2.57168 0.935938Q2.64785 0.935938 2.70547 0.992578Q2.76406 1.04824 2.76406 1.12441L2.76406 3.44375Q2.76406 3.51602 2.70352 3.5707Q2.64395 3.62441 2.57168 3.62441ZM4.60357 3.66445Q4.52447 3.66445 4.47369 3.61953Q4.42388 3.57559 4.42388 3.5043L4.42388 3.44766Q4.25982 3.62441 3.96783 3.62441Q3.7481 3.62441 3.57134 3.51602Q3.39556 3.40762 3.29595 3.21035Q3.19634 3.01211 3.19634 2.76016Q3.19634 2.47988 3.31548 2.21816Q3.4356 1.95645 3.65338 1.79238Q3.87213 1.62832 4.1563 1.62832Q4.3399 1.62832 4.48736 1.67813Q4.6358 1.72793 4.79595 1.8002L4.79595 3.46426Q4.79595 3.54434 4.73931 3.60391Q4.68365 3.66445 4.60357 3.66445ZM3.99615 3.25234Q4.11236 3.25234 4.22173 3.20449Q4.33209 3.15566 4.40435 3.08828L4.41607 2.04434Q4.29986 1.99648 4.16412 1.99648Q3.99224 1.99648 3.85943 2.10293Q3.72759 2.2084 3.65533 2.38223Q3.58404 2.55605 3.58404 2.75234Q3.58404 2.99648 3.69146 3.12441Q3.79986 3.25234 3.99615 3.25234ZM6.10041 3.62441Q5.86018 3.62441 5.65998 3.5082Q5.45979 3.39199 5.34358 3.18984Q5.22834 2.9877 5.22834 2.74844Q5.22834 2.47598 5.35627 2.21621Q5.4842 1.95645 5.69221 1.79238Q5.90022 1.62832 6.13166 1.62832Q6.34358 1.62832 6.47346 1.69473Q6.60432 1.76016 6.72834 1.90371Q6.78791 1.96816 6.78791 2.04434Q6.78791 2.11953 6.73127 2.17422Q6.67561 2.22793 6.59553 2.22793Q6.54377 2.22793 6.5135 2.2123Q6.4842 2.1957 6.44416 2.14785Q6.3758 2.07168 6.3094 2.03164Q6.24397 1.9916 6.13557 1.9916Q6.01155 1.9916 5.88557 2.1Q5.75959 2.2084 5.68147 2.38223Q5.60432 2.55605 5.60432 2.73965Q5.60432 2.8998 5.67366 3.01797Q5.74397 3.13613 5.8553 3.19863Q5.9676 3.26016 6.09163 3.26016Q6.25178 3.26016 6.35334 3.20059Q6.45588 3.14004 6.53596 3.03555Q6.61213 2.93594 6.70784 2.93594Q6.78401 2.93594 6.83967 2.99063Q6.89631 3.04434 6.89631 3.11172Q6.89631 3.1918 6.85237 3.24844Q6.73616 3.40371 6.53596 3.51406Q6.33577 3.62441 6.10041 3.62441ZM7.43647 3.62441Q7.3642 3.62441 7.30366 3.5668Q7.24409 3.5082 7.24409 3.43203L7.23627 1.12441Q7.23627 1.04824 7.29389 0.992578Q7.35248 0.935938 7.43159 0.935938Q7.51557 0.935938 7.56928 0.994531Q7.62397 1.05215 7.62397 1.13223L7.62788 2.42813Q7.79584 2.28359 8.01948 2.05605Q8.24409 1.82754 8.40034 1.64004Q8.46381 1.55996 8.55561 1.55996Q8.63569 1.55996 8.6894 1.6127Q8.74409 1.66445 8.74409 1.74355Q8.74409 1.81191 8.70405 1.85977Q8.59956 2.00039 8.44135 2.16836Q8.28413 2.33633 8.15229 2.46035L8.81245 3.28848Q8.8642 3.34805 8.8642 3.41152Q8.8642 3.49648 8.80952 3.5541Q8.75581 3.61172 8.67182 3.61172Q8.57612 3.61172 8.52045 3.54434Q8.20795 3.12441 7.92768 2.77578L7.8642 2.6918Q7.78022 2.75625 7.63178 2.85195L7.63178 3.43203Q7.63178 3.5082 7.57612 3.5668Q7.52045 3.62441 7.43647 3.62441Z" transform="translate(12.048 0)" style="fill:#FFFFFF;" />
              </g>
              <g style="mix-blend-mode:normal;" transform="translate(0 14)">
                <path d="M0.727539 3.62441Q0.643555 3.62441 0.589844 3.56875Q0.536133 3.51211 0.536133 3.43984Q0.536133 3.40762 0.555664 3.34023L0.692383 2.85977L0.391602 2.85977Q0.311523 2.85977 0.255859 2.8041Q0.200195 2.74844 0.200195 2.66836Q0.200195 2.59219 0.255859 2.53457Q0.311523 2.47598 0.391602 2.47598L0.803711 2.47598L0.923828 2.06387L0.555664 2.06387Q0.475586 2.06387 0.419922 2.0082Q0.364258 1.95156 0.364258 1.87246Q0.364258 1.79629 0.419922 1.73867Q0.475586 1.68008 0.555664 1.68008L1.04004 1.68008L1.21191 1.07559Q1.22754 1.01602 1.28125 0.97793Q1.33594 0.939844 1.40039 0.939844Q1.48438 0.939844 1.53809 0.996485Q1.5918 1.05215 1.5918 1.12832Q1.5918 1.15957 1.57617 1.21621L1.44043 1.68008L1.80371 1.68008L1.98047 1.07559Q1.99609 1.01602 2.0498 0.97793Q2.10352 0.939844 2.16406 0.939844Q2.24805 0.939844 2.30176 0.998438Q2.35645 1.05605 2.35645 1.13223Q2.35645 1.16836 2.34375 1.2123L2.2041 1.68008L2.45215 1.68008Q2.52832 1.68008 2.58594 1.73867Q2.64355 1.79629 2.64355 1.87246Q2.64355 1.95156 2.58594 2.0082Q2.52832 2.06387 2.45215 2.06387L2.0918 2.06387L1.97559 2.47598L2.28809 2.47598Q2.36426 2.47598 2.42188 2.53457Q2.48047 2.59219 2.48047 2.66836Q2.48047 2.74844 2.42383 2.8041Q2.36816 2.85977 2.28809 2.85977L1.86426 2.85977L1.67969 3.4877Q1.66016 3.55605 1.60742 3.59023Q1.55566 3.62441 1.49609 3.62441Q1.41211 3.62441 1.35742 3.5668Q1.30371 3.5082 1.30371 3.43203Q1.30371 3.38809 1.32031 3.33633L1.45996 2.85977L1.0957 2.85977L0.916016 3.4877Q0.896484 3.55215 0.841797 3.58828Q0.788086 3.62441 0.727539 3.62441ZM1.57227 2.47598L1.69238 2.06387L1.32422 2.06387L1.20801 2.47598L1.57227 2.47598ZM3.27173 3.6Q3.18775 3.6 3.13404 3.54434Q3.08033 3.4877 3.08033 3.40762Q3.08033 3.32754 3.13404 3.27188Q3.18775 3.21621 3.27173 3.21621L3.50416 3.21621L3.53248 1.65176L3.39966 1.79238Q3.344 1.84805 3.26002 1.84805Q3.17994 1.84805 3.1233 1.79238Q3.06763 1.73574 3.06763 1.65566Q3.06763 1.58828 3.12037 1.52773L3.58814 1.01992Q3.61158 0.996485 3.65162 0.978906Q3.69166 0.960352 3.72388 0.960352Q3.81177 0.960352 3.86548 1.01797Q3.92017 1.07559 3.92017 1.15176L3.89185 3.21621L4.05591 3.21621Q4.14771 3.21621 4.20142 3.27188Q4.25611 3.32754 4.25611 3.40762Q4.25611 3.4877 4.19752 3.54434Q4.1399 3.6 4.06373 3.6L3.27173 3.6ZM4.6162 3.41152Q4.6162 3.08828 4.71581 2.8666Q4.81639 2.64395 4.96385 2.50625Q5.11229 2.36758 5.32811 2.23184Q5.51952 2.10391 5.61327 2.03262Q5.70799 1.96035 5.76952 1.87051Q5.83202 1.77969 5.83202 1.66445Q5.83202 1.52383 5.71971 1.43398Q5.60838 1.34414 5.44041 1.34414Q5.27635 1.34414 5.15038 1.42813Q5.0244 1.51211 4.95995 1.58828Q4.91991 1.63223 4.88573 1.65469Q4.85155 1.67617 4.79198 1.67617Q4.70799 1.67617 4.65331 1.6166Q4.59959 1.55605 4.59959 1.47988Q4.59959 1.43203 4.62596 1.38809Q4.65233 1.34414 4.72752 1.27188Q4.86034 1.14395 5.04002 1.05215Q5.21971 0.960352 5.44041 0.960352Q5.66405 0.960352 5.83983 1.0541Q6.01561 1.14785 6.11522 1.30996Q6.21581 1.47207 6.21581 1.66445Q6.21581 1.87246 6.12401 2.03066Q6.03221 2.18789 5.90233 2.29824Q5.77245 2.40762 5.56834 2.53555Q5.32811 2.6918 5.18748 2.84023Q5.04784 2.9877 5.0117 3.22012L6.05565 3.22012Q6.13182 3.22012 6.18944 3.27676Q6.24803 3.33242 6.24803 3.41152Q6.24803 3.4877 6.18944 3.54434Q6.13182 3.6 6.05565 3.6L4.6162 3.6L4.6162 3.41152ZM6.83573 3.6Q6.75175 3.6 6.69804 3.54434Q6.64433 3.4877 6.64433 3.40762Q6.64433 3.32754 6.69804 3.27188Q6.75175 3.21621 6.83573 3.21621L7.06816 3.21621L7.09648 1.65176L6.96366 1.79238Q6.908 1.84805 6.82402 1.84805Q6.74394 1.84805 6.6873 1.79238Q6.63163 1.73574 6.63163 1.65566Q6.63163 1.58828 6.68437 1.52773L7.15214 1.01992Q7.17558 0.996485 7.21562 0.978906Q7.25566 0.960352 7.28788 0.960352Q7.37577 0.960352 7.42948 1.01797Q7.48417 1.07559 7.48417 1.15176L7.45585 3.21621L7.61991 3.21621Q7.71171 3.21621 7.76542 3.27188Q7.82011 3.32754 7.82011 3.40762Q7.82011 3.4877 7.76152 3.54434Q7.7039 3.6 7.62773 3.6L6.83573 3.6ZM8.1802 3.41152Q8.1802 3.08828 8.27981 2.8666Q8.38039 2.64395 8.52785 2.50625Q8.67629 2.36758 8.89211 2.23184Q9.08352 2.10391 9.17727 2.03262Q9.27199 1.96035 9.33352 1.87051Q9.39602 1.77969 9.39602 1.66445Q9.39602 1.52383 9.28371 1.43398Q9.17238 1.34414 9.00441 1.34414Q8.84035 1.34414 8.71438 1.42813Q8.5884 1.51211 8.52395 1.58828Q8.48391 1.63223 8.44973 1.65469Q8.41555 1.67617 8.35598 1.67617Q8.27199 1.67617 8.21731 1.6166Q8.16359 1.55605 8.16359 1.47988Q8.16359 1.43203 8.18996 1.38809Q8.21633 1.34414 8.29152 1.27188Q8.42434 1.14395 8.60402 1.05215Q8.78371 0.960352 9.00441 0.960352Q9.22805 0.960352 9.40383 1.0541Q9.57961 1.14785 9.67922 1.30996Q9.77981 1.47207 9.77981 1.66445Q9.77981 1.87246 9.68801 2.03066Q9.59621 2.18789 9.46633 2.29824Q9.33645 2.40762 9.13234 2.53555Q8.89211 2.6918 8.75148 2.84023Q8.61184 2.9877 8.5757 3.22012L9.61965 3.22012Q9.69582 3.22012 9.75344 3.27676Q9.81203 3.33242 9.81203 3.41152Q9.81203 3.4877 9.75344 3.54434Q9.69582 3.6 9.61965 3.6L8.1802 3.6L8.1802 3.41152ZM10.3997 3.6Q10.3158 3.6 10.262 3.54434Q10.2083 3.4877 10.2083 3.40762Q10.2083 3.32754 10.262 3.27188Q10.3158 3.21621 10.3997 3.21621L10.6322 3.21621L10.6605 1.65176L10.5277 1.79238Q10.472 1.84805 10.388 1.84805Q10.3079 1.84805 10.2513 1.79238Q10.1956 1.73574 10.1956 1.65566Q10.1956 1.58828 10.2484 1.52773L10.7161 1.01992Q10.7396 0.996485 10.7796 0.978906Q10.8197 0.960352 10.8519 0.960352Q10.9398 0.960352 10.9935 1.01797Q11.0482 1.07559 11.0482 1.15176L11.0199 3.21621L11.1839 3.21621Q11.2757 3.21621 11.3294 3.27188Q11.3841 3.32754 11.3841 3.40762Q11.3841 3.4877 11.3255 3.54434Q11.2679 3.6 11.1917 3.6L10.3997 3.6ZM11.7442 3.41152Q11.7442 3.08828 11.8438 2.8666Q11.9444 2.64395 12.0919 2.50625Q12.2403 2.36758 12.4561 2.23184Q12.6475 2.10391 12.7413 2.03262Q12.836 1.96035 12.8975 1.87051Q12.96 1.77969 12.96 1.66445Q12.96 1.52383 12.8477 1.43398Q12.7364 1.34414 12.5684 1.34414Q12.4044 1.34414 12.2784 1.42813Q12.1524 1.51211 12.0879 1.58828Q12.0479 1.63223 12.0137 1.65469Q11.9795 1.67617 11.92 1.67617Q11.836 1.67617 11.7813 1.6166Q11.7276 1.55605 11.7276 1.47988Q11.7276 1.43203 11.754 1.38809Q11.7803 1.34414 11.8555 1.27188Q11.9883 1.14395 12.168 1.05215Q12.3477 0.960352 12.5684 0.960352Q12.792 0.960352 12.9678 1.0541Q13.1436 1.14785 13.2432 1.30996Q13.3438 1.47207 13.3438 1.66445Q13.3438 1.87246 13.252 2.03066Q13.1602 2.18789 13.0303 2.29824Q12.9004 2.40762 12.6963 2.53555Q12.4561 2.6918 12.3155 2.84023Q12.1758 2.9877 12.1397 3.22012L13.1836 3.22012Q13.2598 3.22012 13.3174 3.27676Q13.376 3.33242 13.376 3.41152Q13.376 3.4877 13.3174 3.54434Q13.2598 3.6 13.1836 3.6L11.7442 3.6L11.7442 3.41152Z" transform="translate(9.732 0)" style="fill:#FFFFFF;" />
              </g>
            </g>
          </g>
        </g>
        <g id="Color" opacity="1" clip-path="url(#clip_path_6)" transform="translate(33 0)">
          <g>
            <use xlink:href="#path_4" style="fill:#B14242;fill-rule:evenodd;mix-blend-mode:normal;" />
            <g>
              <g style="mix-blend-mode:normal;" transform="translate(0 28)">
                <path d="M0.475586 3.62441Q0.400391 3.62441 0.339844 3.56875Q0.280273 3.51211 0.280273 3.43984L0.280273 1.81973Q0.280273 1.73965 0.337891 1.68398Q0.396484 1.62832 0.475586 1.62832Q0.555664 1.62832 0.613281 1.68398Q0.671875 1.73965 0.671875 1.81973L0.671875 1.93984Q0.868164 1.61953 1.20801 1.61953Q1.41211 1.61953 1.50195 1.73184Q1.5918 1.84414 1.5918 2.00039L1.5918 2.11953Q1.5918 2.19961 1.53809 2.2543Q1.48438 2.30801 1.4043 2.30801Q1.30762 2.30801 1.26172 2.25234Q1.21582 2.1957 1.21582 2.11563L1.21582 2.06387Q1.21582 2.00039 1.12793 2.00039Q1.05566 2.00039 0.961914 2.07266Q0.868164 2.14395 0.807617 2.22402Q0.723633 2.32754 0.697266 2.43203Q0.671875 2.53555 0.671875 2.68008L0.667969 3.43984Q0.667969 3.51211 0.607422 3.56875Q0.547852 3.62441 0.475586 3.62441ZM2.63555 3.62441Q2.35235 3.62441 2.12579 3.50234Q1.9002 3.38027 1.77227 3.15469Q1.64434 2.92813 1.64434 2.61953Q1.64434 2.36758 1.75763 2.13809Q1.87188 1.90762 2.07794 1.76797Q2.28399 1.62832 2.54766 1.62832Q2.7918 1.62832 2.96563 1.72598Q3.14044 1.82363 3.22833 1.96035Q3.31622 2.09609 3.31622 2.20352Q3.31622 2.25625 3.28399 2.3041Q3.25177 2.35195 3.1922 2.38809L2.11993 3.0043Q2.17559 3.12832 2.3172 3.19668Q2.45977 3.26406 2.63555 3.26406Q2.86798 3.26406 3.03204 3.09219Q3.09552 3.02773 3.16388 3.02773Q3.24395 3.02773 3.29766 3.08047Q3.35235 3.13223 3.35235 3.2084Q3.35235 3.27188 3.30352 3.32754Q3.1922 3.45156 3.00567 3.53848Q2.82013 3.62441 2.63555 3.62441ZM2.91973 2.15566Q2.87188 2.07168 2.78399 2.02969Q2.6961 1.9877 2.57598 1.9877Q2.34845 1.9877 2.19415 2.14395Q2.03985 2.3002 2.01641 2.52773Q2.00763 2.58828 2.00763 2.67227L2.91973 2.15566ZM4.32416 3.61953Q4.12006 3.61953 3.95795 3.51406Q3.79584 3.40762 3.70209 3.20449Q3.60834 3.00039 3.60834 2.71621Q3.60834 2.37246 3.71577 2.12832Q3.82416 1.88418 4.01557 1.7582Q4.20795 1.63223 4.45991 1.63223Q4.6601 1.63223 4.88764 1.72402L4.90815 1.10391Q4.91206 1.02383 4.96967 0.966211Q5.02827 0.907617 5.10834 0.907617Q5.18354 0.907617 5.24116 0.966211Q5.29975 1.02383 5.29584 1.11172L5.24018 3.43984Q5.23627 3.51992 5.17963 3.57266Q5.12397 3.62441 5.04389 3.62441Q4.96772 3.62441 4.91401 3.58047Q4.8603 3.53555 4.8603 3.46426L4.8603 3.39199Q4.75581 3.4877 4.61518 3.5541Q4.47553 3.61953 4.32416 3.61953ZM4.35639 3.26016Q4.49213 3.26016 4.6103 3.20254Q4.72846 3.14395 4.79584 3.05996Q4.8642 2.97598 4.86811 2.90371L4.88373 2.11563Q4.81245 2.06777 4.70014 2.02969Q4.58784 1.9916 4.48432 1.9916Q4.24018 1.9916 4.11616 2.17422Q3.99213 2.35586 3.99213 2.70352Q3.99213 2.9916 4.08979 3.12637Q4.18842 3.26016 4.35639 3.26016Z" transform="translate(13.728 0)" style="fill:#FFFFFF;" />
              </g>
              <g style="mix-blend-mode:normal;" transform="translate(0 14)">
                <path d="M0.727539 3.62441Q0.643555 3.62441 0.589844 3.56875Q0.536133 3.51211 0.536133 3.43984Q0.536133 3.40762 0.555664 3.34023L0.692383 2.85977L0.391602 2.85977Q0.311523 2.85977 0.255859 2.8041Q0.200195 2.74844 0.200195 2.66836Q0.200195 2.59219 0.255859 2.53457Q0.311523 2.47598 0.391602 2.47598L0.803711 2.47598L0.923828 2.06387L0.555664 2.06387Q0.475586 2.06387 0.419922 2.0082Q0.364258 1.95156 0.364258 1.87246Q0.364258 1.79629 0.419922 1.73867Q0.475586 1.68008 0.555664 1.68008L1.04004 1.68008L1.21191 1.07559Q1.22754 1.01602 1.28125 0.97793Q1.33594 0.939844 1.40039 0.939844Q1.48438 0.939844 1.53809 0.996485Q1.5918 1.05215 1.5918 1.12832Q1.5918 1.15957 1.57617 1.21621L1.44043 1.68008L1.80371 1.68008L1.98047 1.07559Q1.99609 1.01602 2.0498 0.97793Q2.10352 0.939844 2.16406 0.939844Q2.24805 0.939844 2.30176 0.998438Q2.35645 1.05605 2.35645 1.13223Q2.35645 1.16836 2.34375 1.2123L2.2041 1.68008L2.45215 1.68008Q2.52832 1.68008 2.58594 1.73867Q2.64355 1.79629 2.64355 1.87246Q2.64355 1.95156 2.58594 2.0082Q2.52832 2.06387 2.45215 2.06387L2.0918 2.06387L1.97559 2.47598L2.28809 2.47598Q2.36426 2.47598 2.42188 2.53457Q2.48047 2.59219 2.48047 2.66836Q2.48047 2.74844 2.42383 2.8041Q2.36816 2.85977 2.28809 2.85977L1.86426 2.85977L1.67969 3.4877Q1.66016 3.55605 1.60742 3.59023Q1.55566 3.62441 1.49609 3.62441Q1.41211 3.62441 1.35742 3.5668Q1.30371 3.5082 1.30371 3.43203Q1.30371 3.38809 1.32031 3.33633L1.45996 2.85977L1.0957 2.85977L0.916016 3.4877Q0.896484 3.55215 0.841797 3.58828Q0.788086 3.62441 0.727539 3.62441ZM1.57227 2.47598L1.69238 2.06387L1.32422 2.06387L1.20801 2.47598L1.57227 2.47598ZM3.37623 3.63223Q3.2483 3.63223 3.19556 3.58047Q3.1438 3.52773 3.1438 3.41152L3.1438 1.11563Q3.1438 1.03555 3.20338 0.97793Q3.26392 0.920313 3.34009 0.920313L4.01978 0.920313Q4.30787 0.920313 4.51392 1.01797Q4.71998 1.11563 4.82349 1.27773Q4.92798 1.43984 4.92798 1.62832Q4.92798 1.92813 4.74439 2.12832Q4.94752 2.22402 5.04712 2.38223Q5.14771 2.54043 5.14771 2.77188Q5.14771 3.18789 4.70337 3.41055Q4.26002 3.63223 3.37623 3.63223ZM4.15552 2.0043Q4.31959 2.0043 4.42603 1.89004Q4.53248 1.77578 4.53248 1.63223Q4.53248 1.4916 4.39771 1.39785Q4.26392 1.3041 4.01978 1.3041L3.5442 1.3041L3.5442 2.0043L4.15552 2.0043ZM3.5442 3.25234Q4.07642 3.24355 4.41431 3.12441Q4.7522 3.0043 4.7522 2.77188Q4.7522 2.6 4.59595 2.49453Q4.4397 2.38809 4.15552 2.38809L3.5442 2.38809L3.5442 3.25234ZM5.71573 3.6Q5.63175 3.6 5.57804 3.54434Q5.52433 3.4877 5.52433 3.40762Q5.52433 3.32754 5.57804 3.27188Q5.63175 3.21621 5.71573 3.21621L5.94816 3.21621L5.97648 1.65176L5.84366 1.79238Q5.788 1.84805 5.70402 1.84805Q5.62394 1.84805 5.5673 1.79238Q5.51163 1.73574 5.51163 1.65566Q5.51163 1.58828 5.56437 1.52773L6.03214 1.01992Q6.05558 0.996485 6.09562 0.978906Q6.13566 0.960352 6.16788 0.960352Q6.25577 0.960352 6.30948 1.01797Q6.36417 1.07559 6.36417 1.15176L6.33585 3.21621L6.49991 3.21621Q6.59171 3.21621 6.64542 3.27188Q6.70011 3.32754 6.70011 3.40762Q6.70011 3.4877 6.64152 3.54434Q6.5839 3.6 6.50773 3.6L5.71573 3.6ZM8.14812 3.62832Q8.06805 3.62832 8.01141 3.5707Q7.95574 3.51211 7.95574 3.43594L7.95574 3.01992L7.13641 3.0082Q7.04754 3.0082 6.99578 2.95645Q6.94402 2.90371 6.94402 2.81973Q6.94402 2.76797 6.97625 2.7123L7.98797 1.04824Q8.04363 0.956445 8.14812 0.956445Q8.23211 0.956445 8.28777 1.01211Q8.34441 1.06777 8.34441 1.14785L8.34441 2.64395L8.38445 2.64395Q8.46355 2.64395 8.51531 2.70059Q8.56805 2.75625 8.56805 2.83633Q8.56805 2.91641 8.5075 2.97207Q8.44793 3.02773 8.36785 3.02773L8.34441 3.02773L8.34441 3.43594Q8.34441 3.51211 8.28387 3.5707Q8.2243 3.62832 8.14812 3.62832ZM7.95574 1.83633L7.47625 2.62441L7.95574 2.63613L7.95574 1.83633ZM8.8962 3.41152Q8.8962 3.08828 8.9958 2.8666Q9.09639 2.64395 9.24385 2.50625Q9.39229 2.36758 9.60811 2.23184Q9.79952 2.10391 9.89327 2.03262Q9.98799 1.96035 10.0495 1.87051Q10.112 1.77969 10.112 1.66445Q10.112 1.52383 9.99971 1.43398Q9.88838 1.34414 9.72041 1.34414Q9.55635 1.34414 9.43038 1.42813Q9.3044 1.51211 9.23995 1.58828Q9.19991 1.63223 9.16573 1.65469Q9.13155 1.67617 9.07198 1.67617Q8.98799 1.67617 8.9333 1.6166Q8.87959 1.55605 8.87959 1.47988Q8.87959 1.43203 8.90596 1.38809Q8.93233 1.34414 9.00752 1.27188Q9.14034 1.14395 9.32002 1.05215Q9.49971 0.960352 9.72041 0.960352Q9.94405 0.960352 10.1198 1.0541Q10.2956 1.14785 10.3952 1.30996Q10.4958 1.47207 10.4958 1.66445Q10.4958 1.87246 10.404 2.03066Q10.3122 2.18789 10.1823 2.29824Q10.0524 2.40762 9.84834 2.53555Q9.60811 2.6918 9.46748 2.84023Q9.32784 2.9877 9.2917 3.22012L10.3356 3.22012Q10.4118 3.22012 10.4694 3.27676Q10.528 3.33242 10.528 3.41152Q10.528 3.4877 10.4694 3.54434Q10.4118 3.6 10.3356 3.6L8.8962 3.6L8.8962 3.41152ZM11.8961 3.62832Q11.816 3.62832 11.7594 3.5707Q11.7037 3.51211 11.7037 3.43594L11.7037 3.01992L10.8844 3.0082Q10.7955 3.0082 10.7438 2.95645Q10.692 2.90371 10.692 2.81973Q10.692 2.76797 10.7242 2.7123L11.736 1.04824Q11.7916 0.956445 11.8961 0.956445Q11.9801 0.956445 12.0358 1.01211Q12.0924 1.06777 12.0924 1.14785L12.0924 2.64395L12.1325 2.64395Q12.2116 2.64395 12.2633 2.70059Q12.316 2.75625 12.316 2.83633Q12.316 2.91641 12.2555 2.97207Q12.1959 3.02773 12.1159 3.02773L12.0924 3.02773L12.0924 3.43594Q12.0924 3.51211 12.0319 3.5707Q11.9723 3.62832 11.8961 3.62832ZM11.7037 1.83633L11.2242 2.62441L11.7037 2.63613L11.7037 1.83633ZM12.6442 3.41152Q12.6442 3.08828 12.7438 2.8666Q12.8444 2.64395 12.9919 2.50625Q13.1403 2.36758 13.3561 2.23184Q13.5475 2.10391 13.6413 2.03262Q13.736 1.96035 13.7975 1.87051Q13.86 1.77969 13.86 1.66445Q13.86 1.52383 13.7477 1.43398Q13.6364 1.34414 13.4684 1.34414Q13.3044 1.34414 13.1784 1.42813Q13.0524 1.51211 12.9879 1.58828Q12.9479 1.63223 12.9137 1.65469Q12.8795 1.67617 12.82 1.67617Q12.736 1.67617 12.6813 1.6166Q12.6276 1.55605 12.6276 1.47988Q12.6276 1.43203 12.654 1.38809Q12.6803 1.34414 12.7555 1.27188Q12.8883 1.14395 13.068 1.05215Q13.2477 0.960352 13.4684 0.960352Q13.692 0.960352 13.8678 1.0541Q14.0436 1.14785 14.1432 1.30996Q14.2438 1.47207 14.2438 1.66445Q14.2438 1.87246 14.152 2.03066Q14.0602 2.18789 13.9303 2.29824Q13.8004 2.40762 13.5963 2.53555Q13.3561 2.6918 13.2155 2.84023Q13.0758 2.9877 13.0397 3.22012L14.0836 3.22012Q14.1598 3.22012 14.2174 3.27676Q14.276 3.33242 14.276 3.41152Q14.276 3.4877 14.2174 3.54434Q14.1598 3.6 14.0836 3.6L12.6442 3.6L12.6442 3.41152Z" transform="translate(9.282 0)" style="fill:#FFFFFF;" />
              </g>
            </g>
          </g>
        </g>
        <g id="Color" opacity="1" clip-path="url(#clip_path_6)" transform="translate(66 0)">
          <g>
            <use xlink:href="#path_4" style="fill:#D87C4A;fill-rule:evenodd;mix-blend-mode:normal;" />
            <g>
              <g clip-path="url(#clip_path_8)" style="mix-blend-mode:normal;" transform="translate(0 29)">
                <path d="M0.975586 3.62441Q0.748047 3.62441 0.557617 3.50039Q0.368164 3.37637 0.259766 3.1625Q0.152344 2.94766 0.152344 2.6957Q0.152344 2.41152 0.280273 2.16641Q0.408203 1.92031 0.624023 1.7748Q0.839844 1.62832 1.08789 1.62832Q1.31641 1.62832 1.50586 1.75625Q1.69629 1.88418 1.80566 2.09609Q1.91602 2.30801 1.91602 2.55215Q1.91602 2.84023 1.78809 3.08633Q1.66016 3.33242 1.44141 3.47891Q1.22363 3.62441 0.975586 3.62441ZM0.975586 3.26406Q1.11621 3.26406 1.24414 3.16836Q1.37207 3.07168 1.44824 2.9125Q1.52441 2.75234 1.52441 2.57168Q1.52441 2.42031 1.46387 2.28652Q1.4043 2.15176 1.2998 2.06973Q1.19629 1.9877 1.07227 1.9877Q0.931641 1.9877 0.80957 2.08633Q0.688477 2.18398 0.616211 2.34609Q0.543945 2.5082 0.543945 2.6918Q0.543945 2.87246 0.605469 3.00039Q0.667969 3.12832 0.765625 3.19668Q0.864258 3.26406 0.975586 3.26406ZM2.54359 3.62441Q2.46839 3.62441 2.40784 3.56875Q2.34827 3.51211 2.34827 3.43984L2.34827 1.81973Q2.34827 1.73965 2.40589 1.68398Q2.46448 1.62832 2.54359 1.62832Q2.62366 1.62832 2.68128 1.68398Q2.73988 1.73965 2.73988 1.81973L2.73988 1.93984Q2.93616 1.61953 3.27601 1.61953Q3.48011 1.61953 3.56995 1.73184Q3.6598 1.84414 3.6598 2.00039L3.6598 2.11953Q3.6598 2.19961 3.60609 2.2543Q3.55238 2.30801 3.4723 2.30801Q3.37562 2.30801 3.32972 2.25234Q3.28382 2.1957 3.28382 2.11563L3.28382 2.06387Q3.28382 2.00039 3.19593 2.00039Q3.12366 2.00039 3.02991 2.07266Q2.93616 2.14395 2.87562 2.22402Q2.79163 2.32754 2.76527 2.43203Q2.73988 2.53555 2.73988 2.68008L2.73597 3.43984Q2.73597 3.51211 2.67542 3.56875Q2.61585 3.62441 2.54359 3.62441ZM5.11957 3.66445Q5.04047 3.66445 4.98969 3.61953Q4.93988 3.57559 4.93988 3.5043L4.93988 3.44766Q4.77582 3.62441 4.48383 3.62441Q4.2641 3.62441 4.08734 3.51602Q3.91156 3.40762 3.81195 3.21035Q3.71234 3.01211 3.71234 2.76016Q3.71234 2.47988 3.83148 2.21816Q3.9516 1.95645 4.16938 1.79238Q4.38813 1.62832 4.67231 1.62832Q4.8559 1.62832 5.00336 1.67813Q5.1518 1.72793 5.31195 1.8002L5.31195 3.46426Q5.31195 3.54434 5.25531 3.60391Q5.19965 3.66445 5.11957 3.66445ZM4.51215 3.25234Q4.62836 3.25234 4.73773 3.20449Q4.84809 3.15566 4.92035 3.08828L4.93207 2.04434Q4.81586 1.99648 4.68012 1.99648Q4.50824 1.99648 4.37543 2.10293Q4.24359 2.2084 4.17133 2.38223Q4.10004 2.55605 4.10004 2.75234Q4.10004 2.99648 4.20746 3.12441Q4.31586 3.25234 4.51215 3.25234ZM6.06368 3.62441Q5.98848 3.62441 5.92989 3.56875Q5.87227 3.51211 5.87227 3.43984L5.87227 1.81582Q5.87227 1.73574 5.93184 1.68008Q5.99239 1.62441 6.07247 1.62441Q6.14766 1.62441 6.20138 1.68008Q6.25606 1.73574 6.25606 1.81582L6.25606 2.11953Q6.36837 1.88027 6.54024 1.7543Q6.71212 1.62832 6.91622 1.62832Q7.13985 1.62832 7.27169 1.73281Q7.40352 1.83633 7.46309 2.07461Q7.52364 2.31191 7.52364 2.73184L7.51973 3.43203Q7.51973 3.5082 7.46798 3.5668Q7.41622 3.62441 7.33614 3.62441Q7.25997 3.62441 7.20138 3.5668Q7.14376 3.5082 7.14376 3.43594L7.14376 2.77188Q7.14376 2.46035 7.11544 2.29238Q7.08809 2.12441 7.03145 2.06289Q6.97579 2.00039 6.88009 2.00039Q6.75997 2.00039 6.63985 2.10195Q6.51973 2.20352 6.41622 2.39199Q6.32442 2.55605 6.28829 2.7123Q6.25216 2.86758 6.25216 3.08828L6.25216 3.42422Q6.25216 3.51211 6.20138 3.56875Q6.15157 3.62441 6.06368 3.62441ZM8.72787 4.29629Q8.49642 4.29629 8.25619 4.23965Q8.19173 4.22402 8.14974 4.17129Q8.10775 4.11953 8.10775 4.05215Q8.10775 3.97207 8.16537 3.91543Q8.22396 3.85977 8.30013 3.85977Q8.34798 3.85977 8.42806 3.88027Q8.44369 3.88418 8.52767 3.89785Q8.61166 3.91152 8.72396 3.91152Q9.13607 3.91152 9.1683 3.50039L9.17611 3.40371Q9.10775 3.49648 8.99545 3.54238Q8.88412 3.58828 8.75619 3.58828Q8.54427 3.58828 8.35775 3.48281Q8.1722 3.37637 8.0599 3.17422Q7.94759 2.97207 7.94759 2.69961Q7.94759 2.41641 8.07357 2.16836Q8.19955 1.92031 8.41732 1.77285Q8.63607 1.62441 8.89974 1.62441Q9.04818 1.62441 9.23177 1.6957Q9.264 1.58438 9.41634 1.58438Q9.50033 1.58438 9.55404 1.63027Q9.60775 1.67617 9.60384 1.77969L9.5638 3.46816Q9.55599 3.88027 9.32748 4.08828Q9.09994 4.29629 8.72787 4.29629ZM8.73177 3.2123Q8.95248 3.2123 9.07552 3.0541Q9.19955 2.8959 9.19955 2.56387L9.19955 2.08047Q9.14388 2.04824 9.06576 2.02871Q8.98763 2.0082 8.91634 2.0082Q8.75228 2.0082 8.61361 2.09414Q8.47591 2.18008 8.39388 2.33242Q8.31185 2.48379 8.31185 2.67227Q8.31185 2.91641 8.43392 3.06484Q8.55599 3.2123 8.73177 3.2123ZM11.0996 3.62441Q10.8164 3.62441 10.5898 3.50234Q10.3642 3.38027 10.2363 3.15469Q10.1083 2.92813 10.1083 2.61953Q10.1083 2.36758 10.2216 2.13809Q10.3359 1.90762 10.5419 1.76797Q10.748 1.62832 11.0117 1.62832Q11.2558 1.62832 11.4296 1.72598Q11.6044 1.82363 11.6923 1.96035Q11.7802 2.09609 11.7802 2.20352Q11.7802 2.25625 11.748 2.3041Q11.7158 2.35195 11.6562 2.38809L10.5839 3.0043Q10.6396 3.12832 10.7812 3.19668Q10.9238 3.26406 11.0996 3.26406Q11.332 3.26406 11.496 3.09219Q11.5595 3.02773 11.6279 3.02773Q11.708 3.02773 11.7617 3.08047Q11.8164 3.13223 11.8164 3.2084Q11.8164 3.27188 11.7675 3.32754Q11.6562 3.45156 11.4697 3.53848Q11.2841 3.62441 11.0996 3.62441ZM11.3837 2.15566Q11.3359 2.07168 11.248 2.02969Q11.1601 1.9877 11.04 1.9877Q10.8124 1.9877 10.6581 2.14395Q10.5039 2.3002 10.4804 2.52773Q10.4716 2.58828 10.4716 2.67227L11.3837 2.15566Z" transform="translate(10.54 0)" style="fill:#FFFFFF;" />
              </g>
              <g style="mix-blend-mode:normal;" transform="translate(0 14)">
                <path d="M0.727539 3.62441Q0.643555 3.62441 0.589844 3.56875Q0.536133 3.51211 0.536133 3.43984Q0.536133 3.40762 0.555664 3.34023L0.692383 2.85977L0.391602 2.85977Q0.311523 2.85977 0.255859 2.8041Q0.200195 2.74844 0.200195 2.66836Q0.200195 2.59219 0.255859 2.53457Q0.311523 2.47598 0.391602 2.47598L0.803711 2.47598L0.923828 2.06387L0.555664 2.06387Q0.475586 2.06387 0.419922 2.0082Q0.364258 1.95156 0.364258 1.87246Q0.364258 1.79629 0.419922 1.73867Q0.475586 1.68008 0.555664 1.68008L1.04004 1.68008L1.21191 1.07559Q1.22754 1.01602 1.28125 0.97793Q1.33594 0.939844 1.40039 0.939844Q1.48438 0.939844 1.53809 0.996485Q1.5918 1.05215 1.5918 1.12832Q1.5918 1.15957 1.57617 1.21621L1.44043 1.68008L1.80371 1.68008L1.98047 1.07559Q1.99609 1.01602 2.0498 0.97793Q2.10352 0.939844 2.16406 0.939844Q2.24805 0.939844 2.30176 0.998438Q2.35645 1.05605 2.35645 1.13223Q2.35645 1.16836 2.34375 1.2123L2.2041 1.68008L2.45215 1.68008Q2.52832 1.68008 2.58594 1.73867Q2.64355 1.79629 2.64355 1.87246Q2.64355 1.95156 2.58594 2.0082Q2.52832 2.06387 2.45215 2.06387L2.0918 2.06387L1.97559 2.47598L2.28809 2.47598Q2.36426 2.47598 2.42188 2.53457Q2.48047 2.59219 2.48047 2.66836Q2.48047 2.74844 2.42383 2.8041Q2.36816 2.85977 2.28809 2.85977L1.86426 2.85977L1.67969 3.4877Q1.66016 3.55605 1.60742 3.59023Q1.55566 3.62441 1.49609 3.62441Q1.41211 3.62441 1.35742 3.5668Q1.30371 3.5082 1.30371 3.43203Q1.30371 3.38809 1.32031 3.33633L1.45996 2.85977L1.0957 2.85977L0.916016 3.4877Q0.896484 3.55215 0.841797 3.58828Q0.788086 3.62441 0.727539 3.62441ZM1.57227 2.47598L1.69238 2.06387L1.32422 2.06387L1.20801 2.47598L1.57227 2.47598ZM3.77564 3.64785Q3.63599 3.64785 3.49146 3.62148Q3.34791 3.59609 3.29615 3.58047Q3.2317 3.55996 3.18775 3.5043Q3.1438 3.44766 3.1438 3.38418L3.1438 1.11563Q3.1438 1.03164 3.20142 0.975977Q3.26002 0.920313 3.344 0.920313Q3.7483 0.920313 4.15943 1.04043Q4.57154 1.15957 4.8733 1.4877Q5.17603 1.81582 5.17603 2.3959Q5.17603 2.81582 4.99146 3.09805Q4.80787 3.38027 4.49146 3.51406Q4.17603 3.64785 3.77564 3.64785ZM3.77564 3.24844Q4.24439 3.24844 4.51002 3.03262Q4.77564 2.81582 4.77564 2.3959Q4.77564 1.87637 4.43775 1.62441Q4.09986 1.37246 3.5442 1.32754L3.5442 3.22402Q3.67994 3.24844 3.77564 3.24844ZM6.34772 3.62441Q6.10846 3.62441 5.91608 3.53066Q5.7237 3.43594 5.6153 3.26797Q5.50788 3.1 5.50788 2.89199Q5.50788 2.46816 5.91217 2.2084Q5.77643 2.11953 5.70221 1.99648Q5.62799 1.87246 5.62799 1.6918Q5.62799 1.47207 5.73151 1.30605Q5.836 1.14004 6.00788 1.0502Q6.17975 0.960352 6.38776 0.960352Q6.59967 0.960352 6.76764 1.04629Q6.93561 1.13223 7.02936 1.28457Q7.12409 1.43594 7.12409 1.63223Q7.12409 1.97207 6.81647 2.18398Q6.99225 2.30801 7.08795 2.47402Q7.18366 2.64004 7.18366 2.83633Q7.18366 3.05605 7.07526 3.23672Q6.96784 3.41641 6.77545 3.5209Q6.58405 3.62441 6.34772 3.62441ZM6.36432 1.9916Q6.58014 1.90371 6.66217 1.81387Q6.7442 1.72402 6.7442 1.61172Q6.7442 1.4916 6.64166 1.42031Q6.5401 1.34805 6.38776 1.34805Q6.21979 1.34805 6.11139 1.43398Q6.00397 1.51992 6.00397 1.67617Q6.00397 1.78848 6.08795 1.8627Q6.17194 1.93594 6.36432 1.9916ZM6.34772 3.23965Q6.52838 3.23965 6.66803 3.13613Q6.80768 3.03164 6.80768 2.84414Q6.80768 2.68398 6.68756 2.5707Q6.56842 2.45645 6.38776 2.3959Q6.2237 2.46816 6.12604 2.52188Q6.02838 2.57559 5.95807 2.66836Q5.88776 2.76016 5.88776 2.89199Q5.88776 3.04434 6.01959 3.14199Q6.15241 3.23965 6.34772 3.23965ZM7.82834 3.61953Q7.74826 3.61953 7.69162 3.56191Q7.63595 3.5043 7.63595 3.42813Q7.63595 3.39199 7.66037 3.34414L8.64377 1.37246L7.64377 1.37246Q7.56369 1.37246 7.50802 1.3168Q7.45236 1.26016 7.45236 1.18008Q7.45236 1.10391 7.50802 1.04629Q7.56369 0.987695 7.64377 0.987695L8.95236 0.987695Q9.03244 0.987695 9.0881 1.04629Q9.14377 1.10391 9.14377 1.18398Q9.14377 1.22793 9.09591 1.32363L8.00021 3.51602Q7.97189 3.57168 7.92404 3.59609Q7.87619 3.61953 7.82834 3.61953ZM10.5121 3.62441Q10.1918 3.62441 9.92326 3.48086Q9.65568 3.33633 9.49943 3.06289Q9.34416 2.78848 9.34416 2.42031Q9.34416 2.03164 9.5258 1.67813Q9.70842 1.32363 9.99748 1.10977Q10.2875 0.895899 10.5922 0.895899Q10.7201 0.895899 10.8461 0.935938Q10.9721 0.975977 11.0717 1.03555Q11.1195 0.987695 11.1918 0.987695Q11.2719 0.987695 11.3236 1.04238Q11.3764 1.09609 11.3764 1.17227L11.3764 1.42813Q11.3764 1.5082 11.3178 1.56875Q11.2602 1.62832 11.1762 1.62832Q11.0961 1.62832 11.0414 1.58047Q10.9877 1.53164 10.9877 1.46816L10.9877 1.43984Q10.8403 1.28359 10.5639 1.28359Q10.3637 1.28359 10.1713 1.4457Q9.9799 1.60781 9.86174 1.87246Q9.74357 2.13613 9.74357 2.42031Q9.74357 2.67227 9.84709 2.85879Q9.95158 3.04434 10.1254 3.14199Q10.3002 3.23965 10.5121 3.23965Q10.8998 3.23965 11.1518 2.90762Q11.1879 2.86367 11.224 2.84609Q11.2602 2.82754 11.308 2.82754Q11.392 2.82754 11.4496 2.88223Q11.5082 2.93594 11.5082 3.02773Q11.5082 3.09609 11.4721 3.14785Q11.308 3.38027 11.058 3.50234Q10.808 3.62441 10.5121 3.62441ZM12.9161 3.62832Q12.836 3.62832 12.7794 3.5707Q12.7237 3.51211 12.7237 3.43594L12.7237 3.01992L11.9044 3.0082Q11.8155 3.0082 11.7638 2.95645Q11.712 2.90371 11.712 2.81973Q11.712 2.76797 11.7443 2.7123L12.756 1.04824Q12.8116 0.956445 12.9161 0.956445Q13.0001 0.956445 13.0558 1.01211Q13.1124 1.06777 13.1124 1.14785L13.1124 2.64395L13.1525 2.64395Q13.2316 2.64395 13.2833 2.70059Q13.336 2.75625 13.336 2.83633Q13.336 2.91641 13.2755 2.97207Q13.2159 3.02773 13.1359 3.02773L13.1124 3.02773L13.1124 3.43594Q13.1124 3.51211 13.0519 3.5707Q12.9923 3.62832 12.9161 3.62832ZM12.7237 1.83633L12.2443 2.62441L12.7237 2.63613L12.7237 1.83633ZM15.4396 3.62832Q15.296 3.62832 15.2521 3.4916L14.964 2.65957L14.1476 2.84023L13.8878 3.49648Q13.8644 3.55215 13.8175 3.58828Q13.7716 3.62441 13.7042 3.62441Q13.6242 3.62441 13.5636 3.56875Q13.504 3.51211 13.504 3.43594Q13.504 3.38418 13.5324 3.31582L13.6915 2.91641Q13.6681 2.90762 13.6564 2.8998Q13.5519 2.84805 13.5519 2.72402Q13.5519 2.65176 13.5939 2.6Q13.6359 2.54824 13.7042 2.53164L13.8517 2.50039L14.4445 0.996485Q14.4679 0.935938 14.5197 0.904688Q14.5724 0.872461 14.632 0.872461Q14.6964 0.872461 14.7443 0.904688Q14.7921 0.935938 14.8156 1.0043L15.6124 3.31191Q15.6163 3.31973 15.6281 3.35781Q15.6398 3.3959 15.6398 3.43594Q15.6398 3.51211 15.5841 3.5707Q15.5285 3.62832 15.4396 3.62832ZM14.8322 2.28848L14.6163 1.64395L14.3156 2.3998L14.8322 2.28848Z" transform="translate(8.664 0)" style="fill:#FFFFFF;" />
              </g>
            </g>
          </g>
        </g>
        <g id="Color" opacity="1" clip-path="url(#clip_path_6)" transform="translate(99 0)">
          <g>
            <use xlink:href="#path_4" style="fill:#E49A44;fill-rule:evenodd;mix-blend-mode:normal;" />
            <g>
              <g clip-path="url(#clip_path_8)" style="mix-blend-mode:normal;" transform="translate(0 29)">
                <path d="M0.555664 4.34023Q0.484375 4.34023 0.431641 4.28164Q0.379883 4.22402 0.379883 4.14395Q0.379883 4.10781 0.400391 4.05996L0.748047 3.31191L0.0322266 1.91641Q0.0078125 1.86758 0.0078125 1.81973Q0.0078125 1.73965 0.0654297 1.68203Q0.124023 1.62441 0.208008 1.62441Q0.272461 1.62441 0.320312 1.66055Q0.368164 1.6957 0.391602 1.74355L0.956055 2.85977L1.45996 1.74355Q1.48438 1.6918 1.53418 1.65566Q1.58398 1.61953 1.64355 1.61953Q1.71582 1.61953 1.76758 1.67617Q1.82031 1.73184 1.82031 1.81582Q1.82031 1.86367 1.80371 1.8959L0.736328 4.21621Q0.711914 4.27188 0.664062 4.30606Q0.616211 4.34023 0.555664 4.34023ZM2.90755 3.62441Q2.62435 3.62441 2.39779 3.50234Q2.1722 3.38027 2.04427 3.15469Q1.91634 2.92813 1.91634 2.61953Q1.91634 2.36758 2.02962 2.13809Q2.14388 1.90762 2.34994 1.76797Q2.55599 1.62832 2.81966 1.62832Q3.0638 1.62832 3.23763 1.72598Q3.41244 1.82363 3.50033 1.96035Q3.58822 2.09609 3.58822 2.20352Q3.58822 2.25625 3.55599 2.3041Q3.52377 2.35195 3.4642 2.38809L2.39193 3.0043Q2.44759 3.12832 2.5892 3.19668Q2.73177 3.26406 2.90755 3.26406Q3.13998 3.26406 3.30404 3.09219Q3.36752 3.02773 3.43587 3.02773Q3.51595 3.02773 3.56966 3.08047Q3.62435 3.13223 3.62435 3.2084Q3.62435 3.27188 3.57552 3.32754Q3.4642 3.45156 3.27767 3.53848Q3.09212 3.62441 2.90755 3.62441ZM3.19173 2.15566Q3.14388 2.07168 3.05599 2.02969Q2.9681 1.9877 2.84798 1.9877Q2.62045 1.9877 2.46615 2.14395Q2.31185 2.3002 2.28841 2.52773Q2.27962 2.58828 2.27962 2.67227L3.19173 2.15566ZM4.19968 3.62441Q4.12448 3.62441 4.06589 3.5707Q4.00827 3.51602 4.00827 3.44375L4.00827 1.12441Q4.00827 1.04434 4.06198 0.990625Q4.1157 0.935938 4.19968 0.935938Q4.27585 0.935938 4.33347 0.992578Q4.39206 1.04824 4.39206 1.12441L4.39206 3.44375Q4.39206 3.51602 4.33152 3.5707Q4.27195 3.62441 4.19968 3.62441ZM5.14368 3.62441Q5.06848 3.62441 5.00989 3.5707Q4.95227 3.51602 4.95227 3.44375L4.95227 1.12441Q4.95227 1.04434 5.00598 0.990625Q5.0597 0.935938 5.14368 0.935938Q5.21985 0.935938 5.27747 0.992578Q5.33606 1.04824 5.33606 1.12441L5.33606 3.44375Q5.33606 3.51602 5.27552 3.5707Q5.21595 3.62441 5.14368 3.62441ZM6.59159 3.62441Q6.36405 3.62441 6.17362 3.50039Q5.98416 3.37637 5.87577 3.1625Q5.76834 2.94766 5.76834 2.6957Q5.76834 2.41152 5.89627 2.16641Q6.0242 1.92031 6.24002 1.7748Q6.45584 1.62832 6.70389 1.62832Q6.93241 1.62832 7.12186 1.75625Q7.31229 1.88418 7.42166 2.09609Q7.53202 2.30801 7.53202 2.55215Q7.53202 2.84023 7.40409 3.08633Q7.27616 3.33242 7.05741 3.47891Q6.83963 3.62441 6.59159 3.62441ZM6.59159 3.26406Q6.73221 3.26406 6.86014 3.16836Q6.98807 3.07168 7.06424 2.9125Q7.14041 2.75234 7.14041 2.57168Q7.14041 2.42031 7.07987 2.28652Q7.0203 2.15176 6.91581 2.06973Q6.81229 1.9877 6.68827 1.9877Q6.54764 1.9877 6.42557 2.08633Q6.30448 2.18398 6.23221 2.34609Q6.15995 2.5082 6.15995 2.6918Q6.15995 2.87246 6.22147 3.00039Q6.28397 3.12832 6.38163 3.19668Q6.48026 3.26406 6.59159 3.26406ZM8.27189 3.62441Q8.19181 3.62441 8.14396 3.58242Q8.09611 3.54043 8.08049 3.46816L7.74845 1.88809Q7.73576 1.82754 7.73576 1.79238Q7.73576 1.72793 7.79142 1.67617Q7.84806 1.62441 7.92424 1.62441Q8.00041 1.62441 8.04826 1.66836Q8.09611 1.7123 8.11174 1.78359L8.31584 2.79629L8.67619 1.76406Q8.69572 1.69961 8.74943 1.6625Q8.80412 1.62441 8.86759 1.62441Q9.02384 1.62441 9.05998 1.76406L9.30802 2.81582L9.62443 1.77578Q9.64396 1.71621 9.69767 1.67227Q9.75236 1.62832 9.81193 1.62832Q9.8881 1.62832 9.94572 1.68008Q10.0043 1.73184 10.0043 1.80801Q10.0043 1.84805 9.99162 1.88418L9.4799 3.47988Q9.43205 3.62441 9.29631 3.62441Q9.14787 3.62441 9.10783 3.47598L8.84025 2.42813L8.45646 3.48379Q8.43205 3.55215 8.38224 3.58828Q8.33244 3.62441 8.27189 3.62441Z" transform="translate(11.418 0)" style="fill:#FFFFFF;" />
              </g>
              <g style="mix-blend-mode:normal;" transform="translate(0 14)">
                <path d="M0.727539 3.62441Q0.643555 3.62441 0.589844 3.56875Q0.536133 3.51211 0.536133 3.43984Q0.536133 3.40762 0.555664 3.34023L0.692383 2.85977L0.391602 2.85977Q0.311523 2.85977 0.255859 2.8041Q0.200195 2.74844 0.200195 2.66836Q0.200195 2.59219 0.255859 2.53457Q0.311523 2.47598 0.391602 2.47598L0.803711 2.47598L0.923828 2.06387L0.555664 2.06387Q0.475586 2.06387 0.419922 2.0082Q0.364258 1.95156 0.364258 1.87246Q0.364258 1.79629 0.419922 1.73867Q0.475586 1.68008 0.555664 1.68008L1.04004 1.68008L1.21191 1.07559Q1.22754 1.01602 1.28125 0.97793Q1.33594 0.939844 1.40039 0.939844Q1.48438 0.939844 1.53809 0.996485Q1.5918 1.05215 1.5918 1.12832Q1.5918 1.15957 1.57617 1.21621L1.44043 1.68008L1.80371 1.68008L1.98047 1.07559Q1.99609 1.01602 2.0498 0.97793Q2.10352 0.939844 2.16406 0.939844Q2.24805 0.939844 2.30176 0.998438Q2.35645 1.05605 2.35645 1.13223Q2.35645 1.16836 2.34375 1.2123L2.2041 1.68008L2.45215 1.68008Q2.52832 1.68008 2.58594 1.73867Q2.64355 1.79629 2.64355 1.87246Q2.64355 1.95156 2.58594 2.0082Q2.52832 2.06387 2.45215 2.06387L2.0918 2.06387L1.97559 2.47598L2.28809 2.47598Q2.36426 2.47598 2.42188 2.53457Q2.48047 2.59219 2.48047 2.66836Q2.48047 2.74844 2.42383 2.8041Q2.36816 2.85977 2.28809 2.85977L1.86426 2.85977L1.67969 3.4877Q1.66016 3.55605 1.60742 3.59023Q1.55566 3.62441 1.49609 3.62441Q1.41211 3.62441 1.35742 3.5668Q1.30371 3.5082 1.30371 3.43203Q1.30371 3.38809 1.32031 3.33633L1.45996 2.85977L1.0957 2.85977L0.916016 3.4877Q0.896484 3.55215 0.841797 3.58828Q0.788086 3.62441 0.727539 3.62441ZM1.57227 2.47598L1.69238 2.06387L1.32422 2.06387L1.20801 2.47598L1.57227 2.47598ZM3.344 3.6Q3.26002 3.6 3.20142 3.54238Q3.1438 3.48379 3.1438 3.3998L3.1438 1.11953Q3.1438 1.03555 3.20142 0.97793Q3.26002 0.920313 3.344 0.920313L4.9397 0.920313Q5.02369 0.920313 5.07935 0.97793Q5.13599 1.03555 5.13599 1.11953Q5.13599 1.20449 5.07935 1.26211Q5.02369 1.31973 4.9397 1.31973L3.54029 1.31973L3.54029 2.0082L4.75611 2.0082Q4.84009 2.0082 4.89576 2.06387Q4.9524 2.11953 4.9524 2.20352Q4.9524 2.28848 4.89576 2.34609Q4.84009 2.40371 4.75611 2.40371L3.54029 2.40371L3.54029 3.19961L4.93189 3.19961Q5.01587 3.19961 5.07154 3.2582Q5.12818 3.31582 5.12818 3.3998Q5.12818 3.48379 5.07154 3.54238Q5.01587 3.6 4.93189 3.6L3.344 3.6ZM6.54413 3.62832Q6.46405 3.62832 6.40741 3.5707Q6.35174 3.51211 6.35174 3.43594L6.35174 3.01992L5.53241 3.0082Q5.44354 3.0082 5.39178 2.95645Q5.34002 2.90371 5.34002 2.81973Q5.34002 2.76797 5.37225 2.7123L6.38397 1.04824Q6.43963 0.956445 6.54413 0.956445Q6.62811 0.956445 6.68377 1.01211Q6.74041 1.06777 6.74041 1.14785L6.74041 2.64395L6.78045 2.64395Q6.85956 2.64395 6.91131 2.70059Q6.96405 2.75625 6.96405 2.83633Q6.96405 2.91641 6.9035 2.97207Q6.84393 3.02773 6.76385 3.02773L6.74041 3.02773L6.74041 3.43594Q6.74041 3.51211 6.67987 3.5707Q6.6203 3.62832 6.54413 3.62832ZM6.35174 1.83633L5.87225 2.62441L6.35174 2.63613L6.35174 1.83633ZM7.85958 3.62441Q7.78048 3.62441 7.72579 3.57266Q7.67208 3.51992 7.67208 3.43984Q7.67208 3.38027 7.70138 3.33438Q7.73165 3.28848 7.78048 3.26797Q7.9836 3.17227 8.14767 3.02676Q8.31173 2.88027 8.42013 2.70352Q8.25216 2.76406 8.06368 2.76406Q7.84395 2.76406 7.66622 2.66836Q7.48848 2.57168 7.38399 2.38613Q7.28048 2.19961 7.28048 1.93594Q7.28048 1.64004 7.38985 1.41836Q7.5002 1.1957 7.69161 1.07656Q7.88399 0.956445 8.12813 0.956445Q8.52755 0.956445 8.75509 1.22012Q8.9836 1.48379 8.9836 1.95645Q8.9836 2.53555 8.70138 2.94961Q8.42013 3.36367 7.96407 3.59609Q7.89962 3.62441 7.85958 3.62441ZM8.06368 2.38809Q8.24434 2.38809 8.38204 2.32266Q8.51974 2.25625 8.59981 2.17617Q8.61153 2.1 8.61153 1.95645Q8.61153 1.64785 8.4836 1.49063Q8.35567 1.33242 8.11153 1.33242Q7.92013 1.33242 7.78536 1.49258Q7.65157 1.65176 7.65157 1.93594Q7.65157 2.15566 7.76388 2.27188Q7.87618 2.38809 8.06368 2.38809ZM11.1596 3.62832Q11.016 3.62832 10.9721 3.4916L10.684 2.65957L9.86759 2.84023L9.60783 3.49648Q9.58439 3.55215 9.53752 3.58828Q9.49162 3.62441 9.42423 3.62441Q9.34416 3.62441 9.28361 3.56875Q9.22404 3.51211 9.22404 3.43594Q9.22404 3.38418 9.25236 3.31582L9.41154 2.91641Q9.3881 2.90762 9.37638 2.8998Q9.27189 2.84805 9.27189 2.72402Q9.27189 2.65176 9.31388 2.6Q9.35588 2.54824 9.42423 2.53164L9.5717 2.50039L10.1645 0.996485Q10.1879 0.935938 10.2397 0.904688Q10.2924 0.872461 10.352 0.872461Q10.4164 0.872461 10.4643 0.904688Q10.5121 0.935938 10.5356 1.0043L11.3324 3.31191Q11.3363 3.31973 11.3481 3.35781Q11.3598 3.3959 11.3598 3.43594Q11.3598 3.51211 11.3041 3.5707Q11.2485 3.62832 11.1596 3.62832ZM10.5522 2.28848L10.3363 1.64395L10.0356 2.3998L10.5522 2.28848ZM12.7201 3.62832Q12.64 3.62832 12.5834 3.5707Q12.5277 3.51211 12.5277 3.43594L12.5277 3.01992L11.7084 3.0082Q11.6195 3.0082 11.5678 2.95645Q11.516 2.90371 11.516 2.81973Q11.516 2.76797 11.5483 2.7123L12.56 1.04824Q12.6156 0.956445 12.7201 0.956445Q12.8041 0.956445 12.8598 1.01211Q12.9164 1.06777 12.9164 1.14785L12.9164 2.64395L12.9565 2.64395Q13.0356 2.64395 13.0873 2.70059Q13.14 2.75625 13.14 2.83633Q13.14 2.91641 13.0795 2.97207Q13.0199 3.02773 12.9399 3.02773L12.9164 3.02773L12.9164 3.43594Q12.9164 3.51211 12.8559 3.5707Q12.7963 3.62832 12.7201 3.62832ZM12.5277 1.83633L12.0483 2.62441L12.5277 2.63613L12.5277 1.83633ZM14.5961 3.62832Q14.516 3.62832 14.4594 3.5707Q14.4037 3.51211 14.4037 3.43594L14.4037 3.01992L13.5844 3.0082Q13.4955 3.0082 13.4438 2.95645Q13.392 2.90371 13.392 2.81973Q13.392 2.76797 13.4243 2.7123L14.436 1.04824Q14.4916 0.956445 14.5961 0.956445Q14.6801 0.956445 14.7358 1.01211Q14.7924 1.06777 14.7924 1.14785L14.7924 2.64395L14.8325 2.64395Q14.9116 2.64395 14.9633 2.70059Q15.016 2.75625 15.016 2.83633Q15.016 2.91641 14.9555 2.97207Q14.8959 3.02773 14.8159 3.02773L14.7924 3.02773L14.7924 3.43594Q14.7924 3.51211 14.7319 3.5707Q14.6723 3.62832 14.5961 3.62832ZM14.4037 1.83633L13.9243 2.62441L14.4037 2.63613L14.4037 1.83633Z" transform="translate(8.928 0)" style="fill:#FFFFFF;" />
              </g>
            </g>
          </g>
        </g>
        <g id="Color" opacity="1" clip-path="url(#clip_path_6)" transform="translate(132 0)">
          <g>
            <use xlink:href="#path_4" style="fill:#4A8B8B;fill-rule:evenodd;mix-blend-mode:normal;" />
            <g>
              <g clip-path="url(#clip_path_8)" style="mix-blend-mode:normal;" transform="translate(0 29)">
                <path d="M0.463867 3.61953Q0.383789 3.61953 0.332031 3.56777Q0.280273 3.51602 0.280273 3.43984L0.280273 1.11563Q0.280273 1.03555 0.335938 0.985742Q0.391602 0.935938 0.47168 0.935938Q0.547852 0.935938 0.603516 0.985742Q0.660156 1.03555 0.660156 1.11563L0.660156 1.8998Q0.776367 1.77188 0.916016 1.71621Q1.05566 1.65957 1.22363 1.65957Q1.42383 1.65957 1.58789 1.76211Q1.75195 1.86367 1.84961 2.06387Q1.94824 2.26406 1.94824 2.54824Q1.94824 3.05996 1.71191 3.33047Q1.47559 3.6 1.06836 3.6Q0.956055 3.6 0.830078 3.56191Q0.704102 3.52383 0.635742 3.47598L0.635742 3.50039Q0.635742 3.54043 0.585938 3.58047Q0.536133 3.61953 0.463867 3.61953ZM1.04004 3.22402Q1.32031 3.22402 1.44629 3.04824Q1.57227 2.87246 1.57227 2.54824Q1.57227 2.3002 1.47559 2.17227Q1.37988 2.04434 1.21582 2.04434Q1.06445 2.04434 0.935547 2.1Q0.807617 2.15566 0.733398 2.25234Q0.660156 2.34805 0.660156 2.46426L0.660156 3.15566Q0.864258 3.22402 1.04004 3.22402ZM2.57168 3.62441Q2.49648 3.62441 2.43789 3.5707Q2.38027 3.51602 2.38027 3.44375L2.38027 1.12441Q2.38027 1.04434 2.43398 0.990625Q2.4877 0.935938 2.57168 0.935938Q2.64785 0.935938 2.70547 0.992578Q2.76406 1.04824 2.76406 1.12441L2.76406 3.44375Q2.76406 3.51602 2.70352 3.5707Q2.64395 3.62441 2.57168 3.62441ZM3.87213 3.63613Q3.6563 3.63613 3.52838 3.54238Q3.40045 3.44766 3.33599 3.19961Q3.27154 2.95156 3.27154 2.4877Q3.27154 2.33242 3.28326 2.14492Q3.29595 1.95645 3.31646 1.82754Q3.33209 1.72793 3.37603 1.67617Q3.41998 1.62441 3.50396 1.62441Q3.58404 1.62441 3.6397 1.67227Q3.69634 1.72012 3.69634 1.81191L3.68755 1.92422Q3.64752 2.26406 3.64752 2.57559Q3.64752 2.98379 3.71783 3.13027Q3.78814 3.27578 3.91216 3.27578Q4.05572 3.27578 4.20806 3.19766Q4.36041 3.11953 4.42388 3.04824Q4.4483 3.02383 4.4483 2.94766L4.45611 1.80801Q4.45611 1.72793 4.51373 1.67617Q4.57232 1.62441 4.64361 1.62441Q4.71978 1.62441 4.7774 1.67617Q4.83599 1.72793 4.83599 1.80801L4.83599 3.43203Q4.83599 3.5082 4.7774 3.5668Q4.71978 3.62441 4.64361 3.62441Q4.56353 3.62441 4.50201 3.57461Q4.44048 3.52383 4.44048 3.44766L4.44048 3.40371Q4.28814 3.51211 4.15826 3.57461Q4.02838 3.63613 3.87213 3.63613ZM6.25955 3.62441Q5.97635 3.62441 5.74979 3.50234Q5.5242 3.38027 5.39627 3.15469Q5.26834 2.92813 5.26834 2.61953Q5.26834 2.36758 5.38163 2.13809Q5.49588 1.90762 5.70194 1.76797Q5.90799 1.62832 6.17166 1.62832Q6.4158 1.62832 6.58963 1.72598Q6.76444 1.82363 6.85233 1.96035Q6.94022 2.09609 6.94022 2.20352Q6.94022 2.25625 6.90799 2.3041Q6.87577 2.35195 6.8162 2.38809L5.74393 3.0043Q5.79959 3.12832 5.9412 3.19668Q6.08377 3.26406 6.25955 3.26406Q6.49198 3.26406 6.65604 3.09219Q6.71952 3.02773 6.78788 3.02773Q6.86795 3.02773 6.92166 3.08047Q6.97635 3.13223 6.97635 3.2084Q6.97635 3.27188 6.92752 3.32754Q6.8162 3.45156 6.62967 3.53848Q6.44413 3.62441 6.25955 3.62441ZM6.54373 2.15566Q6.49588 2.07168 6.40799 2.02969Q6.3201 1.9877 6.19998 1.9877Q5.97245 1.9877 5.81815 2.14395Q5.66385 2.3002 5.64041 2.52773Q5.63163 2.58828 5.63163 2.67227L6.54373 2.15566Z" transform="translate(12.96 0)" style="fill:#FFFFFF;" />
              </g>
              <g style="mix-blend-mode:normal;" transform="translate(0 14)">
                <path d="M0.727539 3.62441Q0.643555 3.62441 0.589844 3.56875Q0.536133 3.51211 0.536133 3.43984Q0.536133 3.40762 0.555664 3.34023L0.692383 2.85977L0.391602 2.85977Q0.311523 2.85977 0.255859 2.8041Q0.200195 2.74844 0.200195 2.66836Q0.200195 2.59219 0.255859 2.53457Q0.311523 2.47598 0.391602 2.47598L0.803711 2.47598L0.923828 2.06387L0.555664 2.06387Q0.475586 2.06387 0.419922 2.0082Q0.364258 1.95156 0.364258 1.87246Q0.364258 1.79629 0.419922 1.73867Q0.475586 1.68008 0.555664 1.68008L1.04004 1.68008L1.21191 1.07559Q1.22754 1.01602 1.28125 0.97793Q1.33594 0.939844 1.40039 0.939844Q1.48438 0.939844 1.53809 0.996485Q1.5918 1.05215 1.5918 1.12832Q1.5918 1.15957 1.57617 1.21621L1.44043 1.68008L1.80371 1.68008L1.98047 1.07559Q1.99609 1.01602 2.0498 0.97793Q2.10352 0.939844 2.16406 0.939844Q2.24805 0.939844 2.30176 0.998438Q2.35645 1.05605 2.35645 1.13223Q2.35645 1.16836 2.34375 1.2123L2.2041 1.68008L2.45215 1.68008Q2.52832 1.68008 2.58594 1.73867Q2.64355 1.79629 2.64355 1.87246Q2.64355 1.95156 2.58594 2.0082Q2.52832 2.06387 2.45215 2.06387L2.0918 2.06387L1.97559 2.47598L2.28809 2.47598Q2.36426 2.47598 2.42188 2.53457Q2.48047 2.59219 2.48047 2.66836Q2.48047 2.74844 2.42383 2.8041Q2.36816 2.85977 2.28809 2.85977L1.86426 2.85977L1.67969 3.4877Q1.66016 3.55605 1.60742 3.59023Q1.55566 3.62441 1.49609 3.62441Q1.41211 3.62441 1.35742 3.5668Q1.30371 3.5082 1.30371 3.43203Q1.30371 3.38809 1.32031 3.33633L1.45996 2.85977L1.0957 2.85977L0.916016 3.4877Q0.896484 3.55215 0.841797 3.58828Q0.788086 3.62441 0.727539 3.62441ZM1.57227 2.47598L1.69238 2.06387L1.32422 2.06387L1.20801 2.47598L1.57227 2.47598ZM4.17212 3.62832Q4.09205 3.62832 4.03541 3.5707Q3.97974 3.51211 3.97974 3.43594L3.97974 3.01992L3.16041 3.0082Q3.07154 3.0082 3.01978 2.95645Q2.96802 2.90371 2.96802 2.81973Q2.96802 2.76797 3.00025 2.7123L4.01197 1.04824Q4.06763 0.956445 4.17212 0.956445Q4.25611 0.956445 4.31177 1.01211Q4.36841 1.06777 4.36841 1.14785L4.36841 2.64395L4.40845 2.64395Q4.48755 2.64395 4.53931 2.70059Q4.59205 2.75625 4.59205 2.83633Q4.59205 2.91641 4.5315 2.97207Q4.47193 3.02773 4.39185 3.02773L4.36841 3.02773L4.36841 3.43594Q4.36841 3.51211 4.30787 3.5707Q4.2483 3.62832 4.17212 3.62832ZM3.97974 1.83633L3.50025 2.62441L3.97974 2.63613L3.97974 1.83633ZM6.69559 3.62832Q6.55203 3.62832 6.50809 3.4916L6.22 2.65957L5.40359 2.84023L5.14383 3.49648Q5.12039 3.55215 5.07352 3.58828Q5.02762 3.62441 4.96023 3.62441Q4.88016 3.62441 4.81961 3.56875Q4.76004 3.51211 4.76004 3.43594Q4.76004 3.38418 4.78836 3.31582L4.94754 2.91641Q4.9241 2.90762 4.91238 2.8998Q4.80789 2.84805 4.80789 2.72402Q4.80789 2.65176 4.84988 2.6Q4.89188 2.54824 4.96023 2.53164L5.1077 2.50039L5.70047 0.996485Q5.72391 0.935938 5.77566 0.904688Q5.8284 0.872461 5.88797 0.872461Q5.95242 0.872461 6.00027 0.904688Q6.04813 0.935938 6.07156 1.0043L6.86844 3.31191Q6.87234 3.31973 6.88406 3.35781Q6.89578 3.3959 6.89578 3.43594Q6.89578 3.51211 6.84012 3.5707Q6.78445 3.62832 6.69559 3.62832ZM6.08816 2.28848L5.87234 1.64395L5.57156 2.3998L6.08816 2.28848ZM7.93972 3.62441Q7.70046 3.62441 7.50808 3.53066Q7.3157 3.43594 7.2073 3.26797Q7.09988 3.1 7.09988 2.89199Q7.09988 2.46816 7.50417 2.2084Q7.36843 2.11953 7.29421 1.99648Q7.21999 1.87246 7.21999 1.6918Q7.21999 1.47207 7.32351 1.30605Q7.428 1.14004 7.59988 1.0502Q7.77175 0.960352 7.97976 0.960352Q8.19167 0.960352 8.35964 1.04629Q8.52761 1.13223 8.62136 1.28457Q8.71609 1.43594 8.71609 1.63223Q8.71609 1.97207 8.40847 2.18398Q8.58425 2.30801 8.67995 2.47402Q8.77566 2.64004 8.77566 2.83633Q8.77566 3.05605 8.66726 3.23672Q8.55984 3.41641 8.36745 3.5209Q8.17605 3.62441 7.93972 3.62441ZM7.95632 1.9916Q8.17214 1.90371 8.25417 1.81387Q8.3362 1.72402 8.3362 1.61172Q8.3362 1.4916 8.23366 1.42031Q8.1321 1.34805 7.97976 1.34805Q7.81179 1.34805 7.70339 1.43398Q7.59597 1.51992 7.59597 1.67617Q7.59597 1.78848 7.67995 1.8627Q7.76394 1.93594 7.95632 1.9916ZM7.93972 3.23965Q8.12038 3.23965 8.26003 3.13613Q8.39968 3.03164 8.39968 2.84414Q8.39968 2.68398 8.27956 2.5707Q8.16042 2.45645 7.97976 2.3959Q7.8157 2.46816 7.71804 2.52188Q7.62038 2.57559 7.55007 2.66836Q7.47976 2.76016 7.47976 2.89199Q7.47976 3.04434 7.61159 3.14199Q7.74441 3.23965 7.93972 3.23965ZM9.50823 3.63223Q9.3803 3.63223 9.32756 3.58047Q9.27581 3.52773 9.27581 3.41152L9.27581 1.11563Q9.27581 1.03555 9.33538 0.97793Q9.39592 0.920313 9.47209 0.920313L10.1518 0.920313Q10.4399 0.920313 10.6459 1.01797Q10.852 1.11563 10.9555 1.27773Q11.06 1.43984 11.06 1.62832Q11.06 1.92813 10.8764 2.12832Q11.0795 2.22402 11.1791 2.38223Q11.2797 2.54043 11.2797 2.77188Q11.2797 3.18789 10.8354 3.41055Q10.392 3.63223 9.50823 3.63223ZM10.2875 2.0043Q10.4516 2.0043 10.558 1.89004Q10.6645 1.77578 10.6645 1.63223Q10.6645 1.4916 10.5297 1.39785Q10.3959 1.3041 10.1518 1.3041L9.6762 1.3041L9.6762 2.0043L10.2875 2.0043ZM9.6762 3.25234Q10.2084 3.24355 10.5463 3.12441Q10.8842 3.0043 10.8842 2.77188Q10.8842 2.6 10.728 2.49453Q10.5717 2.38809 10.2875 2.38809L9.6762 2.38809L9.6762 3.25234ZM12.4317 3.62441Q12.1925 3.62441 12.0001 3.53066Q11.8077 3.43594 11.6993 3.26797Q11.5919 3.1 11.5919 2.89199Q11.5919 2.46816 11.9962 2.2084Q11.8604 2.11953 11.7862 1.99648Q11.712 1.87246 11.712 1.6918Q11.712 1.47207 11.8155 1.30605Q11.92 1.14004 12.0919 1.0502Q12.2638 0.960352 12.4718 0.960352Q12.6837 0.960352 12.8516 1.04629Q13.0196 1.13223 13.1134 1.28457Q13.2081 1.43594 13.2081 1.63223Q13.2081 1.97207 12.9005 2.18398Q13.0763 2.30801 13.172 2.47402Q13.2677 2.64004 13.2677 2.83633Q13.2677 3.05605 13.1593 3.23672Q13.0518 3.41641 12.8595 3.5209Q12.668 3.62441 12.4317 3.62441ZM12.4483 1.9916Q12.6641 1.90371 12.7462 1.81387Q12.8282 1.72402 12.8282 1.61172Q12.8282 1.4916 12.7257 1.42031Q12.6241 1.34805 12.4718 1.34805Q12.3038 1.34805 12.1954 1.43398Q12.088 1.51992 12.088 1.67617Q12.088 1.78848 12.172 1.8627Q12.2559 1.93594 12.4483 1.9916ZM12.4317 3.23965Q12.6124 3.23965 12.752 3.13613Q12.8917 3.03164 12.8917 2.84414Q12.8917 2.68398 12.7716 2.5707Q12.6524 2.45645 12.4718 2.3959Q12.3077 2.46816 12.21 2.52188Q12.1124 2.57559 12.0421 2.66836Q11.9718 2.76016 11.9718 2.89199Q11.9718 3.04434 12.1036 3.14199Q12.2364 3.23965 12.4317 3.23965ZM14.0002 3.63223Q13.8723 3.63223 13.8196 3.58047Q13.7678 3.52773 13.7678 3.41152L13.7678 1.11563Q13.7678 1.03555 13.8274 0.97793Q13.8879 0.920313 13.9641 0.920313L14.6438 0.920313Q14.9319 0.920313 15.1379 1.01797Q15.344 1.11563 15.4475 1.27773Q15.552 1.43984 15.552 1.62832Q15.552 1.92813 15.3684 2.12832Q15.5715 2.22402 15.6711 2.38223Q15.7717 2.54043 15.7717 2.77188Q15.7717 3.18789 15.3274 3.41055Q14.884 3.63223 14.0002 3.63223ZM14.7795 2.0043Q14.9436 2.0043 15.05 1.89004Q15.1565 1.77578 15.1565 1.63223Q15.1565 1.4916 15.0217 1.39785Q14.8879 1.3041 14.6438 1.3041L14.1682 1.3041L14.1682 2.0043L14.7795 2.0043ZM14.1682 3.25234Q14.7004 3.24355 15.0383 3.12441Q15.3762 3.0043 15.3762 2.77188Q15.3762 2.6 15.22 2.49453Q15.0637 2.38809 14.7795 2.38809L14.1682 2.38809L14.1682 3.25234Z" transform="translate(8.544 0)" style="fill:#FFFFFF;" />
              </g>
            </g>
          </g>
        </g>
        <g id="Color" opacity="1" clip-path="url(#clip_path_6)" transform="translate(165 0)">
          <g>
            <use xlink:href="#path_4" style="fill:#A7A7A7;fill-rule:evenodd;mix-blend-mode:normal;" />
            <g>
              <g clip-path="url(#clip_path_10)" style="mix-blend-mode:normal;" transform="translate(0 29)">
                <path d="M0.47168 3.62441Q0.396484 3.62441 0.337891 3.56875Q0.280273 3.51211 0.280273 3.43594L0.280273 1.81973Q0.280273 1.74355 0.337891 1.68594Q0.396484 1.62832 0.47168 1.62832Q0.551758 1.62832 0.607422 1.68594Q0.664062 1.74355 0.664062 1.81973L0.664062 2.1Q0.912109 1.62832 1.32422 1.62832Q1.48828 1.62832 1.61035 1.72402Q1.73242 1.81973 1.78418 2.01211Q2.04004 1.62832 2.4082 1.62832Q2.65625 1.62832 2.7998 1.81875Q2.94434 2.0082 2.94434 2.38809L2.94434 3.43594Q2.94434 3.51211 2.88574 3.56875Q2.82812 3.62441 2.75195 3.62441Q2.67188 3.62441 2.61523 3.56875Q2.55957 3.51211 2.55957 3.43594L2.55957 2.36367Q2.55957 2.18008 2.50781 2.08828Q2.45605 1.99648 2.34375 1.99648Q2.22754 1.99648 2.11133 2.08828Q1.99609 2.18008 1.92188 2.34023Q1.84766 2.50039 1.84766 2.6918L1.84766 3.43594Q1.84766 3.51602 1.79199 3.5707Q1.73633 3.62441 1.65625 3.62441Q1.58008 3.62441 1.52148 3.56875Q1.46387 3.51211 1.46387 3.43594L1.46387 2.36367Q1.46387 2.17227 1.41797 2.08438Q1.37207 1.99648 1.26758 1.99648Q1.13965 1.99648 1.01562 2.09805Q0.891602 2.19961 0.799805 2.34414Q0.727539 2.46426 0.693359 2.58438Q0.660156 2.70352 0.660156 2.84805L0.664062 3.43594Q0.664062 3.51211 0.607422 3.56875Q0.551758 3.62441 0.47168 3.62441ZM4.74357 3.66445Q4.66447 3.66445 4.61369 3.61953Q4.56388 3.57559 4.56388 3.5043L4.56388 3.44766Q4.39982 3.62441 4.10783 3.62441Q3.8881 3.62441 3.71134 3.51602Q3.53556 3.40762 3.43595 3.21035Q3.33634 3.01211 3.33634 2.76016Q3.33634 2.47988 3.45548 2.21816Q3.5756 1.95645 3.79338 1.79238Q4.01213 1.62832 4.2963 1.62832Q4.4799 1.62832 4.62736 1.67813Q4.7758 1.72793 4.93595 1.8002L4.93595 3.46426Q4.93595 3.54434 4.87931 3.60391Q4.82365 3.66445 4.74357 3.66445ZM4.13615 3.25234Q4.25236 3.25234 4.36173 3.20449Q4.47209 3.15566 4.54435 3.08828L4.55607 2.04434Q4.43986 1.99648 4.30412 1.99648Q4.13224 1.99648 3.99943 2.10293Q3.86759 2.2084 3.79533 2.38223Q3.72404 2.55605 3.72404 2.75234Q3.72404 2.99648 3.83146 3.12441Q3.93986 3.25234 4.13615 3.25234ZM6.17987 4.29629Q5.94842 4.29629 5.70819 4.23965Q5.64373 4.22402 5.60174 4.17129Q5.55975 4.11953 5.55975 4.05215Q5.55975 3.97207 5.61737 3.91543Q5.67596 3.85977 5.75213 3.85977Q5.79998 3.85977 5.88006 3.88027Q5.89569 3.88418 5.97967 3.89785Q6.06366 3.91152 6.17596 3.91152Q6.58807 3.91152 6.6203 3.50039L6.62811 3.40371Q6.55975 3.49648 6.44745 3.54238Q6.33612 3.58828 6.20819 3.58828Q5.99627 3.58828 5.80975 3.48281Q5.6242 3.37637 5.5119 3.17422Q5.39959 2.97207 5.39959 2.69961Q5.39959 2.41641 5.52557 2.16836Q5.65155 1.92031 5.86932 1.77285Q6.08807 1.62441 6.35174 1.62441Q6.50018 1.62441 6.68377 1.6957Q6.716 1.58438 6.86834 1.58438Q6.95233 1.58438 7.00604 1.63027Q7.05975 1.67617 7.05584 1.77969L7.01581 3.46816Q7.00799 3.88027 6.77948 4.08828Q6.55194 4.29629 6.17987 4.29629ZM6.18377 3.2123Q6.40448 3.2123 6.52752 3.0541Q6.65155 2.8959 6.65155 2.56387L6.65155 2.08047Q6.59588 2.04824 6.51776 2.02871Q6.43963 2.0082 6.36834 2.0082Q6.20428 2.0082 6.06561 2.09414Q5.92791 2.18008 5.84588 2.33242Q5.76385 2.48379 5.76385 2.67227Q5.76385 2.91641 5.88592 3.06484Q6.00799 3.2123 6.18377 3.2123ZM8.55156 3.62441Q8.26835 3.62441 8.04179 3.50234Q7.8162 3.38027 7.68827 3.15469Q7.56034 2.92813 7.56034 2.61953Q7.56034 2.36758 7.67363 2.13809Q7.78788 1.90762 7.99394 1.76797Q8.19999 1.62832 8.46367 1.62832Q8.70781 1.62832 8.88163 1.72598Q9.05644 1.82363 9.14433 1.96035Q9.23222 2.09609 9.23222 2.20352Q9.23222 2.25625 9.19999 2.3041Q9.16777 2.35195 9.1082 2.38809L8.03593 3.0043Q8.09159 3.12832 8.2332 3.19668Q8.37577 3.26406 8.55156 3.26406Q8.78398 3.26406 8.94804 3.09219Q9.01152 3.02773 9.07988 3.02773Q9.15995 3.02773 9.21367 3.08047Q9.26835 3.13223 9.26835 3.2084Q9.26835 3.27188 9.21952 3.32754Q9.1082 3.45156 8.92167 3.53848Q8.73613 3.62441 8.55156 3.62441ZM8.83574 2.15566Q8.78788 2.07168 8.69999 2.02969Q8.6121 1.9877 8.49199 1.9877Q8.26445 1.9877 8.11015 2.14395Q7.95585 2.3002 7.93242 2.52773Q7.92363 2.58828 7.92363 2.67227L8.83574 2.15566ZM9.84368 3.62441Q9.76849 3.62441 9.70989 3.56875Q9.65227 3.51211 9.65227 3.43984L9.65227 1.81582Q9.65227 1.73574 9.71184 1.68008Q9.77239 1.62441 9.85247 1.62441Q9.92766 1.62441 9.98138 1.68008Q10.0361 1.73574 10.0361 1.81582L10.0361 2.11953Q10.1484 1.88027 10.3202 1.7543Q10.4921 1.62832 10.6962 1.62832Q10.9199 1.62832 11.0517 1.73281Q11.1835 1.83633 11.2431 2.07461Q11.3036 2.31191 11.3036 2.73184L11.2997 3.43203Q11.2997 3.5082 11.248 3.5668Q11.1962 3.62441 11.1161 3.62441Q11.04 3.62441 10.9814 3.5668Q10.9238 3.5082 10.9238 3.43594L10.9238 2.77188Q10.9238 2.46035 10.8954 2.29238Q10.8681 2.12441 10.8115 2.06289Q10.7558 2.00039 10.6601 2.00039Q10.54 2.00039 10.4199 2.10195Q10.2997 2.20352 10.1962 2.39199Q10.1044 2.55605 10.0683 2.7123Q10.0322 2.86758 10.0322 3.08828L10.0322 3.42422Q10.0322 3.51211 9.98138 3.56875Q9.93157 3.62441 9.84368 3.62441ZM12.1719 3.62832Q12.0958 3.62832 12.0372 3.57266Q11.9795 3.51602 11.9795 3.43984L11.9795 2.01211L11.6641 2.01211Q11.584 2.01211 11.5284 1.95449Q11.4717 1.8959 11.4717 1.81973Q11.4717 1.73184 11.5323 1.67813Q11.5919 1.62441 11.6719 1.62441L11.9795 1.62441L11.9795 1.1957Q11.9795 1.11953 12.0352 1.05996Q12.0919 1.00039 12.1719 1.00039Q12.2559 1.00039 12.3096 1.05801Q12.3643 1.11563 12.3643 1.1957L12.3643 1.62441L12.7042 1.62441Q12.7842 1.62441 12.8399 1.68008Q12.8956 1.73574 12.8956 1.81973Q12.8956 1.8959 12.8399 1.95449Q12.7842 2.01211 12.7042 2.01211L12.3643 2.01211L12.3643 3.43984Q12.3643 3.51602 12.3077 3.57266Q12.252 3.62832 12.1719 3.62832ZM14.3196 3.66445Q14.2405 3.66445 14.1897 3.61953Q14.1399 3.57559 14.1399 3.5043L14.1399 3.44766Q13.9758 3.62441 13.6838 3.62441Q13.4641 3.62441 13.2873 3.51602Q13.1116 3.40762 13.012 3.21035Q12.9123 3.01211 12.9123 2.76016Q12.9123 2.47988 13.0315 2.21816Q13.1516 1.95645 13.3694 1.79238Q13.5881 1.62832 13.8723 1.62832Q14.0559 1.62832 14.2034 1.67813Q14.3518 1.72793 14.512 1.8002L14.512 3.46426Q14.512 3.54434 14.4553 3.60391Q14.3996 3.66445 14.3196 3.66445ZM13.7121 3.25234Q13.8284 3.25234 13.9377 3.20449Q14.0481 3.15566 14.1204 3.08828L14.1321 2.04434Q14.0159 1.99648 13.8801 1.99648Q13.7082 1.99648 13.5754 2.10293Q13.4436 2.2084 13.3713 2.38223Q13.3 2.55605 13.3 2.75234Q13.3 2.99648 13.4075 3.12441Q13.5159 3.25234 13.7121 3.25234Z" transform="translate(9.104 0)" style="fill:#FFFFFF;" />
              </g>
              <g style="mix-blend-mode:normal;" transform="translate(0 14)">
                <path d="M0.727539 3.62441Q0.643555 3.62441 0.589844 3.56875Q0.536133 3.51211 0.536133 3.43984Q0.536133 3.40762 0.555664 3.34023L0.692383 2.85977L0.391602 2.85977Q0.311523 2.85977 0.255859 2.8041Q0.200195 2.74844 0.200195 2.66836Q0.200195 2.59219 0.255859 2.53457Q0.311523 2.47598 0.391602 2.47598L0.803711 2.47598L0.923828 2.06387L0.555664 2.06387Q0.475586 2.06387 0.419922 2.0082Q0.364258 1.95156 0.364258 1.87246Q0.364258 1.79629 0.419922 1.73867Q0.475586 1.68008 0.555664 1.68008L1.04004 1.68008L1.21191 1.07559Q1.22754 1.01602 1.28125 0.97793Q1.33594 0.939844 1.40039 0.939844Q1.48438 0.939844 1.53809 0.996485Q1.5918 1.05215 1.5918 1.12832Q1.5918 1.15957 1.57617 1.21621L1.44043 1.68008L1.80371 1.68008L1.98047 1.07559Q1.99609 1.01602 2.0498 0.97793Q2.10352 0.939844 2.16406 0.939844Q2.24805 0.939844 2.30176 0.998438Q2.35645 1.05605 2.35645 1.13223Q2.35645 1.16836 2.34375 1.2123L2.2041 1.68008L2.45215 1.68008Q2.52832 1.68008 2.58594 1.73867Q2.64355 1.79629 2.64355 1.87246Q2.64355 1.95156 2.58594 2.0082Q2.52832 2.06387 2.45215 2.06387L2.0918 2.06387L1.97559 2.47598L2.28809 2.47598Q2.36426 2.47598 2.42188 2.53457Q2.48047 2.59219 2.48047 2.66836Q2.48047 2.74844 2.42383 2.8041Q2.36816 2.85977 2.28809 2.85977L1.86426 2.85977L1.67969 3.4877Q1.66016 3.55605 1.60742 3.59023Q1.55566 3.62441 1.49609 3.62441Q1.41211 3.62441 1.35742 3.5668Q1.30371 3.5082 1.30371 3.43203Q1.30371 3.38809 1.32031 3.33633L1.45996 2.85977L1.0957 2.85977L0.916016 3.4877Q0.896484 3.55215 0.841797 3.58828Q0.788086 3.62441 0.727539 3.62441ZM1.57227 2.47598L1.69238 2.06387L1.32422 2.06387L1.20801 2.47598L1.57227 2.47598ZM4.40357 3.66445Q4.32447 3.66445 4.27369 3.61953Q4.22388 3.57559 4.22388 3.5043L4.22388 3.44766Q4.05982 3.62441 3.76783 3.62441Q3.5481 3.62441 3.37134 3.51602Q3.19556 3.40762 3.09595 3.21035Q2.99634 3.01211 2.99634 2.76016Q2.99634 2.47988 3.11548 2.21816Q3.2356 1.95645 3.45338 1.79238Q3.67213 1.62832 3.9563 1.62832Q4.1399 1.62832 4.28736 1.67813Q4.4358 1.72793 4.59595 1.8002L4.59595 3.46426Q4.59595 3.54434 4.53931 3.60391Q4.48365 3.66445 4.40357 3.66445ZM3.79615 3.25234Q3.91236 3.25234 4.02173 3.20449Q4.13209 3.15566 4.20435 3.08828L4.21607 2.04434Q4.09986 1.99648 3.96412 1.99648Q3.79224 1.99648 3.65943 2.10293Q3.52759 2.2084 3.45533 2.38223Q3.38404 2.55605 3.38404 2.75234Q3.38404 2.99648 3.49146 3.12441Q3.59986 3.25234 3.79615 3.25234ZM5.32034 3.61953Q5.24026 3.61953 5.18362 3.56191Q5.12795 3.5043 5.12795 3.42813Q5.12795 3.39199 5.15237 3.34414L6.13577 1.37246L5.13577 1.37246Q5.05569 1.37246 5.00002 1.3168Q4.94436 1.26016 4.94436 1.18008Q4.94436 1.10391 5.00002 1.04629Q5.05569 0.987695 5.13577 0.987695L6.44436 0.987695Q6.52444 0.987695 6.5801 1.04629Q6.63577 1.10391 6.63577 1.18398Q6.63577 1.22793 6.58791 1.32363L5.49221 3.51602Q5.46389 3.57168 5.41604 3.59609Q5.36819 3.61953 5.32034 3.61953ZM8.23557 3.66445Q8.15647 3.66445 8.10569 3.61953Q8.05588 3.57559 8.05588 3.5043L8.05588 3.44766Q7.89182 3.62441 7.59983 3.62441Q7.3801 3.62441 7.20334 3.51602Q7.02756 3.40762 6.92795 3.21035Q6.82834 3.01211 6.82834 2.76016Q6.82834 2.47988 6.94748 2.21816Q7.0676 1.95645 7.28538 1.79238Q7.50413 1.62832 7.78831 1.62832Q7.9719 1.62832 8.11936 1.67813Q8.2678 1.72793 8.42795 1.8002L8.42795 3.46426Q8.42795 3.54434 8.37131 3.60391Q8.31565 3.66445 8.23557 3.66445ZM7.62815 3.25234Q7.74436 3.25234 7.85373 3.20449Q7.96409 3.15566 8.03635 3.08828L8.04807 2.04434Q7.93186 1.99648 7.79612 1.99648Q7.62424 1.99648 7.49143 2.10293Q7.35959 2.2084 7.28733 2.38223Q7.21604 2.55605 7.21604 2.75234Q7.21604 2.99648 7.32346 3.12441Q7.43186 3.25234 7.62815 3.25234ZM9.15234 3.61953Q9.07226 3.61953 9.01562 3.56191Q8.95995 3.5043 8.95995 3.42813Q8.95995 3.39199 8.98437 3.34414L9.96777 1.37246L8.96777 1.37246Q8.88769 1.37246 8.83202 1.3168Q8.77636 1.26016 8.77636 1.18008Q8.77636 1.10391 8.83202 1.04629Q8.88769 0.987695 8.96777 0.987695L10.2764 0.987695Q10.3564 0.987695 10.4121 1.04629Q10.4678 1.10391 10.4678 1.18398Q10.4678 1.22793 10.4199 1.32363L9.32421 3.51602Q9.29589 3.57168 9.24804 3.59609Q9.20019 3.61953 9.15234 3.61953ZM12.0676 3.66445Q11.9885 3.66445 11.9377 3.61953Q11.8879 3.57559 11.8879 3.5043L11.8879 3.44766Q11.7238 3.62441 11.4318 3.62441Q11.2121 3.62441 11.0353 3.51602Q10.8596 3.40762 10.76 3.21035Q10.6603 3.01211 10.6603 2.76016Q10.6603 2.47988 10.7795 2.21816Q10.8996 1.95645 11.1174 1.79238Q11.3361 1.62832 11.6203 1.62832Q11.8039 1.62832 11.9514 1.67813Q12.0998 1.72793 12.26 1.8002L12.26 3.46426Q12.26 3.54434 12.2033 3.60391Q12.1476 3.66445 12.0676 3.66445ZM11.4601 3.25234Q11.5764 3.25234 11.6857 3.20449Q11.7961 3.15566 11.8684 3.08828L11.8801 2.04434Q11.7639 1.99648 11.6281 1.99648Q11.4562 1.99648 11.3234 2.10293Q11.1916 2.2084 11.1193 2.38223Q11.048 2.55605 11.048 2.75234Q11.048 2.99648 11.1555 3.12441Q11.2639 3.25234 11.4601 3.25234ZM12.9843 3.61953Q12.9043 3.61953 12.8476 3.56191Q12.792 3.5043 12.792 3.42813Q12.792 3.39199 12.8164 3.34414L13.7998 1.37246L12.7998 1.37246Q12.7197 1.37246 12.664 1.3168Q12.6084 1.26016 12.6084 1.18008Q12.6084 1.10391 12.664 1.04629Q12.7197 0.987695 12.7998 0.987695L14.1084 0.987695Q14.1884 0.987695 14.2441 1.04629Q14.2998 1.10391 14.2998 1.18398Q14.2998 1.22793 14.2519 1.32363L13.1562 3.51602Q13.1279 3.57168 13.08 3.59609Q13.0322 3.61953 12.9843 3.61953Z" transform="translate(9.33 0)" style="fill:#FFFFFF;" />
              </g>
            </g>
          </g>
        </g>
        <g id="Color" opacity="1" clip-path="url(#clip_path_6)" transform="translate(198 0)">
          <g>
            <use xlink:href="#path_4" style="fill:#B4B4B4;fill-rule:evenodd;mix-blend-mode:normal;" />
            <g>
              <g clip-path="url(#clip_path_10)" style="mix-blend-mode:normal;" transform="translate(0 29)">
                <path d="M1.02441 3.62441Q0.78418 3.62441 0.583984 3.5082Q0.383789 3.39199 0.267578 3.18984Q0.152344 2.9877 0.152344 2.74844Q0.152344 2.47598 0.280273 2.21621Q0.408203 1.95645 0.616211 1.79238Q0.824219 1.62832 1.05566 1.62832Q1.26758 1.62832 1.39746 1.69473Q1.52832 1.76016 1.65234 1.90371Q1.71191 1.96816 1.71191 2.04434Q1.71191 2.11953 1.65527 2.17422Q1.59961 2.22793 1.51953 2.22793Q1.46777 2.22793 1.4375 2.2123Q1.4082 2.1957 1.36816 2.14785Q1.2998 2.07168 1.2334 2.03164Q1.16797 1.9916 1.05957 1.9916Q0.935547 1.9916 0.80957 2.1Q0.683594 2.2084 0.605469 2.38223Q0.52832 2.55605 0.52832 2.73965Q0.52832 2.8998 0.597656 3.01797Q0.667969 3.13613 0.779297 3.19863Q0.891602 3.26016 1.01562 3.26016Q1.17578 3.26016 1.27734 3.20059Q1.37988 3.14004 1.45996 3.03555Q1.53613 2.93594 1.63184 2.93594Q1.70801 2.93594 1.76367 2.99063Q1.82031 3.04434 1.82031 3.11172Q1.82031 3.1918 1.77637 3.24844Q1.66016 3.40371 1.45996 3.51406Q1.25977 3.62441 1.02441 3.62441ZM2.43566 4.34023Q2.36438 4.34023 2.31164 4.28164Q2.25988 4.22402 2.25988 4.14395Q2.25988 4.10781 2.28039 4.05996L2.62805 3.31191L1.91223 1.91641Q1.88781 1.86758 1.88781 1.81973Q1.88781 1.73965 1.94543 1.68203Q2.00402 1.62441 2.08801 1.62441Q2.15246 1.62441 2.20031 1.66055Q2.24816 1.6957 2.2716 1.74355L2.83605 2.85977L3.33996 1.74355Q3.36438 1.6918 3.41418 1.65566Q3.46398 1.61953 3.52355 1.61953Q3.59582 1.61953 3.64758 1.67617Q3.70031 1.73184 3.70031 1.81582Q3.70031 1.86367 3.68371 1.8959L2.61633 4.21621Q2.59191 4.27188 2.54406 4.30606Q2.49621 4.34023 2.43566 4.34023ZM5.20357 3.66445Q5.12447 3.66445 5.07369 3.61953Q5.02388 3.57559 5.02388 3.5043L5.02388 3.44766Q4.85982 3.62441 4.56783 3.62441Q4.3481 3.62441 4.17134 3.51602Q3.99556 3.40762 3.89595 3.21035Q3.79634 3.01211 3.79634 2.76016Q3.79634 2.47988 3.91548 2.21816Q4.0356 1.95645 4.25338 1.79238Q4.47213 1.62832 4.7563 1.62832Q4.9399 1.62832 5.08736 1.67813Q5.2358 1.72793 5.39595 1.8002L5.39595 3.46426Q5.39595 3.54434 5.33931 3.60391Q5.28365 3.66445 5.20357 3.66445ZM4.59615 3.25234Q4.71236 3.25234 4.82173 3.20449Q4.93209 3.15566 5.00435 3.08828L5.01607 2.04434Q4.89986 1.99648 4.76412 1.99648Q4.59224 1.99648 4.45943 2.10293Q4.32759 2.2084 4.25533 2.38223Q4.18404 2.55605 4.18404 2.75234Q4.18404 2.99648 4.29146 3.12441Q4.39986 3.25234 4.59615 3.25234ZM6.14768 3.62441Q6.07248 3.62441 6.01389 3.56875Q5.95627 3.51211 5.95627 3.43984L5.95627 1.81582Q5.95627 1.73574 6.01584 1.68008Q6.07639 1.62441 6.15647 1.62441Q6.23166 1.62441 6.28538 1.68008Q6.34006 1.73574 6.34006 1.81582L6.34006 2.11953Q6.45237 1.88027 6.62424 1.7543Q6.79612 1.62832 7.00022 1.62832Q7.22385 1.62832 7.35569 1.73281Q7.48752 1.83633 7.54709 2.07461Q7.60764 2.31191 7.60764 2.73184L7.60373 3.43203Q7.60373 3.5082 7.55198 3.5668Q7.50022 3.62441 7.42014 3.62441Q7.34397 3.62441 7.28538 3.5668Q7.22776 3.5082 7.22776 3.43594L7.22776 2.77188Q7.22776 2.46035 7.19944 2.29238Q7.17209 2.12441 7.11545 2.06289Q7.05979 2.00039 6.96409 2.00039Q6.84397 2.00039 6.72385 2.10195Q6.60373 2.20352 6.50022 2.39199Q6.40842 2.55605 6.37229 2.7123Q6.33616 2.86758 6.33616 3.08828L6.33616 3.42422Q6.33616 3.51211 6.28538 3.56875Q6.23557 3.62441 6.14768 3.62441Z" transform="translate(12.576 0)" style="fill:#FFFFFF;" />
              </g>
              <g style="mix-blend-mode:normal;" transform="translate(0 14)">
                <path d="M0.727539 3.62441Q0.643555 3.62441 0.589844 3.56875Q0.536133 3.51211 0.536133 3.43984Q0.536133 3.40762 0.555664 3.34023L0.692383 2.85977L0.391602 2.85977Q0.311523 2.85977 0.255859 2.8041Q0.200195 2.74844 0.200195 2.66836Q0.200195 2.59219 0.255859 2.53457Q0.311523 2.47598 0.391602 2.47598L0.803711 2.47598L0.923828 2.06387L0.555664 2.06387Q0.475586 2.06387 0.419922 2.0082Q0.364258 1.95156 0.364258 1.87246Q0.364258 1.79629 0.419922 1.73867Q0.475586 1.68008 0.555664 1.68008L1.04004 1.68008L1.21191 1.07559Q1.22754 1.01602 1.28125 0.97793Q1.33594 0.939844 1.40039 0.939844Q1.48438 0.939844 1.53809 0.996485Q1.5918 1.05215 1.5918 1.12832Q1.5918 1.15957 1.57617 1.21621L1.44043 1.68008L1.80371 1.68008L1.98047 1.07559Q1.99609 1.01602 2.0498 0.97793Q2.10352 0.939844 2.16406 0.939844Q2.24805 0.939844 2.30176 0.998438Q2.35645 1.05605 2.35645 1.13223Q2.35645 1.16836 2.34375 1.2123L2.2041 1.68008L2.45215 1.68008Q2.52832 1.68008 2.58594 1.73867Q2.64355 1.79629 2.64355 1.87246Q2.64355 1.95156 2.58594 2.0082Q2.52832 2.06387 2.45215 2.06387L2.0918 2.06387L1.97559 2.47598L2.28809 2.47598Q2.36426 2.47598 2.42188 2.53457Q2.48047 2.59219 2.48047 2.66836Q2.48047 2.74844 2.42383 2.8041Q2.36816 2.85977 2.28809 2.85977L1.86426 2.85977L1.67969 3.4877Q1.66016 3.55605 1.60742 3.59023Q1.55566 3.62441 1.49609 3.62441Q1.41211 3.62441 1.35742 3.5668Q1.30371 3.5082 1.30371 3.43203Q1.30371 3.38809 1.32031 3.33633L1.45996 2.85977L1.0957 2.85977L0.916016 3.4877Q0.896484 3.55215 0.841797 3.58828Q0.788086 3.62441 0.727539 3.62441ZM1.57227 2.47598L1.69238 2.06387L1.32422 2.06387L1.20801 2.47598L1.57227 2.47598ZM3.30787 3.61953Q3.22779 3.61953 3.17603 3.56777Q3.12427 3.51602 3.12427 3.43984L3.12427 1.11563Q3.12427 1.03555 3.17994 0.985742Q3.2356 0.935938 3.31568 0.935938Q3.39185 0.935938 3.44752 0.985742Q3.50416 1.03555 3.50416 1.11563L3.50416 1.8998Q3.62037 1.77188 3.76002 1.71621Q3.89966 1.65957 4.06763 1.65957Q4.26783 1.65957 4.43189 1.76211Q4.59595 1.86367 4.69361 2.06387Q4.79224 2.26406 4.79224 2.54824Q4.79224 3.05996 4.55591 3.33047Q4.31959 3.6 3.91236 3.6Q3.80005 3.6 3.67408 3.56191Q3.5481 3.52383 3.47974 3.47598L3.47974 3.50039Q3.47974 3.54043 3.42994 3.58047Q3.38013 3.61953 3.30787 3.61953ZM3.88404 3.22402Q4.16431 3.22402 4.29029 3.04824Q4.41627 2.87246 4.41627 2.54824Q4.41627 2.3002 4.31959 2.17227Q4.22388 2.04434 4.05982 2.04434Q3.90845 2.04434 3.77955 2.1Q3.65162 2.15566 3.5774 2.25234Q3.50416 2.34805 3.50416 2.46426L3.50416 3.15566Q3.70826 3.22402 3.88404 3.22402ZM6.27213 3.62832Q6.19205 3.62832 6.13541 3.5707Q6.07974 3.51211 6.07974 3.43594L6.07974 3.01992L5.26041 3.0082Q5.17154 3.0082 5.11978 2.95645Q5.06802 2.90371 5.06802 2.81973Q5.06802 2.76797 5.10025 2.7123L6.11197 1.04824Q6.16763 0.956445 6.27213 0.956445Q6.35611 0.956445 6.41177 1.01211Q6.46841 1.06777 6.46841 1.14785L6.46841 2.64395L6.50845 2.64395Q6.58755 2.64395 6.63931 2.70059Q6.69205 2.75625 6.69205 2.83633Q6.69205 2.91641 6.6315 2.97207Q6.57193 3.02773 6.49185 3.02773L6.46841 3.02773L6.46841 3.43594Q6.46841 3.51211 6.40787 3.5707Q6.3483 3.62832 6.27213 3.62832ZM6.07974 1.83633L5.60025 2.62441L6.07974 2.63613L6.07974 1.83633ZM7.28387 3.61953Q7.20379 3.61953 7.15203 3.56777Q7.10027 3.51602 7.10027 3.43984L7.10027 1.11563Q7.10027 1.03555 7.15594 0.985742Q7.2116 0.935938 7.29168 0.935938Q7.36785 0.935938 7.42352 0.985742Q7.48016 1.03555 7.48016 1.11563L7.48016 1.8998Q7.59637 1.77188 7.73602 1.71621Q7.87566 1.65957 8.04363 1.65957Q8.24383 1.65957 8.40789 1.76211Q8.57195 1.86367 8.66961 2.06387Q8.76824 2.26406 8.76824 2.54824Q8.76824 3.05996 8.53191 3.33047Q8.29559 3.6 7.88836 3.6Q7.77605 3.6 7.65008 3.56191Q7.5241 3.52383 7.45574 3.47598L7.45574 3.50039Q7.45574 3.54043 7.40594 3.58047Q7.35613 3.61953 7.28387 3.61953ZM7.86004 3.22402Q8.14031 3.22402 8.26629 3.04824Q8.39227 2.87246 8.39227 2.54824Q8.39227 2.3002 8.29559 2.17227Q8.19988 2.04434 8.03582 2.04434Q7.88445 2.04434 7.75555 2.1Q7.62762 2.15566 7.5534 2.25234Q7.48016 2.34805 7.48016 2.46426L7.48016 3.15566Q7.68426 3.22402 7.86004 3.22402ZM10.2481 3.62832Q10.168 3.62832 10.1114 3.5707Q10.0557 3.51211 10.0557 3.43594L10.0557 3.01992L9.23641 3.0082Q9.14754 3.0082 9.09578 2.95645Q9.04402 2.90371 9.04402 2.81973Q9.04402 2.76797 9.07625 2.7123L10.088 1.04824Q10.1436 0.956445 10.2481 0.956445Q10.3321 0.956445 10.3878 1.01211Q10.4444 1.06777 10.4444 1.14785L10.4444 2.64395L10.4845 2.64395Q10.5636 2.64395 10.6153 2.70059Q10.668 2.75625 10.668 2.83633Q10.668 2.91641 10.6075 2.97207Q10.5479 3.02773 10.4679 3.02773L10.4444 3.02773L10.4444 3.43594Q10.4444 3.51211 10.3839 3.5707Q10.3243 3.62832 10.2481 3.62832ZM10.0557 1.83633L9.57625 2.62441L10.0557 2.63613L10.0557 1.83633ZM11.2599 3.61953Q11.1798 3.61953 11.128 3.56777Q11.0763 3.51602 11.0763 3.43984L11.0763 1.11563Q11.0763 1.03555 11.1319 0.985742Q11.1876 0.935938 11.2677 0.935938Q11.3439 0.935938 11.3995 0.985742Q11.4562 1.03555 11.4562 1.11563L11.4562 1.8998Q11.5724 1.77188 11.712 1.71621Q11.8517 1.65957 12.0196 1.65957Q12.2198 1.65957 12.3839 1.76211Q12.548 1.86367 12.6456 2.06387Q12.7442 2.26406 12.7442 2.54824Q12.7442 3.05996 12.5079 3.33047Q12.2716 3.6 11.8644 3.6Q11.7521 3.6 11.6261 3.56191Q11.5001 3.52383 11.4317 3.47598L11.4317 3.50039Q11.4317 3.54043 11.3819 3.58047Q11.3321 3.61953 11.2599 3.61953ZM11.836 3.22402Q12.1163 3.22402 12.2423 3.04824Q12.3683 2.87246 12.3683 2.54824Q12.3683 2.3002 12.2716 2.17227Q12.1759 2.04434 12.0118 2.04434Q11.8605 2.04434 11.7315 2.1Q11.6036 2.15566 11.5294 2.25234Q11.4562 2.34805 11.4562 2.46426L11.4562 3.15566Q11.6603 3.22402 11.836 3.22402ZM14.2241 3.62832Q14.144 3.62832 14.0874 3.5707Q14.0317 3.51211 14.0317 3.43594L14.0317 3.01992L13.2124 3.0082Q13.1235 3.0082 13.0718 2.95645Q13.02 2.90371 13.02 2.81973Q13.02 2.76797 13.0523 2.7123L14.064 1.04824Q14.1196 0.956445 14.2241 0.956445Q14.3081 0.956445 14.3638 1.01211Q14.4204 1.06777 14.4204 1.14785L14.4204 2.64395L14.4605 2.64395Q14.5396 2.64395 14.5913 2.70059Q14.644 2.75625 14.644 2.83633Q14.644 2.91641 14.5835 2.97207Q14.5239 3.02773 14.4439 3.02773L14.4204 3.02773L14.4204 3.43594Q14.4204 3.51211 14.3599 3.5707Q14.3003 3.62832 14.2241 3.62832ZM14.0317 1.83633L13.5523 2.62441L14.0317 2.63613L14.0317 1.83633Z" transform="translate(9.114 0)" style="fill:#FFFFFF;" />
              </g>
            </g>
          </g>
        </g>
        <g id="Color" opacity="1" clip-path="url(#clip_path_6)" transform="translate(231 0)">
          <g>
            <use xlink:href="#path_4" style="fill:#F5F5F5;fill-rule:evenodd;mix-blend-mode:normal;" />
            <g>
              <g clip-path="url(#clip_path_10)" style="mix-blend-mode:normal;" transform="translate(0 29)">
                <path d="M0.587891 3.62441Q0.507812 3.62441 0.459961 3.58242Q0.412109 3.54043 0.396484 3.46816L0.0644531 1.88809Q0.0517578 1.82754 0.0517578 1.79238Q0.0517578 1.72793 0.107422 1.67617Q0.164062 1.62441 0.240234 1.62441Q0.316406 1.62441 0.364258 1.66836Q0.412109 1.7123 0.427734 1.78359L0.631836 2.79629L0.992188 1.76406Q1.01172 1.69961 1.06543 1.6625Q1.12012 1.62441 1.18359 1.62441Q1.33984 1.62441 1.37598 1.76406L1.62402 2.81582L1.94043 1.77578Q1.95996 1.71621 2.01367 1.67227Q2.06836 1.62832 2.12793 1.62832Q2.2041 1.62832 2.26172 1.68008Q2.32031 1.73184 2.32031 1.80801Q2.32031 1.84805 2.30762 1.88418L1.7959 3.47988Q1.74805 3.62441 1.6123 3.62441Q1.46387 3.62441 1.42383 3.47598L1.15625 2.42813L0.772461 3.48379Q0.748047 3.55215 0.698242 3.58828Q0.648438 3.62441 0.587891 3.62441ZM2.95168 3.62832Q2.87648 3.62832 2.81789 3.5707Q2.76027 3.51211 2.76027 3.43594L2.76027 1.13223Q2.76027 1.05215 2.81789 0.994531Q2.87648 0.935938 2.96047 0.935938Q3.03957 0.935938 3.09133 0.994531Q3.14406 1.05215 3.14406 1.13223L3.14406 1.9916Q3.2759 1.82363 3.44387 1.72207Q3.61184 1.61953 3.7798 1.61953Q4.09621 1.61953 4.22414 1.93789Q4.35207 2.25625 4.35207 2.94375Q4.35207 3.33242 4.34035 3.44375Q4.33645 3.51992 4.28176 3.57266Q4.22805 3.62441 4.15188 3.62441Q4.06789 3.62441 4.01613 3.5707Q3.96438 3.51602 3.96438 3.43594Q3.96438 3.35586 3.96828 3.3041L3.97219 2.97207Q3.97219 2.39199 3.90969 2.19668Q3.84816 2.00039 3.75637 2.00039Q3.64016 2.00039 3.52004 2.10684Q3.39992 2.2123 3.31398 2.34219Q3.22805 2.47207 3.19191 2.54824Q3.14406 2.65566 3.14406 2.83242L3.14406 3.42813Q3.14406 3.51992 3.08742 3.57461Q3.03176 3.62832 2.95168 3.62832ZM5.08809 1.46035Q5.01192 1.46035 4.95333 1.40078Q4.89571 1.34023 4.89962 1.26406L4.90352 1.11563Q4.90841 1.04043 4.96407 0.984766Q5.01973 0.928125 5.09591 0.928125Q5.17208 0.928125 5.2297 0.988672Q5.28829 1.04824 5.28438 1.11953L5.28048 1.27188Q5.27559 1.35195 5.22188 1.40664Q5.16817 1.46035 5.08809 1.46035ZM5.06759 3.62441Q4.98848 3.62441 4.92989 3.5668Q4.87227 3.5082 4.87227 3.42813L4.8918 1.83633Q4.8918 1.75625 4.94942 1.69863Q5.00802 1.64004 5.08809 1.64004Q5.17208 1.64004 5.22774 1.69863Q5.28438 1.75625 5.28438 1.83633L5.26388 3.42813Q5.26388 3.5082 5.20528 3.5668Q5.14766 3.62441 5.06759 3.62441ZM6.19193 3.62832Q6.11576 3.62832 6.05716 3.57266Q5.99955 3.51602 5.99955 3.43984L5.99955 2.01211L5.68412 2.01211Q5.60404 2.01211 5.54838 1.95449Q5.49173 1.8959 5.49173 1.81973Q5.49173 1.73184 5.55228 1.67813Q5.61185 1.62441 5.69193 1.62441L5.99955 1.62441L5.99955 1.1957Q5.99955 1.11953 6.05521 1.05996Q6.11185 1.00039 6.19193 1.00039Q6.27591 1.00039 6.32963 1.05801Q6.38431 1.11563 6.38431 1.1957L6.38431 1.62441L6.72416 1.62441Q6.80423 1.62441 6.8599 1.68008Q6.91556 1.73574 6.91556 1.81973Q6.91556 1.8959 6.8599 1.95449Q6.80423 2.01211 6.72416 2.01211L6.38431 2.01211L6.38431 3.43984Q6.38431 3.51602 6.32767 3.57266Q6.27201 3.62832 6.19193 3.62832ZM7.92355 3.62441Q7.64035 3.62441 7.41379 3.50234Q7.1882 3.38027 7.06027 3.15469Q6.93234 2.92813 6.93234 2.61953Q6.93234 2.36758 7.04563 2.13809Q7.15988 1.90762 7.36594 1.76797Q7.57199 1.62832 7.83566 1.62832Q8.07981 1.62832 8.25363 1.72598Q8.42844 1.82363 8.51633 1.96035Q8.60422 2.09609 8.60422 2.20352Q8.60422 2.25625 8.57199 2.3041Q8.53977 2.35195 8.4802 2.38809L7.40793 3.0043Q7.46359 3.12832 7.6052 3.19668Q7.74777 3.26406 7.92355 3.26406Q8.15598 3.26406 8.32004 3.09219Q8.38352 3.02773 8.45188 3.02773Q8.53195 3.02773 8.58566 3.08047Q8.64035 3.13223 8.64035 3.2084Q8.64035 3.27188 8.59152 3.32754Q8.4802 3.45156 8.29367 3.53848Q8.10813 3.62441 7.92355 3.62441ZM8.20774 2.15566Q8.15988 2.07168 8.07199 2.02969Q7.9841 1.9877 7.86398 1.9877Q7.63645 1.9877 7.48215 2.14395Q7.32785 2.3002 7.30441 2.52773Q7.29563 2.58828 7.29563 2.67227L8.20774 2.15566Z" transform="translate(12.128 0)" style="fill:#000000;" />
              </g>
              <g style="mix-blend-mode:normal;" transform="translate(0 14)">
                <path d="M0.727539 3.62441Q0.643555 3.62441 0.589844 3.56875Q0.536133 3.51211 0.536133 3.43984Q0.536133 3.40762 0.555664 3.34023L0.692383 2.85977L0.391602 2.85977Q0.311523 2.85977 0.255859 2.8041Q0.200195 2.74844 0.200195 2.66836Q0.200195 2.59219 0.255859 2.53457Q0.311523 2.47598 0.391602 2.47598L0.803711 2.47598L0.923828 2.06387L0.555664 2.06387Q0.475586 2.06387 0.419922 2.0082Q0.364258 1.95156 0.364258 1.87246Q0.364258 1.79629 0.419922 1.73867Q0.475586 1.68008 0.555664 1.68008L1.04004 1.68008L1.21191 1.07559Q1.22754 1.01602 1.28125 0.97793Q1.33594 0.939844 1.40039 0.939844Q1.48438 0.939844 1.53809 0.996485Q1.5918 1.05215 1.5918 1.12832Q1.5918 1.15957 1.57617 1.21621L1.44043 1.68008L1.80371 1.68008L1.98047 1.07559Q1.99609 1.01602 2.0498 0.97793Q2.10352 0.939844 2.16406 0.939844Q2.24805 0.939844 2.30176 0.998438Q2.35645 1.05605 2.35645 1.13223Q2.35645 1.16836 2.34375 1.2123L2.2041 1.68008L2.45215 1.68008Q2.52832 1.68008 2.58594 1.73867Q2.64355 1.79629 2.64355 1.87246Q2.64355 1.95156 2.58594 2.0082Q2.52832 2.06387 2.45215 2.06387L2.0918 2.06387L1.97559 2.47598L2.28809 2.47598Q2.36426 2.47598 2.42188 2.53457Q2.48047 2.59219 2.48047 2.66836Q2.48047 2.74844 2.42383 2.8041Q2.36816 2.85977 2.28809 2.85977L1.86426 2.85977L1.67969 3.4877Q1.66016 3.55605 1.60742 3.59023Q1.55566 3.62441 1.49609 3.62441Q1.41211 3.62441 1.35742 3.5668Q1.30371 3.5082 1.30371 3.43203Q1.30371 3.38809 1.32031 3.33633L1.45996 2.85977L1.0957 2.85977L0.916016 3.4877Q0.896484 3.55215 0.841797 3.58828Q0.788086 3.62441 0.727539 3.62441ZM1.57227 2.47598L1.69238 2.06387L1.32422 2.06387L1.20801 2.47598L1.57227 2.47598ZM3.38795 3.62441Q3.31177 3.62441 3.25318 3.56875Q3.19556 3.51211 3.19556 3.43984L3.19556 1.9916L3.01197 1.9916Q2.9397 1.9916 2.88404 1.93594Q2.82838 1.88027 2.82838 1.80801Q2.82838 1.73184 2.88404 1.67617Q2.9397 1.61953 3.00806 1.61953L3.20045 1.61953Q3.21607 1.23965 3.40552 1.08633Q3.59595 0.932031 4.01587 0.932031Q4.12818 0.932031 4.18775 0.97207Q4.2483 1.01211 4.2483 1.11563Q4.2483 1.1957 4.19752 1.25039Q4.14771 1.3041 4.05982 1.3041Q3.88013 1.3041 3.78541 1.32656Q3.69166 1.34805 3.6438 1.41641Q3.59595 1.48379 3.58423 1.61953L3.99244 1.62441Q4.05591 1.62441 4.11353 1.68008Q4.17212 1.73574 4.17212 1.80801Q4.17212 1.88027 4.11744 1.93594Q4.06373 1.9916 3.99244 1.9916L3.58033 1.9916L3.58033 3.43984Q3.58033 3.51211 3.52173 3.56875Q3.46412 3.62441 3.38795 3.62441ZM5.13191 3.62441Q4.9239 3.62441 4.75398 3.54434Q4.58405 3.46426 4.47761 3.36074Q4.37214 3.25625 4.33601 3.17617Q4.31648 3.12832 4.31648 3.08438Q4.31648 3.0082 4.37409 2.95059Q4.43171 2.89199 4.50788 2.89199Q4.57234 2.89199 4.60359 2.91445Q4.63581 2.93594 4.67195 2.9877Q4.84382 3.23574 5.13191 3.23574Q5.27155 3.23574 5.39558 3.1498Q5.5196 3.06387 5.59382 2.91836Q5.66804 2.77188 5.66804 2.6Q5.66804 2.38027 5.54988 2.22012Q5.43171 2.05996 5.20808 2.05996Q4.96003 2.05996 4.75984 2.26016Q4.7237 2.29629 4.68562 2.31484Q4.64753 2.33242 4.59187 2.33242Q4.50788 2.33242 4.45613 2.27285Q4.40437 2.2123 4.41218 2.11953L4.50788 1.15566Q4.51179 1.08438 4.56941 1.03457Q4.628 0.983789 4.70027 0.983789L5.75984 0.983789Q5.83601 0.983789 5.89363 1.04238Q5.95222 1.1 5.95222 1.17617Q5.95222 1.26016 5.89363 1.3168Q5.83601 1.37246 5.75984 1.37246L4.87605 1.37246L4.83601 1.74844Q5.00788 1.67617 5.20808 1.67617Q5.44831 1.67617 5.63972 1.79238Q5.8321 1.90762 5.94148 2.11758Q6.05183 2.32754 6.05183 2.6Q6.05183 2.87637 5.9239 3.1127Q5.79597 3.34805 5.5821 3.48672Q5.36823 3.62441 5.13191 3.62441ZM6.79595 3.62441Q6.71977 3.62441 6.66118 3.56875Q6.60356 3.51211 6.60356 3.43984L6.60356 1.9916L6.41997 1.9916Q6.3477 1.9916 6.29204 1.93594Q6.23638 1.88027 6.23638 1.80801Q6.23638 1.73184 6.29204 1.67617Q6.3477 1.61953 6.41606 1.61953L6.60845 1.61953Q6.62407 1.23965 6.81352 1.08633Q7.00395 0.932031 7.42388 0.932031Q7.53618 0.932031 7.59575 0.97207Q7.6563 1.01211 7.6563 1.11563Q7.6563 1.1957 7.60552 1.25039Q7.55571 1.3041 7.46782 1.3041Q7.28813 1.3041 7.19341 1.32656Q7.09966 1.34805 7.05181 1.41641Q7.00395 1.48379 6.99223 1.61953L7.40044 1.62441Q7.46391 1.62441 7.52153 1.68008Q7.58013 1.73574 7.58013 1.80801Q7.58013 1.88027 7.52544 1.93594Q7.47173 1.9916 7.40044 1.9916L6.98833 1.9916L6.98833 3.43984Q6.98833 3.51211 6.92973 3.56875Q6.87212 3.62441 6.79595 3.62441ZM8.53991 3.62441Q8.3319 3.62441 8.16198 3.54434Q7.99205 3.46426 7.88561 3.36074Q7.78014 3.25625 7.74401 3.17617Q7.72448 3.12832 7.72448 3.08438Q7.72448 3.0082 7.78209 2.95059Q7.83971 2.89199 7.91588 2.89199Q7.98034 2.89199 8.01159 2.91445Q8.04381 2.93594 8.07995 2.9877Q8.25182 3.23574 8.53991 3.23574Q8.67955 3.23574 8.80358 3.1498Q8.9276 3.06387 9.00182 2.91836Q9.07604 2.77188 9.07604 2.6Q9.07604 2.38027 8.95788 2.22012Q8.83971 2.05996 8.61608 2.05996Q8.36803 2.05996 8.16784 2.26016Q8.1317 2.29629 8.09362 2.31484Q8.05553 2.33242 7.99987 2.33242Q7.91588 2.33242 7.86413 2.27285Q7.81237 2.2123 7.82018 2.11953L7.91588 1.15566Q7.91979 1.08438 7.97741 1.03457Q8.036 0.983789 8.10827 0.983789L9.16784 0.983789Q9.24401 0.983789 9.30163 1.04238Q9.36022 1.1 9.36022 1.17617Q9.36022 1.26016 9.30163 1.3168Q9.24401 1.37246 9.16784 1.37246L8.28405 1.37246L8.24401 1.74844Q8.41588 1.67617 8.61608 1.67617Q8.85631 1.67617 9.04772 1.79238Q9.2401 1.90762 9.34948 2.11758Q9.45983 2.32754 9.45983 2.6Q9.45983 2.87637 9.3319 3.1127Q9.20397 3.34805 8.9901 3.48672Q8.77623 3.62441 8.53991 3.62441ZM10.2039 3.62441Q10.1278 3.62441 10.0692 3.56875Q10.0116 3.51211 10.0116 3.43984L10.0116 1.9916L9.82797 1.9916Q9.7557 1.9916 9.70004 1.93594Q9.64437 1.88027 9.64437 1.80801Q9.64437 1.73184 9.70004 1.67617Q9.7557 1.61953 9.82406 1.61953L10.0164 1.61953Q10.0321 1.23965 10.2215 1.08633Q10.412 0.932031 10.8319 0.932031Q10.9442 0.932031 11.0037 0.97207Q11.0643 1.01211 11.0643 1.11563Q11.0643 1.1957 11.0135 1.25039Q10.9637 1.3041 10.8758 1.3041Q10.6961 1.3041 10.6014 1.32656Q10.5077 1.34805 10.4598 1.41641Q10.412 1.48379 10.4002 1.61953L10.8084 1.62441Q10.8719 1.62441 10.9295 1.68008Q10.9881 1.73574 10.9881 1.80801Q10.9881 1.88027 10.9334 1.93594Q10.8797 1.9916 10.8084 1.9916L10.3963 1.9916L10.3963 3.43984Q10.3963 3.51211 10.3377 3.56875Q10.2801 3.62441 10.2039 3.62441ZM11.9479 3.62441Q11.7399 3.62441 11.57 3.54434Q11.4001 3.46426 11.2936 3.36074Q11.1881 3.25625 11.152 3.17617Q11.1325 3.12832 11.1325 3.08438Q11.1325 3.0082 11.1901 2.95059Q11.2477 2.89199 11.3239 2.89199Q11.3883 2.89199 11.4196 2.91445Q11.4518 2.93594 11.4879 2.9877Q11.6598 3.23574 11.9479 3.23574Q12.0876 3.23574 12.2116 3.1498Q12.3356 3.06387 12.4098 2.91836Q12.484 2.77188 12.484 2.6Q12.484 2.38027 12.3659 2.22012Q12.2477 2.05996 12.0241 2.05996Q11.776 2.05996 11.5758 2.26016Q11.5397 2.29629 11.5016 2.31484Q11.4635 2.33242 11.4079 2.33242Q11.3239 2.33242 11.2721 2.27285Q11.2204 2.2123 11.2282 2.11953L11.3239 1.15566Q11.3278 1.08438 11.3854 1.03457Q11.444 0.983789 11.5163 0.983789L12.5758 0.983789Q12.652 0.983789 12.7096 1.04238Q12.7682 1.1 12.7682 1.17617Q12.7682 1.26016 12.7096 1.3168Q12.652 1.37246 12.5758 1.37246L11.692 1.37246L11.652 1.74844Q11.8239 1.67617 12.0241 1.67617Q12.2643 1.67617 12.4557 1.79238Q12.6481 1.90762 12.7575 2.11758Q12.8678 2.32754 12.8678 2.6Q12.8678 2.87637 12.7399 3.1127Q12.612 3.34805 12.3981 3.48672Q12.1842 3.62441 11.9479 3.62441Z" transform="translate(9.966 0)" style="fill:#000000;" />
              </g>
            </g>
          </g>
        </g>
      </g>
    </g>
  </g>
</svg>